<?xml version="1.0" encoding="utf-8"?>
<!DOCTYPE svg PUBLIC "-//W3C//DTD SVG 20010904//EN" "http://www.w3.org/TR/2001/REC-SVG-20010904/DTD/svg10.dtd">
<svg version="1.0" xmlns="http://www.w3.org/2000/svg" width="70px" height="69px" viewBox="0 0 70 69" preserveAspectRatio="xMidYMid meet">
 <g fill="#020202">
  <path d="M0 54.5 c0 -13.2 0.2 -14.5 1.8 -14.5 1.2 0 2.3 1.6 3.5 5 2.2 6.1 10.4 14.9 16.5 17.5 2.3 1 4.2 2.2 4.2 2.7 0 0.4 0.7 0.8 1.5 0.8 0.8 0 1.5 0.7 1.5 1.5 0 1.3 -2.3 1.5 -14.5 1.5 l-14.5 0 0 -14.5z"/>
  <path d="M41 67.5 c0 -0.8 0.7 -1.5 1.5 -1.5 0.8 0 1.5 -0.4 1.5 -0.8 0 -0.5 1.9 -1.7 4.3 -2.7 5 -2.2 13.8 -10.9 15.7 -15.6 0.8 -1.9 2 -4 2.6 -4.6 2.9 -3 3.4 -1.2 3.4 12.7 l0 14 -14.5 0 c-12.2 0 -14.5 -0.2 -14.5 -1.5z"/>
  <path d="M0 14.5 l0 -14.5 15 0 c13.6 0 15 0.2 15 1.8 0 1.1 -1.3 2.1 -4.1 3 -9 2.8 -18.6 12.1 -21.1 20.4 -0.8 2.6 -1.7 3.8 -3 3.8 -1.7 0 -1.8 -1.1 -1.8 -14.5z"/>
  <path d="M66.5 26.7 c-0.6 -0.7 -1.6 -2.5 -2.3 -4.1 -3.4 -7.6 -12.1 -15.3 -20.1 -17.8 -2.8 -0.9 -4.1 -1.9 -4.1 -3 0 -1.6 1.4 -1.8 15 -1.8 l15 0 0 14 c0 10.6 -0.3 14 -1.2 14 -0.7 -0.1 -1.8 -0.6 -2.3 -1.3z"/>
 </g>
 <g fill="#1e1e1e">
  <path d="M23 67.3 c-9.6 -3.3 -17.6 -11 -21.1 -20.3 -2.4 -6.2 -2.4 -8 -0.1 -8 1.2 0 2.4 1.8 4 5.9 1.2 3.2 2.2 6.3 2.2 7 0 0.6 0.7 1.1 1.5 1.1 0.8 0 1.5 0.9 1.5 1.9 0 1.3 0.8 2.1 2.3 2.3 1.4 0.2 2.3 1.1 2.5 2.6 0.3 1.7 1 2.2 3.3 2.2 1.6 0 2.9 0.5 2.9 1 0 0.6 1.1 1 2.5 1 1.4 0 2.5 0.5 2.5 1 0 0.6 0.7 1 1.5 1 0.8 0 1.5 0.7 1.5 1.5 0 1.9 -1.3 1.8 -7 -0.2z"/>
  <path d="M40 67.6 c0 -0.9 0.7 -1.6 1.5 -1.6 0.8 0 1.5 -0.4 1.5 -1 0 -0.5 1.1 -1 2.5 -1 1.4 0 2.5 -0.4 2.5 -1 0 -0.5 1.3 -1 2.9 -1 2.3 0 3 -0.5 3.3 -2.2 0.2 -1.5 1.1 -2.4 2.6 -2.6 1.4 -0.2 2.2 -1 2.2 -2.3 0 -1 0.7 -1.9 1.5 -1.9 0.8 0 1.5 -0.7 1.5 -1.5 0 -1.8 3.1 -8.6 4.7 -10.2 1.4 -1.5 3.3 -1.7 3.3 -0.3 0 0.5 -0.9 3.4 -2.1 6.5 -3.6 9.6 -14.3 18.7 -24.6 21 -2.6 0.5 -3.3 0.3 -3.3 -0.9z"/>
  <path d="M0 28.5 c0 -0.8 0.9 -3.9 2.1 -7 3.7 -9.8 14.7 -19.1 25.2 -21 3.3 -0.6 3.7 -0.5 3.7 1.3 0 1.7 -0.8 2.2 -4.5 2.8 -2.5 0.3 -4.5 1 -4.5 1.5 0 0.5 -0.7 0.9 -1.5 0.9 -0.8 0 -1.5 0.5 -1.5 1 0 0.6 -0.6 1 -1.4 1 -0.8 0 -1.6 0.7 -2 1.5 -0.3 0.8 -1.5 1.5 -2.6 1.5 -1.3 0 -2 0.7 -2 2 0 1.1 -0.7 2 -1.5 2 -0.8 0 -1.5 0.5 -1.5 1.1 0 0.7 -1 3.8 -2.2 7 -1.6 4.1 -2.8 5.9 -4 5.9 -1 0 -1.8 -0.7 -1.8 -1.5z"/>
  <path d="M66.5 27.7 c-1.5 -1.9 -4.5 -8.6 -4.5 -10.2 0 -0.8 -0.7 -1.5 -1.5 -1.5 -0.8 0 -1.5 -0.9 -1.5 -1.9 0 -1.3 -0.8 -2.1 -2.2 -2.3 -1.5 -0.2 -2.4 -1.1 -2.6 -2.5 -0.3 -1.8 -1 -2.3 -3.3 -2.3 -1.6 0 -2.9 -0.4 -2.9 -0.9 0 -0.5 -2 -1.2 -4.5 -1.5 -3.7 -0.6 -4.5 -1.1 -4.5 -2.8 0 -1.8 0.4 -1.9 3.7 -1.3 10.5 1.9 21.5 11.2 25.2 21 1.2 3.1 2.1 6 2.1 6.5 0 1.4 -2.3 1.2 -3.5 -0.3z"/>
 </g>
 <g fill="#323a49">
  <path d="M27.3 68.3 c-0.9 -0.3 -1.3 -3.6 -1.3 -11.3 0 -6.2 -0.4 -11.1 -1 -11.5 -1.1 -0.7 -1.3 -5.4 -0.4 -7.9 0.3 -0.9 1.2 -1.6 2 -1.6 0.8 0 1.4 -0.4 1.4 -1 0 -1.8 6.6 -1.1 8.3 0.8 2 2.2 2.3 7.8 0.5 8.5 -1 0.4 -1 0.6 0 0.6 0.6 0.1 1.2 1.2 1.2 2.5 0 1.3 0.6 2.6 1.4 2.9 1 0.4 1.7 2.8 2.2 6.6 0.4 3.4 1.1 6.1 1.5 6.1 1.6 0 1 4.8 -0.7 5.4 -1.8 0.7 -13.3 0.7 -15.1 -0.1z"/>
  <path d="M6.8 55.5 c-1 -1.3 -1.8 -3.3 -1.8 -4.4 0 -1.7 0.6 -2.1 3.5 -2.1 3.5 0 3.5 0 3.5 4.5 0 3.6 -0.3 4.5 -1.7 4.5 -1 0 -2.6 -1.1 -3.5 -2.5z"/>
  <path d="M61 47.7 c0 -2 -7.4 -8.5 -10.1 -8.9 -1.6 -0.2 -2.5 -1.1 -2.7 -2.5 -0.3 -1.9 -1 -2.3 -3.8 -2.3 -3.2 0 -3.4 -0.2 -3.4 -3.5 0 -3.3 0.2 -3.5 3.5 -3.5 2.8 0 3.5 0.4 3.5 2 0 1.6 0.7 2 3.5 2 2.2 0 3.8 0.6 4.1 1.5 0.4 0.8 1.5 1.5 2.5 1.5 1.1 0 4.2 1.2 7 2.6 4.4 2.2 5 2.8 4.5 4.9 -1.6 6.3 -2.5 7.5 -5.6 7.5 -1.8 0 -3 -0.5 -3 -1.3z"/>
  <path d="M7 45.1 c0 -1.4 -0.6 -1.7 -2.6 -1.3 -1.6 0.3 -3 -0.1 -3.5 -0.9 -1.2 -1.9 -1.1 -6.9 0.1 -6.9 0.6 0 1 -0.7 1 -1.5 0 -1.8 5.1 -2.1 8.1 -0.5 1.6 0.9 1.9 0.7 1.9 -1.5 0 -2.3 0.4 -2.5 4 -2.5 3.7 0 4 0.2 4.9 3.8 0.6 2 1.1 5.2 1.1 7 0 3 -0.2 3.2 -3.5 3.2 -2.2 0 -3.8 0.6 -4.1 1.5 -0.4 0.9 -1.9 1.5 -4 1.5 -2.6 0 -3.4 -0.4 -3.4 -1.9z"/>
  <path d="M21 3.6 c0 -1.3 2.8 -2.6 5.8 -2.6 0.6 0 1.2 0.9 1.2 2 0 1.6 -0.7 2 -3.5 2 -2.3 0 -3.5 -0.5 -3.5 -1.4z"/>
 </g>
 <g fill="#4c4545">
  <path d="M24.5 67.6 c-6.2 -1.9 -9.7 -4.1 -14.4 -8.6 -7.6 -7.4 -12.7 -22.6 -8.6 -25.7 1.7 -1.2 1.7 -1.3 0.2 -1.3 -2.2 0 -2.2 -2.7 0.3 -9.1 2.8 -7.4 6.5 -12.3 12.3 -16.3 14.3 -9.8 33.5 -8.4 45.5 3.3 6.6 6.4 12.7 21.1 8.8 21.1 -1.1 0 -1.6 -0.9 -1.6 -3 0 -2 -0.5 -3 -1.5 -3 -0.8 0 -1.5 -0.7 -1.5 -1.6 0 -0.8 -0.7 -2.2 -1.5 -3 -0.8 -0.9 -1.5 -2.3 -1.5 -3.2 0 -1 -1 -2.2 -2.2 -2.7 -1.3 -0.6 -2.4 -2 -2.6 -3.2 -0.2 -1.4 -1 -2.3 -2.1 -2.3 -1.4 0 -2 1 -2.5 3.9 -0.8 5.1 -4.3 7.5 -10 6.8 -2.2 -0.3 -4.2 -1.1 -4.4 -1.6 -0.5 -1.5 -3.2 -1.4 -3.2 0.2 0 0.6 -1.2 2.3 -2.5 3.6 -1.4 1.3 -2.5 2.7 -2.5 3.2 0 0.5 -1.1 0.9 -2.5 0.9 -3.9 0 -2.1 2.5 4.1 5.6 5 2.5 5.4 3 5.4 6.2 l0 3.5 -2.7 -2.4 c-2 -1.7 -2.3 -1.8 -1 -0.3 1 1.2 1.6 3.5 1.6 5.5 l-0.2 3.4 -1 -3.7 c-1 -3.6 -3.8 -6 -4.5 -3.9 -0.6 1.7 -0.3 2.6 0.8 2.6 0.6 0 1 0.3 1 0.8 0 0.4 0 1.4 0 2.2 0 0.8 -0.9 1.5 -2 1.5 -1.1 0 -2 -0.7 -2 -1.5 0 -0.8 -0.4 -1.5 -1 -1.5 -0.5 0 -1 -0.9 -1 -2 0 -2.8 -1.8 -2.5 -2.6 0.5 -0.3 1.4 -1.2 2.5 -2 2.5 -0.8 0 -1.4 0.5 -1.4 1 0 0.6 -0.7 1 -1.5 1 -0.8 0 -1.5 0.7 -1.5 1.5 0 0.8 0.9 1.5 2 1.5 1.7 0 2 0.7 2 4 0 3.6 -0.2 4 -2.5 4 -1.4 0 -2.5 0.5 -2.5 1 0 0.6 0.9 1 2 1 3.7 0 15 6.2 15 8.2 0 1.1 -1.7 0.9 -6.5 -0.6z m-7.1 -33 c-0.6 -1.5 -2.4 -2.3 -2.4 -1.1 0 0.8 2.4 3.4 2.8 3 0.1 -0.1 0 -1 -0.4 -1.9z m-6.2 -7.6 c3.7 0 5.8 -1 5.8 -2.6 0 -0.8 1 -1.4 2.5 -1.4 3.1 0 3.3 -2.3 0.5 -4.7 -1.4 -1.2 -2 -3 -2 -6 0 -3.6 -0.3 -4.3 -1.9 -4.3 -1.4 0 -2.1 0.8 -2.3 2.8 -0.2 1.6 -1.2 3.1 -2.5 3.7 -1.3 0.5 -2.3 1.7 -2.3 2.7 0 0.9 -0.7 2.3 -1.5 3.2 -0.8 0.8 -1.5 2.2 -1.5 3 0 0.9 -0.4 1.6 -1 1.6 -0.5 0 -1 1.4 -1 3.2 l0 3.1 2.3 -2.1 c1.3 -1.2 3.5 -2.2 4.9 -2.2z"/>
  <path d="M40.2 67.6 c0.9 -0.8 1.8 -1.9 2 -2.3 0.5 -1.2 9.6 -5.3 11.8 -5.3 1.2 0 2 -0.8 2.2 -2.2 0.2 -1.3 1.3 -2.7 2.6 -3.3 1.2 -0.5 2.2 -1.7 2.2 -2.6 0 -0.9 1.4 -3.1 3 -4.9 1.9 -2 3 -4.3 3 -6.1 0 -2 0.5 -2.9 1.6 -2.9 3.9 0 -2.2 14.7 -8.8 21.1 -4.4 4.3 -11.6 8.2 -17.7 9.4 -3.2 0.7 -3.4 0.6 -1.9 -0.9z"/>
  <path d="M28.1 51.3 c0.1 -3.3 0.2 -3.5 0.8 -1.3 l0.7 2.5 1.2 -2.2 c0.7 -1.3 1.7 -2.3 2.2 -2.3 0.6 0 0 1.6 -1.2 3.5 -2.9 4.5 -3.8 4.4 -3.7 -0.2z"/>
 </g>
 <g fill="#2d4e68">
  <path d="M28.3 68.3 c-1.5 -0.5 -1.8 -4.3 -0.4 -4.3 0.5 0 1.2 0.7 1.5 1.6 0.6 1.6 0.8 1.6 2.4 0 2.1 -1.8 4.2 -2.2 2.4 -0.4 -1.7 1.7 -1.5 2.6 0.6 3.1 0.9 0.3 0.1 0.5 -1.8 0.5 -1.9 0 -4.1 -0.2 -4.7 -0.5z"/>
  <path d="M38.6 62.3 l0.3 -3.8 -1.9 2.5 c-2.4 3.1 -2.6 0.9 -0.3 -3.1 1.2 -2.1 1.4 -3.2 0.6 -4 -0.7 -0.7 -1.9 0.3 -3.9 3.5 -1.6 2.5 -3.3 4.4 -3.9 4.3 -1.3 -0.4 -1.9 -7.7 -0.7 -7.7 0.5 0 0.7 1.4 0.4 3 -0.2 1.7 -0.2 3 0.1 3 1.1 0 5.7 -8.2 5.7 -10.2 -0.1 -2.3 -0.1 -2.2 -2.5 0.5 -2.9 3.2 -3.1 2.8 -1 -1.3 1.6 -3.1 1.1 -7.9 -0.9 -9.2 -0.6 -0.4 -0.7 -1 -0.3 -1.4 0.4 -0.4 1.7 0.1 2.9 1.2 1.9 1.6 2 1.6 0.9 0.1 -1.8 -2.2 -0.9 -3.1 2.4 -2.3 2.1 0.5 2.5 1.2 2.5 4 0 1.9 -0.6 3.7 -1.2 4 -1 0.5 -1 0.7 0 1.2 0.6 0.3 1.2 2 1.2 3.7 0 4.7 1.1 7.7 2.6 7.7 1 0 1.4 1.3 1.4 4 0 3.5 -0.3 4 -2.3 4 -2.1 0 -2.3 -0.4 -2.1 -3.7z"/>
  <path d="M52 54.5 c0 -3.3 0.2 -3.5 3.5 -3.5 3.3 0 3.5 0.2 3.5 3.5 0 3.3 -0.2 3.5 -3.5 3.5 -3.3 0 -3.5 -0.2 -3.5 -3.5z"/>
  <path d="M26 47.5 c0 -2.8 0.4 -3.5 2 -3.5 2.1 0 2.4 1 1.4 4.8 -1 3.6 -3.4 2.7 -3.4 -1.3z"/>
  <path d="M62 48.6 c0 -0.8 -0.7 -1.6 -1.5 -2 -0.8 -0.3 -1.5 -1.5 -1.5 -2.6 0 -1.3 -0.7 -2 -2 -2 -1.1 0 -2 -0.4 -2 -1 0 -0.5 -0.6 -1 -1.4 -1 -2 0 -11.6 -5.1 -11.6 -6.1 0 -0.5 -0.7 -0.9 -1.6 -0.9 -1.2 0 -1.4 -0.9 -1.2 -4.2 0.3 -3.6 0.7 -4.4 2.6 -4.6 2.8 -0.4 11.2 1.9 11.2 3 0 0.4 0.7 0.8 1.5 0.8 0.8 0 1.5 -0.7 1.5 -1.5 0 -1.1 1.1 -1.5 3.9 -1.5 4.3 0 5.1 1 5.1 6.4 0 2.6 0.6 3.5 2.6 4.5 2.2 1 2.5 1.5 1.9 4.4 -1.5 7.2 -2.8 9.7 -5.2 9.7 -1.3 0 -2.3 -0.6 -2.3 -1.4z m3.7 -4 c-0.3 -0.8 -0.1 -1.7 0.6 -1.9 0.7 -0.2 -0.8 -1.4 -3.3 -2.7 l-4.5 -2.2 2.8 2.9 c1.5 1.6 2.7 3.4 2.7 4.1 0 0.7 0.5 1.2 1.1 1.2 0.6 0 0.9 -0.6 0.6 -1.4z"/>
  <path d="M2 41 c1.9 -1.3 3 -1.3 3 0 0 0.6 -1 1 -2.2 1 -1.9 0 -2 -0.2 -0.8 -1z"/>
  <path d="M19 40.1 c0 -0.5 -0.3 -1.7 -0.7 -2.7 -0.5 -1.3 -0.3 -1.6 1 -1.1 1.1 0.4 1.7 0.1 1.7 -0.8 0 -0.8 0.5 -1.5 1 -1.5 0.6 0 1 1.6 1 3.5 0 2.8 -0.4 3.5 -2 3.5 -1.1 0 -2 -0.4 -2 -0.9z"/>
  <path d="M0 37.3 c0 -5.8 1 -7.3 4.6 -7.3 4.7 0 4.5 2.8 -0.6 6.9 l-4 3.2 0 -2.8z"/>
 </g>
 <g fill="#505665">
  <path d="M27.8 68.4 c-1.6 -0.5 -1.8 -1.9 -1.8 -10.8 0 -11.6 -1 -13.6 -6.8 -13.6 -3.4 0 -4.3 -1.4 -1.6 -2.4 1.1 -0.4 1.4 -1.3 1 -3.1 -0.4 -1.5 -0.2 -2.5 0.4 -2.5 0.6 0 0.8 0.5 0.4 1.2 -0.4 0.7 -0.3 0.8 0.4 0.4 1.5 -0.9 1.6 -4.6 0.2 -4.6 -0.5 0 -1 -0.7 -1 -1.5 0 -1.1 1.6 -0.3 5.3 2.5 3 2.2 5.9 4 6.6 4 0.6 0 1.4 0.6 1.7 1.4 0.3 0.8 1.2 1.7 2 2 3.7 1.4 -2.5 -4.5 -7.3 -7 -2.9 -1.4 -5.3 -3 -5.3 -3.5 0 -1.4 2 -1.1 3.6 0.6 0.9 0.8 2.4 1.5 3.5 1.5 1 0 1.9 0.5 1.9 1 0 0.6 0.9 1 2 1 1.1 0 2 0.7 2 1.5 0 0.8 0.7 1.5 1.5 1.5 1 0 1.5 1.1 1.5 3.5 0 1.9 -0.4 3.5 -1 3.5 -2.1 0 -1 3.9 1.2 4.2 1.6 0.2 2.5 1.3 3.1 3.8 2.1 8.8 3 14.1 2.3 14.7 -0.8 0.9 -13.4 1.4 -15.8 0.7z m10.2 -13.1 c0 -3.1 -2.1 -1.8 -5.5 3.2 -2.6 3.9 -3.4 6.1 -3 7.6 0.6 1.9 1.2 1.4 4.6 -3.7 2.1 -3.3 3.9 -6.4 3.9 -7.1z m0.3 9.7 c1.2 -1.9 1.5 -3.5 1 -4.5 -0.7 -1.2 -1.6 -0.6 -4.1 3 -3.1 4.4 -3.1 4.5 -0.9 4.5 1.5 0 2.9 -1.1 4 -3z m-5.4 -9.4 c2.8 -4 3.3 -7.6 1.2 -7.6 -1.2 0 -5.1 7.6 -5.1 9.9 0 3 0.5 2.7 3.9 -2.3z m-1.4 -6.5 c1.7 -3.4 1 -8.7 -1.3 -9.6 -2.5 -0.9 -3.8 1.2 -1.9 3.3 1.2 1.3 1.5 2.8 1 5.5 -0.7 4.5 0.1 4.7 2.2 0.8z"/>
  <path d="M11.1 59.5 c-5.8 -5.5 -7.8 -9.4 -6.1 -12.4 0.9 -1.9 0.8 -2.1 -1.5 -2.1 -3.5 0 -3.5 -3.7 0 -4.6 3.4 -0.8 6.5 2 6.5 5.8 0 1.7 0.4 2.7 1 2.3 0.6 -0.4 0.9 -0.9 0.6 -1.3 -0.2 -0.4 0 -1.6 0.5 -2.7 0.5 -1.3 0.8 1 0.6 6.3 l-0.2 8.2 2.8 0 c2.2 0 2.7 0.4 2.7 2.5 0 3.5 -1.4 3.1 -6.9 -2z m-1.3 -5.6 c0 -2.2 -0.2 -2.9 -1 -2.1 -0.5 0.5 -0.7 1.9 -0.3 3.1 0.9 2.9 1.2 2.6 1.3 -1z"/>
  <path d="M52 61.5 c0 -2.2 0.4 -2.5 3.8 -2.5 l3.7 0.1 -2.8 2.4 c-3.6 3.2 -4.7 3.1 -4.7 0z"/>
  <path d="M61.7 50.4 c-0.4 -0.4 -0.7 -1.7 -0.7 -3 0 -1.3 -0.8 -2.4 -2 -2.7 -1.1 -0.3 -2 -1.2 -2 -2.1 0 -0.9 -0.8 -1.6 -2 -1.6 -1.5 0 -2 -0.7 -2 -2.5 0 -1.9 0.4 -2.3 1.8 -1.8 3.5 1.3 6.2 3.6 8.3 6.9 2.2 3.6 3.9 4.4 3.9 1.9 0 -0.8 0.4 -1.5 1 -1.5 0.5 0 0.3 1.5 -0.5 3.3 -1.2 3 -4.2 4.6 -5.8 3.1z"/>
  <path d="M2 35.3 c0 -3.1 0.2 -3.3 3.7 -3.3 3.5 0 3.6 0 1.8 2 -1 1.1 -2.1 1.7 -2.6 1.5 -0.4 -0.3 -1.2 0.3 -1.8 1.2 -0.9 1.5 -1 1.3 -1.1 -1.4z"/>
  <path d="M38 30.1 c0 -4.9 0.9 -6.1 4.6 -6.1 2.8 0 3.4 0.4 3.4 2.1 0 1.4 -0.5 1.9 -1.5 1.6 -2.1 -0.9 -3.1 1.4 -1.1 2.5 2.7 1.5 1.8 2.8 -1.9 2.8 -3.2 0 -3.5 -0.2 -3.5 -2.9z"/>
  <path d="M17 12 c0 -1.6 -0.7 -2 -3.2 -2 -3.2 0 -3.2 0 -1.3 -1.9 3.1 -3 9.9 -6.3 10.4 -5 0.2 0.6 -0.2 1.6 -0.8 2.2 -0.6 0.6 -1.1 2.8 -1.1 4.9 0 3.1 -0.4 3.8 -2 3.8 -1.3 0 -2 -0.7 -2 -2z"/>
  <path d="M52 8.5 c0 -0.9 -0.9 -1.5 -2.5 -1.5 -2 0 -2.5 -0.5 -2.5 -2.5 0 -2.8 1.1 -2.6 7.2 1.1 5.2 3.3 5.5 4.4 1.4 4.4 -2.5 0 -3.6 -0.4 -3.6 -1.5z"/>
 </g>
 <g fill="#7a5249">
  <path d="M11.5 57.5 c-0.3 -1.4 -0.7 -3.7 -1 -5.1 -0.3 -1.4 -0.2 -3.1 0.4 -3.7 1 -1.3 1.1 -1.7 1.1 -4.3 0 -1 0.6 -1.4 1.5 -1 0.8 0.3 1.5 0.2 1.5 -0.3 0 -0.5 0.9 -1.1 2 -1.4 1.7 -0.4 2 0 2 2.4 0 2.2 -0.5 2.9 -2 2.9 -2.9 0 -2.5 2.7 0.5 3.4 2.2 0.6 2.5 1.2 2.5 5.1 l0 4.5 -4 0 c-3.4 0 -4 -0.3 -4.5 -2.5z"/>
  <path d="M8 45.9 c0 -1.7 0.4 -2.8 1 -2.4 0.6 0.3 1 1.7 1 3.1 0 1.3 -0.4 2.4 -1 2.4 -0.5 0 -1 -1.4 -1 -3.1z"/>
  <path d="M31.8 39.2 c2.3 -0.7 1.2 -1.9 -4.3 -4.7 -4.3 -2.1 -5.7 -3.4 -6.4 -5.9 -0.9 -2.9 -0.9 -2.9 -1 -0.5 -0.1 1.4 0.4 3 1.1 3.7 0.9 0.9 0.8 1.2 -0.4 1.2 -1.9 0 -2.5 -3.7 -2.7 -14.7 0 -5.8 0.3 -7.3 1.4 -7.3 0.8 0 1.5 0.6 1.5 1.3 0 0.7 0.9 2 2 3 1.2 1 2 2.9 2 4.9 l0 3.2 1.7 -2.4 c0.9 -1.4 2.3 -2.9 3 -3.3 0.7 -0.4 1.3 -1.4 1.3 -2.1 0 -2.7 2.6 -3.8 5.6 -2.4 1.6 0.7 3.1 1.5 3.4 1.9 1.6 1.8 4.1 1.6 6.5 -0.7 1.4 -1.3 2.8 -2.4 3.1 -2.4 0.2 0 0.4 1.6 0.4 3.5 0 3.6 -0.2 3.8 -7 4.8 -2.4 0.4 -2.4 0.4 0.3 0.6 2.4 0.1 2.7 0.5 2.7 3.7 0 3.1 -0.3 3.5 -2 2.9 -2.1 -0.7 -2.3 -0.1 -2 4.7 0.1 1.4 -0.5 3 -1.3 3.5 -0.7 0.4 -1.6 1.6 -2 2.5 -0.4 1.3 -1.6 1.7 -4.4 1.6 -2.1 -0.1 -3.2 -0.3 -2.5 -0.6z"/>
  <path d="M24.4 36.5 c-3.6 -3.4 -2.3 -4.4 1.6 -1.2 1.6 1.4 2.6 2.8 2.1 3.2 -0.5 0.3 -2.2 -0.6 -3.7 -2z"/>
 </g>
 <g fill="#3b6283">
  <path d="M38 65.5 c1.4 -2.3 1.9 -4.2 1.5 -5.6 -0.7 -1.9 -1 -1.7 -3.7 2.5 -1.7 2.6 -3.3 4.4 -3.6 4.2 -0.2 -0.3 1 -2.7 2.7 -5.4 1.7 -2.7 3.1 -5.4 3.1 -6 0 -0.7 0.7 -1.2 1.5 -1.2 1 0 1.5 1 1.5 3 0 1.7 0.5 3 1 3 0.6 0 1 1.6 1 3.5 0 1.9 -0.4 3.5 -1 3.5 -0.5 0 -1 -0.6 -1 -1.2 -0.1 -0.7 -0.9 -0.3 -1.9 1 -2.9 3.4 -3.5 2.6 -1.1 -1.3z"/>
  <path d="M52 59 c0 -3.8 -0.4 -5 -1.5 -5 -1.1 0 -1.5 -1.2 -1.5 -4.5 0 -4.5 0 -4.5 3.5 -4.5 3.3 0 3.5 0.2 3.5 3.5 0 2.4 0.5 3.5 1.5 3.5 1.1 0 1.5 1.1 1.5 3.9 0 3.2 -0.5 4.3 -2.9 6 -1.6 1.2 -3.2 2.1 -3.5 2.1 -0.3 0 -0.6 -2.2 -0.6 -5z"/>
  <path d="M35.6 51.9 c0.8 -1.3 -0.9 -4 -2.2 -3.5 -0.8 0.3 -1.1 0 -0.7 -1 0.3 -0.8 1.8 -1.4 3.4 -1.4 2.6 0 2.9 0.3 2.9 3.4 0 2.8 -0.4 3.4 -1.9 3.3 -1.1 0 -1.8 -0.4 -1.5 -0.8z"/>
  <path d="M63.1 47.3 c0 -3.5 0.1 -3.6 1 -1.4 1.1 2.8 2.4 2 3.4 -2 0.7 -3 0.1 -3.6 -8 -7.7 -3.3 -1.7 -6.9 -3.9 -8 -4.9 -3 -2.7 -8.7 -4.6 -9.6 -3.1 -0.8 1.2 1.2 2.5 11.9 8 3.4 1.8 6.2 3.5 6.2 3.8 0 0.3 -2.2 0.3 -5 0.2 -4.1 -0.3 -5 -0.7 -5 -2.3 0 -1.5 -0.7 -1.9 -3.5 -1.9 -1.9 0 -3.5 -0.4 -3.5 -1 0 -0.5 -0.7 -1 -1.5 -1 -1.2 0 -1.5 -1.3 -1.5 -5.6 l0 -5.6 4.3 0.7 c2.3 0.4 7.9 0.6 12.5 0.6 6.8 -0.2 8.2 0.1 8.2 1.4 0 0.8 0.9 1.5 2 1.5 2.6 0 3.4 3.5 2.7 10.9 -0.8 6.9 -3.2 13.1 -5.2 13.1 -1.1 0 -1.5 -1.1 -1.4 -3.7z m-1.8 -15.9 c0.7 -0.8 -0.3 -3.4 -1.3 -3.4 -0.4 0 -1 0.9 -1.3 2 -0.5 1.9 1.2 2.8 2.6 1.4z"/>
  <path d="M32.2 42.2 c-0.9 -2.7 -0.5 -3.7 2.6 -5.6 0.8 -0.5 1.2 0.1 1.2 2 0 2.2 -0.2 2.5 -1.5 1.4 -1.1 -0.9 -1.5 -0.9 -1.5 -0.1 0 0.6 0.7 1.4 1.5 1.7 1.9 0.8 2 3.4 0.1 3.4 -0.8 0 -1.8 -1.2 -2.4 -2.8z"/>
  <path d="M0.1 34.8 l-0.1 -5.8 4.6 0 c4.1 0 4.5 0.2 4.2 2.2 -0.2 1.2 -1.4 2.8 -2.7 3.4 -1.3 0.7 -2.8 1.8 -3.2 2.6 -0.7 1 -0.9 1 -1 -0.2 0 -0.8 -0.5 -0.4 -0.9 1 -0.6 1.9 -0.8 1.1 -0.9 -3.2z"/>
  <path d="M13.8 19.7 c-2 -1.6 -2.8 -3.2 -2.8 -5.5 0 -3.1 0.1 -3.2 4.6 -3.2 3.7 0 4.7 0.4 5.1 2 0.3 1.1 0.8 2 1.2 2 0.4 0 0.7 1.6 0.8 3.5 0.1 3.3 -0.1 3.5 -3 3.5 -1.8 -0.1 -4.4 -1.1 -5.9 -2.3z"/>
 </g>
 <g fill="#9a5d4e">
  <path d="M11 55.9 c0 -3.3 1.9 -5.9 4.4 -5.9 0.9 0 1.6 -0.7 1.6 -1.5 0 -0.8 -0.9 -1.5 -2 -1.5 -1.1 0 -2 -0.7 -2 -1.5 0 -0.8 0.7 -1.5 1.6 -1.5 0.8 0 1.3 -0.4 1 -0.8 -0.3 -0.4 0.8 -1.3 2.5 -1.9 2.8 -1.1 2.9 -1 2.9 1.8 0 1.9 0.5 2.9 1.5 2.9 1.1 0 1.5 1.2 1.5 4.5 0 3.6 -0.3 4.5 -1.8 4.5 -1 0 -2.4 0.9 -3.2 2 -0.9 1.3 -2.6 2 -4.7 2 -3 0 -3.3 -0.3 -3.3 -3.1z m6 -0.3 c0 -1.5 -1.8 -3.1 -2.6 -2.3 -0.7 0.7 0.7 3.7 1.7 3.7 0.5 0 0.9 -0.6 0.9 -1.4z"/>
  <path d="M33 38.4 c0 -0.4 0.8 -1.3 1.7 -2 1 -0.7 1.4 -1.6 0.9 -2.1 -0.5 -0.4 -1.1 -0.2 -1.3 0.5 -0.6 1.7 -2.3 1.5 -2.3 -0.3 0 -1.4 1.7 -2 4.7 -1.6 0.6 0.1 1.4 -0.3 1.7 -0.8 0.7 -1.1 -2.5 -2.5 -3.3 -1.3 -1.9 2.8 -7.4 1.5 -6.4 -1.5 0.7 -1.9 -1.4 -2.4 -3.1 -0.7 -2.2 2.1 -5 1 -4.3 -1.6 0.3 -1.3 0 -2 -0.9 -2 -0.8 0 -1.4 -0.9 -1.4 -1.9 0 -1.1 -0.3 -2.7 -0.7 -3.7 -0.4 -1.2 -0.3 -1.5 0.5 -1 0.8 0.5 1.2 0 1.2 -1.3 0 -1.2 -0.4 -2.1 -1 -2.1 -0.5 0 -1 -0.7 -1 -1.5 0 -0.8 0.7 -1.5 1.5 -1.5 0.8 0 1.5 0.5 1.5 1 0 0.6 0.9 1.9 2 3 1.1 1.1 2 3.1 2 4.5 0 3 1.6 3.3 2.5 0.6 0.3 -1.1 1.5 -2.3 2.6 -2.6 1 -0.4 1.9 -1.5 1.9 -2.5 0 -3 1.7 -3.3 5.9 -0.9 2.3 1.2 4.8 1.9 6 1.6 1.7 -0.4 2.1 -0.1 2.1 2 0 2.5 -0.2 2.6 -5 2 -2.9 -0.4 -5 -0.2 -5 0.3 0 0.6 2 1 4.5 1 4.2 0 4.5 0.2 4.5 2.6 0 1.4 -0.4 2.3 -0.9 1.9 -1.3 -0.8 -2.7 2.1 -3.6 7.2 -0.5 3.1 -1.2 4.3 -2.8 4.7 -2.9 0.8 -4.7 0.7 -4.7 0z m5.3 -14.5 c-1.3 -1.2 -6.3 -2.2 -6.3 -1.2 0 1.8 2.2 3 4.6 2.5 1.4 -0.2 2.2 -0.8 1.7 -1.3z"/>
 </g>
 <g fill="#686c79">
  <path d="M14.4 62.1 c-5.4 -4 -7.9 -6.8 -10.8 -12.7 -3.5 -7 -3.4 -8 0.9 -7.9 5.1 0 7.4 4.7 4 8.1 -1.9 1.9 -1.9 3.5 0 6 1.3 1.8 1.4 1.6 1.5 -2.3 0 -2.4 0.4 -4.3 0.9 -4.3 0.5 0 1.2 -1.2 1.4 -2.7 0.3 -2 0.4 -1.6 0.6 1.4 0 2.5 -0.4 4.4 -1.1 4.7 -1 0.5 -1 0.7 0 1.2 0.6 0.3 1.2 2 1.3 3.7 0 1.8 0.3 2.6 0.6 2 0.2 -0.7 2 -1.3 3.9 -1.3 3.2 0 3.4 0.2 3.4 3.5 0 4.3 -1.4 4.5 -6.6 0.6z"/>
  <path d="M53 61.1 c0 -2.9 0.2 -3.1 3.5 -3.1 3.3 0 3.5 -0.2 3.5 -3.5 0 -2.4 0.5 -3.5 1.5 -3.5 0.8 0 1.5 -0.7 1.5 -1.5 0 -0.8 -0.7 -1.5 -1.5 -1.5 -0.9 0 -1.5 -0.9 -1.5 -2.5 0 -1.8 -0.5 -2.5 -2 -2.5 -1.5 0 -2 -0.7 -2 -2.5 0 -1.4 0.4 -2.5 0.9 -2.5 1.4 0 7.1 6.2 7.1 7.7 0 0.7 0.7 1.6 1.6 2.1 1.4 0.8 1.3 1.3 -0.9 4.8 -2.3 3.6 -5.6 7 -9.9 10.3 -1.6 1.2 -1.8 1 -1.8 -1.8z"/>
  <path d="M25 53.1 c0 -8.3 -0.3 -10.1 -1.5 -10.1 -0.8 0 -1.5 0.5 -1.5 1 0 0.6 -1.7 1 -3.7 0.9 -3.1 0 -3.4 -0.2 -1.8 -0.9 l2 -0.9 -2 -0.1 c-1.7 -0.1 -1.7 -0.3 0.5 -1.1 1.4 -0.6 2.9 -1.7 3.3 -2.5 0.5 -0.9 1.8 -1.2 3.3 -1 2.3 0.4 2.4 0.3 1.2 -1.2 -2.4 -3.1 -3.6 -4.2 -4.7 -4.2 -0.6 0 -1.1 -0.8 -1.1 -1.8 0 -2.7 -6.8 -1.7 -10.2 1.6 -2.2 2 -2.8 2.2 -2.8 1 0 -0.9 -0.8 -1.9 -1.7 -2.1 -1.7 -0.4 -1.7 -0.5 0 -0.6 0.9 0 1.7 -0.8 1.7 -1.6 0 -2 2.6 -3.1 9.1 -3.9 l5.6 -0.7 -0.5 2.9 c-0.3 2.6 0.2 3.4 4.2 6.4 4.1 3.2 4.4 3.7 3.1 5.4 -1.1 1.6 -1.1 2.1 0.1 3.5 1.1 1.2 1.5 4.1 1.5 10 l0 8.3 2.7 -4.2 c1.5 -2.3 3.1 -4.2 3.5 -4.2 1.9 0 -6 9.5 -8.1 9.8 -2.1 0.3 -2.2 0.1 -2.2 -9.7z"/>
  <path d="M39.7 61.3 c-0.2 -1 -0.8 -2.6 -1.2 -3.5 -0.6 -1.5 -0.2 -1.8 1.9 -1.8 2.3 0 2.6 0.4 2.6 3.5 0 3.7 -2.3 5 -3.3 1.8z"/>
  <path d="M42 44.6 c0 -3.2 0.2 -3.4 4.6 -4 8.1 -1.1 8.4 -1 8.4 2.8 0 3.2 -0.2 3.4 -4.6 4 -8.1 1.1 -8.4 1 -8.4 -2.8z"/>
  <path d="M67.4 42.1 c0 -3.3 0.4 -4.8 1.3 -4.8 1 0 1.2 1 0.7 3.6 -1.1 5.8 -1.9 6.3 -2 1.2z"/>
  <path d="M33 43.5 c0 -1.9 0.4 -2.3 1.8 -1.8 1.5 0.6 1.5 0.4 -0.2 -1.5 -1.9 -2.2 -1.9 -2.3 0 -3.6 1.7 -1.3 1.9 -1.3 2.2 0.5 0.2 1 1 1.9 1.8 1.9 0.9 0 1.4 1.1 1.4 3.5 0 3.3 -0.2 3.5 -3.5 3.5 -3.1 0 -3.5 -0.3 -3.5 -2.5z"/>
  <path d="M67 30.3 c0 -1.3 -0.4 -2.3 -1 -2.3 -0.5 0 -1 -1.1 -1 -2.5 0 -1.4 -0.4 -2.5 -1 -2.5 -0.5 0 -1 -1.1 -1 -2.5 0 -1.6 -0.6 -2.5 -1.5 -2.5 -1 0 -1.5 -1.1 -1.5 -3.5 0 -3.3 -0.2 -3.5 -3.5 -3.5 -1.9 0 -3.5 -0.4 -3.5 -1 0 -0.5 -0.7 -1 -1.5 -1 -0.8 0 -1.5 -0.8 -1.6 -1.7 0 -1.7 -0.1 -1.7 -0.7 -0.1 -0.6 1.5 -1.3 1.2 -4.6 -2.2 -4.7 -4.8 -3 -5.3 5.1 -1.6 10.2 4.8 18.1 14.9 19.6 25.1 0.4 2.2 0.4 3.4 0 2.6 -0.5 -1.1 -0.7 -1.1 -1.4 0 -0.6 1 -0.9 0.8 -0.9 -0.8z"/>
  <path d="M21.3 28.4 c-0.3 -0.8 -0.1 -2 0.6 -2.7 0.8 -0.8 1.1 -0.6 1.1 1 0 1.2 0.6 2.4 1.3 2.6 0.7 0.3 0.5 0.6 -0.6 0.6 -1 0.1 -2 -0.6 -2.4 -1.5z"/>
  <path d="M1 26.4 c0 -3.2 5.5 -12.6 9.6 -16.4 6.8 -6.3 16.9 -10.6 11.9 -5 -2 2.2 -2.3 8.9 -0.6 13.3 0.6 1.5 0.7 2.7 0.3 2.7 -0.4 0 0 0.5 0.8 1 1.1 0.7 0.5 1 -2.2 1 -3.6 0 -3.8 -0.2 -3.8 -3.1 0 -2.7 0.2 -3 1.5 -1.9 1.3 1 1.5 0.9 1.5 -0.9 0 -1.2 -0.6 -2.1 -1.5 -2.1 -0.8 0 -1.5 -0.9 -1.5 -2 0 -1.6 -0.7 -2 -3.5 -2 -3.3 0 -3.5 0.2 -3.5 3.5 0 2.4 -0.5 3.5 -1.5 3.5 -0.9 0 -1.5 0.9 -1.5 2.5 0 1.4 -0.4 2.5 -1 2.5 -0.5 0 -1 1.1 -1 2.5 0 1.8 -0.5 2.5 -2 2.5 -1.1 0 -2 -0.7 -2 -1.6z"/>
 </g>
 <g fill="#8e6964">
  <path d="M15.8 63.2 c-3.9 -2.4 -3.6 -4.2 0.7 -4.2 3.2 0 3.5 0.2 3.5 3 0 3.4 -0.4 3.5 -4.2 1.2z"/>
  <path d="M10 51 c0 -1.1 0.5 -2 1 -2 0.6 0 1 -1.2 1 -2.7 0 -2.2 0.2 -2.5 1 -1.3 0.5 0.8 1 3 1 4.8 0 2.5 -0.4 3.2 -2 3.2 -1.3 0 -2 -0.7 -2 -2z"/>
  <path d="M6 47.7 c0 -2 0.5 -3.7 1 -3.7 0.6 0 1 0.6 1 1.4 0 0.8 0.4 1.6 0.9 1.8 0.4 0.2 0 1.2 -1 2.2 -1.9 1.9 -1.9 1.9 -1.9 -1.7z"/>
  <path d="M34 38.9 c0 -0.6 1.2 -2.5 2.6 -4.4 2.4 -3.1 2.4 -3.4 0.7 -4.4 -1.2 -0.7 -1.3 -1 -0.4 -1.1 0.8 0 1.1 -0.7 0.8 -2 -0.3 -1 0 -2.1 0.7 -2.3 0.6 -0.2 -0.6 -1.1 -2.6 -2 -5.6 -2.4 -4.9 -4.1 1.2 -3.4 3 0.4 5 0.2 5 -0.4 0 -0.5 1.1 -1.4 2.5 -2.1 3.3 -1.5 4.8 -5.9 2.9 -8.7 -1.4 -2 -1.4 -2.1 1.5 -2.1 3 0 3.1 0.1 3.1 4.5 0 3.3 -0.4 4.5 -1.5 4.5 -0.9 0 -1.5 0.9 -1.5 2.5 0 1.4 -0.4 2.5 -1 2.5 -0.5 0 -1 1.6 -1 3.6 0 3.1 -0.3 3.6 -2 3.1 -3.1 -0.8 -4.5 2.5 -1.7 4 1.8 1 1.9 1.2 0.5 1.3 -1 0 -1.8 0.7 -1.8 1.5 0 2.9 -3.1 6.5 -5.6 6.5 -1.3 0 -2.4 -0.5 -2.4 -1.1z"/>
  <path d="M19 30.6 c-1.9 -5.1 -1.3 -7 2.5 -8.2 2.5 -0.8 3.6 -0.8 3.9 0 0.3 0.7 0.9 0.4 1.6 -0.6 1.8 -2.8 3 -2.1 3 1.7 0 2.3 -0.5 3.5 -1.2 3.4 -3.4 -0.4 -4.7 0.2 -4.1 1.7 0.4 1.2 0.1 1.5 -1.3 1.2 -1.3 -0.2 -1.9 -1.2 -1.8 -2.7 0.1 -2.2 0 -2.3 -1.2 -0.6 -1 1.3 -1 2.3 -0.3 3.7 0.6 1.1 0.8 2.2 0.5 2.5 -0.3 0.3 -1 -0.6 -1.6 -2.1z"/>
  <path d="M32.3 31.3 c-2.1 -0.7 -1.5 -3.3 0.7 -3.3 1.1 0 2 0.6 2 1.4 0 1.8 -1.1 2.5 -2.7 1.9z"/>
  <path d="M17 18.8 c0 -2 0.1 -2 1.9 -0.4 1.8 1.6 1.8 1.6 1.4 -0.9 -0.3 -1.4 -1.2 -2.5 -1.9 -2.5 -0.8 0 -1.4 -1 -1.4 -2.5 0 -4.6 2.6 -2.7 4.2 3 l1.5 5.5 -2.8 0 c-2.3 0 -2.9 -0.4 -2.9 -2.2z"/>
 </g>
 <g fill="#567792">
  <path d="M31 68.5 c0 -0.6 1.6 -3.4 3.5 -6.2 3.3 -5 4.3 -8.2 2.9 -9.6 -0.4 -0.4 -2.3 1.7 -4.3 4.5 -3.8 5.4 -6.1 7.1 -6.1 4.4 0 -0.9 -0.4 -1.6 -1 -1.6 -0.6 0 -1 -2.9 -1 -6.6 0 -7 -1.2 -9.4 -4.9 -9.4 -2.6 0 -2.6 -0.6 -0.3 -3.3 1.2 -1.6 2.6 -2.1 4.6 -1.9 2.6 0.3 2.8 0.2 1.7 -1.2 -1.2 -1.4 -1.1 -1.6 0.3 -1 1.8 0.7 2 1.3 0.6 3.4 -0.6 1 -0.5 2 0.4 3 0.9 1 1.3 4.3 1.3 9.3 0 4.2 0.2 7.9 0.4 8.2 0.3 0.2 2 -1.8 3.8 -4.6 3.1 -4.8 3.6 -8.7 0.8 -7.6 -0.8 0.3 -1.1 -0.6 -1 -3.2 0.1 -2 0.2 -3.7 0.2 -3.9 0.1 -0.1 1.1 0.3 2.4 0.9 2.1 1.2 2.1 1.1 0.5 -0.8 -2.2 -2.5 -2.3 -3.9 -0.2 -4.7 2.5 -1 2.9 0 2.9 6.5 -0.1 3.9 0.3 5.9 1.1 5.9 1.3 0 2.4 3.2 2.4 7.3 0 2.2 -0.4 2.8 -1.7 2.5 -1.3 -0.3 -3 1.3 -5.5 5.2 -2.1 3 -3.8 5 -3.8 4.5z"/>
  <path d="M52 60.6 c0 -2.1 -0.6 -3.6 -1.5 -4 -0.9 -0.3 -1.5 -1.8 -1.5 -3.6 0 -2.7 -0.3 -3 -3.4 -3 -3.1 0 -3.4 -0.3 -4 -3.7 -0.3 -2.1 -0.6 -6.1 -0.6 -9 0 -6.4 1.5 -7 8.3 -3.1 2.6 1.5 5.2 2.8 5.8 2.8 0.6 0 0.7 0.5 0.4 1 -0.3 0.6 -1.9 1 -3.6 1 -1.6 0 -2.9 0.5 -2.9 1 0 0.6 1.3 1 3 1 2.4 0 3.1 0.5 3.6 2.8 0.4 1.5 1.1 3 1.6 3.3 0.5 0.3 1.3 3 1.7 6 1 5.8 0 8.4 -2.8 7.4 -0.8 -0.3 -1.2 -0.3 -0.8 0.1 0.8 0.8 -1.1 3.4 -2.4 3.4 -0.5 0 -0.9 -1.5 -0.9 -3.4z"/>
  <path d="M5.1 52.3 c-1.2 -2.3 -0.3 -9.3 1.3 -9.6 1.6 -0.3 2.2 4.7 1 8.2 -1.1 3.3 -1.2 3.4 -2.3 1.4z"/>
  <path d="M68.1 42.3 c-0.1 -1.7 -1.9 -3.2 -7.7 -6.4 -4.4 -2.5 -7.9 -5 -8.2 -6.1 -0.3 -1.3 -1.1 -1.8 -2.2 -1.5 -0.9 0.2 -2.8 -0.1 -4.1 -0.9 -1.7 -0.9 -2.8 -0.9 -3.6 -0.2 -0.9 0.7 -1.3 0.7 -1.3 0 0 -2.6 3.5 -3.5 13.6 -3.8 5.7 -0.1 10.4 0.2 10.4 0.7 0 0.5 0.9 0.9 1.9 0.9 1.6 0 2.1 1 2.6 5.3 0.4 3 0.2 7.3 -0.3 9.8 -0.5 2.4 -1 3.4 -1.1 2.2z m0.6 -10.5 c-0.2 -1.3 -0.4 -0.3 -0.4 2.2 0 2.5 0.2 3.5 0.4 2.3 0.2 -1.3 0.2 -3.3 0 -4.5z m-6.7 -1.9 c0 -2.4 -0.4 -3 -1.7 -2.7 -1.1 0.2 -1.9 1.4 -2.1 3.1 -0.3 2.2 0.1 2.7 1.7 2.7 1.7 0 2.1 -0.6 2.1 -3.1z"/>
  <path d="M0.2 33.5 l0.3 -5 4.8 -0.3 c5.1 -0.3 6 0.8 3.1 4.4 -1.1 1.3 -1.7 1.5 -2 0.7 -1 -2.3 -3.1 -1.4 -4.8 2 l-1.6 3.2 0.2 -5z"/>
  <path d="M11.8 19.3 c-2.5 -1.7 -3.8 -3.3 -3.8 -4.9 0 -1.4 1.4 -3.4 3.8 -5.3 l3.7 -3.1 0.7 2.2 c0.6 2.1 0.6 2.1 0.7 -0.4 0.1 -2 0.9 -3.2 3.1 -4.3 3.8 -2 4.7 -1.9 2.7 0.3 -0.9 1 -2 4 -2.3 6.6 -0.7 4.6 -0.7 4.7 -3.8 4 -1.8 -0.3 -2.7 -0.2 -2.1 0.3 5.1 4.4 6.7 5.6 6.1 4.6 -0.3 -0.6 -0.2 -1.4 0.4 -1.8 0.6 -0.4 1 0.5 1 1.9 0 2.3 -0.4 2.6 -3.2 2.5 -1.8 0 -5 -1.2 -7 -2.6z"/>
 </g>
 <g fill="#b16652">
  <path d="M10 54.1 c0 -2.2 0.5 -4.3 1 -4.6 0.6 -0.3 1 -1.7 1 -3.1 0 -2 0.5 -2.4 3.3 -2.5 2.7 0 2.9 -0.2 1.2 -0.9 -2 -0.9 -2 -0.9 0 -0.9 1.2 -0.1 2.6 -0.6 3.3 -1.3 0.9 -0.9 1.2 -0.6 1.2 1.5 0 1.8 0.5 2.7 1.6 2.7 1.4 0 1.6 0.8 1.1 4.5 -0.5 5.3 -0.4 5 -3.9 5.9 -2.1 0.5 -2.8 0.3 -2.8 -0.9 0 -0.8 -0.7 -1.5 -1.6 -1.5 -1.2 0 -1.5 0.6 -1 2.5 0.6 2.2 0.3 2.5 -1.9 2.5 -2.2 0 -2.5 -0.4 -2.5 -3.9z"/>
  <path d="M38.6 32.5 c0.4 -0.8 -0.1 -1.7 -1 -2.1 -0.9 -0.3 -1.3 -1 -1 -1.5 0.3 -0.5 0 -0.9 -0.5 -0.9 -0.6 0 -1.1 0.7 -1.1 1.5 0 2.1 -3.8 1.9 -4.2 -0.2 -0.2 -1.1 -2.5 -2.5 -6.3 -3.8 -4.9 -1.6 -6.1 -2.5 -6.3 -4.4 -0.3 -1.9 0 -2.2 1.3 -1.8 0.9 0.4 1.3 0.3 1 -0.2 -0.3 -0.5 -0.1 -1.2 0.5 -1.6 0.9 -0.6 1.5 1.6 1.1 3.9 -0.1 0.5 0.5 0.6 1.4 0.3 0.9 -0.4 1.5 -0.1 1.5 0.8 0 2.2 1.7 1.8 2.3 -0.6 0.3 -1.1 1.5 -2.3 2.6 -2.6 1.2 -0.3 2.1 -1.4 2.1 -2.4 0 -2.8 1.6 -3.1 6.2 -1 3 1.3 4.9 1.6 6.5 1 2 -0.7 2.3 -0.5 2.3 1.6 0 1.4 -0.4 2.5 -1 2.5 -1.3 0 -5 3.2 -5 4.3 0 0.5 0.7 0.4 1.5 -0.3 0.8 -0.7 1.5 -0.8 1.5 -0.2 0 0.5 -0.7 1.5 -1.5 2.2 -0.9 0.8 -1.2 2.2 -0.8 4.1 0.5 2.5 0.2 2.9 -1.5 2.9 -1.5 0 -2 -0.5 -1.6 -1.5z m-0.6 -7.5 c1.2 -0.7 0.7 -1.2 -2.4 -2.5 -4.8 -2 -6.1 -1.6 -4.1 1.3 1.7 2.3 4 2.8 6.5 1.2z"/>
 </g>
 <g fill="#c0755b">
  <path d="M17.6 64.2 c-0.4 -0.7 -0.4 -1.8 0 -2.4 0.6 -1 0.5 -1 -0.8 0 -1.2 1 -2 0.8 -4.2 -0.9 -2.4 -1.9 -3.6 -5.9 -1.8 -5.9 0.4 0 0.9 -1.1 1 -2.6 0.1 -1.7 -0.2 -2.3 -1.1 -1.8 -0.9 0.5 -0.9 0.4 0.1 -0.7 0.6 -0.7 1.2 -2.3 1.2 -3.6 0 -1.8 0.6 -2.3 2.6 -2.3 1.5 0 3.3 -0.8 4.1 -1.7 1.3 -1.6 1.4 -1.5 1 1.5 -0.3 2.5 0 3.2 1.4 3.2 3.4 0 4.1 7.6 0.9 10.5 -1.1 1 -2.4 3.2 -2.8 4.9 -0.5 2 -1.1 2.6 -1.6 1.8z m-0.8 -9.4 c-0.4 -2.7 -2.8 -3.6 -2.8 -1 0 2 0.8 3.2 2.2 3.2 0.5 0 0.8 -1 0.6 -2.2z m4.2 -4.8 c0 -1.1 -0.4 -2 -0.8 -2 -0.4 0 -0.8 0.9 -0.8 2 0 1.1 0.4 2 0.8 2 0.4 0 0.8 -0.9 0.8 -2z"/>
  <path d="M38.6 32.6 c0.6 -1.6 -1.2 -5.6 -2.5 -5.6 -0.5 0 -1.1 0.9 -1.4 2 -0.6 2.3 -2.7 2.7 -2.7 0.6 0 -0.7 -0.7 -1.9 -1.5 -2.6 -0.8 -0.7 -1.5 -2.2 -1.5 -3.3 l0 -2 2.3 2 c3.1 2.9 7.7 3.6 7.7 1.2 0 -1.1 -1 -2 -3 -2.4 -2.5 -0.6 -3 -1.1 -3 -3.6 0 -3.7 1.9 -4.5 5.9 -2.5 3.9 2.1 4.7 2 7.1 -0.4 2 -2 2 -2 2 1.5 0 2.2 -0.6 3.8 -1.5 4.1 -0.8 0.4 -1.5 1.3 -1.5 2.1 0 0.8 -1 2.4 -2.2 3.5 -1.6 1.3 -1.9 2.1 -1 2.4 0.6 0.3 1.2 1.4 1.2 2.5 0 1.4 -0.7 1.9 -2.5 1.9 -1.7 0 -2.3 -0.4 -1.9 -1.4z m4.4 -8.1 c1.4 -1.6 1 -1.8 -1.4 -0.9 -0.9 0.3 -1.6 1 -1.6 1.5 0 1.4 1.6 1.1 3 -0.6z"/>
  <path d="M18.6 29.8 c-0.9 -3.6 -0.7 -4.8 0.9 -4.8 1.2 0 1.4 0.4 0.6 1.7 -0.6 1.1 -0.6 2.4 0 3.5 0.6 1.1 0.6 1.8 0.1 1.8 -0.6 0 -1.2 -1 -1.6 -2.2z"/>
  <path d="M21.6 29.3 c-1 -1 -0.7 -2 1 -3.7 1.4 -1.5 1.3 -1.6 -1.5 -1.6 -2.6 0 -3.1 -0.4 -3.1 -2.4 0 -1.3 0.8 -2.7 1.7 -3 1 -0.4 1.4 -0.4 1.1 0 -0.7 0.6 1.5 3.4 2.7 3.4 0.3 0 1.5 0.9 2.7 2 l2.2 2 -2.2 0 c-1.3 0 -2.2 0.6 -2.2 1.4 0 1.7 -1.4 2.8 -2.4 1.9z"/>
 </g>
 <g fill="#6289a7">
  <path d="M37.9 66.1 c2.2 -3.1 2.7 -6.6 1.1 -7.6 -0.5 -0.3 -1 -0.3 -1 0.2 -0.1 0.4 -1.2 2.2 -2.7 3.8 l-2.6 3 1.8 -3 c1 -1.6 2.4 -3.8 3.1 -4.9 0.7 -1 1 -2.5 0.7 -3.2 -0.3 -0.9 0.2 -1.4 1.5 -1.4 2.4 0 3.2 1.8 3.2 7.1 0 2.1 0.5 3.9 1 3.9 0.6 0 1 0.9 1 2 0 2.6 -4 2.8 -4 0.3 -0.1 -1.5 -0.3 -1.5 -1.9 0.5 -2.8 3.2 -3.6 2.7 -1.2 -0.7z"/>
  <path d="M17.5 64 c-0.3 -0.5 -0.3 -1.6 0.1 -2.2 0.6 -1 0.5 -1 -0.7 -0.1 -1.2 1 -1.5 0.8 -1.7 -1.3 -0.2 -2.2 0.2 -2.4 3.8 -2.4 3.9 0 4 0.1 4 3.5 0 3 -0.3 3.5 -2.4 3.5 -1.4 0 -2.8 -0.4 -3.1 -1z"/>
  <path d="M25 59 c0 -4.3 0.3 -5 1.9 -5 1.6 0 1.9 0.6 1.8 3.3 -0.1 2.1 0.3 3.1 1.1 2.9 1 -0.2 1 0.2 0 1.8 -0.7 1.1 -2.1 2 -3 2 -1.5 0 -1.8 -0.9 -1.8 -5z"/>
  <path d="M51.5 60 c-0.8 -1.6 -1.5 -4.4 -1.5 -6.2 0 -3.3 -0.1 -3.3 -3.9 -3 l-4 0.4 -0.7 -6.1 c-0.6 -5.9 -0.8 -6.1 -3.5 -6.1 -3.5 0 -3.5 -0.2 -0.4 -4.8 1.4 -2 2.5 -4.3 2.5 -5 0 -0.7 0.9 -2.3 2.1 -3.5 1.8 -2 3 -2.2 13.9 -2.4 10.9 -0.1 12 0 12.5 1.8 0.4 1 0.3 2.4 -0.1 3 -0.4 0.7 -0.8 3 -1 5.2 -0.2 2.2 -0.6 4.2 -0.8 4.4 -0.2 0.3 -1.9 -0.3 -3.7 -1.2 -2.8 -1.5 -3 -1.9 -1.6 -2.7 2.3 -1.2 2 -7.8 -0.3 -7.8 -2 0 -4.1 3.4 -3.5 5.7 0.5 2.2 0.4 2.3 -1.5 1.3 -1.2 -0.6 -2.5 -2.2 -3 -3.6 -0.8 -1.9 -1.5 -2.4 -3 -1.9 -1 0.3 -2.9 0.1 -4.1 -0.5 -1.7 -1 -2.4 -0.9 -3.8 0.5 -1.2 1.3 -1.3 1.9 -0.3 2.2 2.5 0.9 7.2 5.5 7.2 7 0 1.2 0.8 1.4 3.5 1 2.8 -0.5 4.1 -0.1 6.3 1.8 l2.7 2.4 -2.7 0.1 c-3.3 0 -3.4 0.4 -0.8 3.2 1.3 1.4 2 3.6 2 5.9 0 2.1 0.6 3.9 1.3 4.2 0.8 0.3 0.4 1.3 -1.2 3.1 -1.9 2 -2.7 2.3 -3.8 1.5 -1 -0.9 -1.3 -0.7 -1.3 1 0 3 -1.7 2.6 -3.5 -0.9z m3.5 -9.3 c0 -0.5 -0.4 -0.6 -0.9 -0.2 -0.5 0.3 -1.2 -0.7 -1.4 -2.2 -0.3 -2.4 -0.4 -2.3 -0.6 0.8 0 2 0.2 3.9 0.6 4.2 0.7 0.7 2.3 -1.1 2.3 -2.6z m-9.6 -10.1 c-0.4 -3.1 -0.9 -5.4 -1.2 -5.2 -0.2 0.3 -0.1 3 0.3 6.1 0.3 3.1 0.9 5.5 1.1 5.2 0.3 -0.2 0.2 -3 -0.2 -6.1z"/>
  <path d="M34.4 53.7 c1.9 -3.1 1.3 -7.5 -0.8 -5.8 -0.9 0.8 -1.1 0.2 -0.8 -2.4 0.2 -1.9 0.7 -3.5 1.1 -3.5 1.8 0.1 2.9 1.9 3.3 5.5 0.4 3.2 0 4.4 -2 6.5 l-2.5 2.5 1.7 -2.8z"/>
  <path d="M4.5 51 c-3.1 -5.9 -3.6 -8 -2 -8 0.9 0 1.5 1 1.6 2.8 0.1 2 0.3 2.2 0.6 0.7 1 -4.6 1.4 -5.1 2.4 -3.3 0.6 1 0.6 3.2 0 5.7 -0.5 2.2 -0.6 4.2 -0.3 4.6 0.3 0.3 0.2 0.5 -0.1 0.5 -0.4 0 -1.3 -1.3 -2.2 -3z"/>
  <path d="M18.3 47.3 c-2.8 -0.5 -2.9 -1.6 -0.2 -4.7 1.4 -1.6 2.9 -2.3 4.7 -2.1 1.5 0.2 3.2 -0.4 4 -1.4 1.1 -1.4 1.1 -1.3 0.2 0.8 -0.9 1.8 -0.9 2.5 0 3.1 0.7 0.4 0.9 1.6 0.5 2.9 -0.6 2.1 -3.3 2.5 -9.2 1.4z"/>
  <path d="M69.3 34.5 c0 -2.7 0.2 -3.8 0.4 -2.2 0.2 1.5 0.2 3.7 0 5 -0.2 1.2 -0.4 0 -0.4 -2.8z"/>
  <path d="M0.4 31.5 c0.2 -2.7 0.9 -6.2 1.5 -7.7 0.9 -2.4 1.6 -2.8 5.1 -2.8 3.9 0 4 0.1 4 3.4 0 1.8 -0.7 3.9 -1.5 4.6 -0.8 0.7 -1.5 2 -1.5 2.9 0 1.3 -0.2 1.3 -0.9 0.2 -1.2 -1.8 -5 -0.5 -6.2 2.2 -0.7 1.7 -0.8 1 -0.5 -2.8z"/>
  <path d="M16 22 c0 -0.5 -0.6 -1 -1.3 -1 -0.7 0 -2.9 -1.1 -5 -2.5 -3.2 -2.2 -3.6 -2.9 -2.7 -4.5 1.3 -2.3 10.2 -9.1 14.5 -10.9 2.9 -1.3 3 -1.3 1.1 0.8 -1 1.1 -2.1 4 -2.3 6.5 l-0.5 4.4 -3.9 -1.3 c-2.1 -0.8 -4.1 -1 -4.4 -0.6 -0.7 1.3 7.4 6.3 8.8 5.5 0.7 -0.4 0.9 -0.3 0.4 0.1 -0.4 0.5 0 1.7 1 2.7 1.5 1.7 1.4 1.8 -2 1.8 -2.1 0 -3.7 -0.4 -3.7 -1z"/>
  <path d="M51 7 l0 -3 3.5 2.2 c4.4 2.9 4.4 3.8 0 3.8 -3.2 0 -3.5 -0.2 -3.5 -3z"/>
 </g>
 <g fill="#83868c">
  <path d="M21.3 66 c-4.6 -2 -5.4 -3.6 -2.5 -4.3 0.9 -0.3 0.5 -0.4 -1 -0.4 -1.5 0.1 -2.4 0.5 -2.1 1 0.8 1.4 -3.2 -1 -4.6 -2.7 -0.7 -0.8 -1.1 -2.3 -0.8 -3.3 0.4 -1.4 0.5 -1.4 0.6 0.4 0 1.2 0.6 2.5 1.1 2.8 0.7 0.4 0.9 -0.2 0.4 -1.9 -0.7 -2.7 1 -3.7 1.9 -1.2 0.4 1.1 1.6 1.3 4.1 0.9 3.3 -0.5 3.6 -0.4 3.6 2 0 2 1.6 3.7 3.5 3.7 0.3 0 0.2 -2.9 -0.2 -6.5 -0.5 -5.4 -0.3 -6.5 0.9 -6.5 1.9 0 2.8 3.3 2.2 7.9 -0.3 2.8 -0.1 3.2 1.4 2.6 1.4 -0.5 1.5 -0.4 0.5 0.6 -0.7 0.7 -1.3 2.6 -1.3 4.1 0 3.4 -1.7 3.6 -7.7 0.8z"/>
  <path d="M41.3 66.5 c-0.3 -0.9 -0.4 -1.7 -0.2 -1.8 2.3 -1.4 10.3 -4.7 11.4 -4.7 0.7 0 1.6 -0.8 1.8 -1.7 0.3 -1 0.5 -0.3 0.6 1.5 0.1 3 -0.3 3.5 -5.1 5.7 -6.2 2.9 -7.6 3.1 -8.5 1z"/>
  <path d="M57.9 59.7 c1.2 -1.5 1.2 -1.7 -0.3 -1.1 -2.5 1 -2 -2.3 0.9 -5.2 1.4 -1.4 2.5 -2.9 2.5 -3.4 0 -0.6 0.5 -1 1 -1 0.6 0 1 -0.9 1 -2 0 -1.9 0.1 -1.9 1.9 -0.2 1.8 1.7 1.8 1.8 -0.2 5.4 -1.1 2.1 -3.4 5 -5.1 6.5 -1.7 1.6 -2.4 2 -1.7 1z"/>
  <path d="M3.5 48.8 c-2.9 -6.3 -3.3 -8.7 -0.9 -6.3 0.9 0.8 1.3 2.2 1 3 -0.3 0.8 -0.1 1.7 0.4 2 0.6 0.4 1 -0.5 1 -1.9 0 -1.4 0.5 -2.8 1.1 -3.1 0.7 -0.5 0.9 1.3 0.7 5.4 -0.2 3.4 -0.4 6.1 -0.6 6.1 -0.2 0 -1.4 -2.4 -2.7 -5.2z"/>
  <path d="M42 48.5 c0 -3.7 2.5 -5 3.3 -1.7 0.4 1.6 0.5 1.6 0.6 0 0 -1 0.8 -1.8 1.6 -1.8 1 0 1.5 1.1 1.5 3.5 0 3.3 -0.2 3.5 -3.5 3.5 -3.3 0 -3.5 -0.2 -3.5 -3.5z"/>
  <path d="M16.5 49 c0.4 -0.6 0.1 -1.8 -0.6 -2.6 -1 -1.2 -1.4 -1.2 -2 -0.2 -0.7 1 -0.9 0.9 -0.9 -0.4 0 -1.2 0.8 -1.8 2.4 -1.8 1.3 0 2.7 -0.6 2.9 -1.2 0.4 -1 0.6 -1 0.6 -0.1 0.1 0.7 0.8 1 1.6 0.7 1.2 -0.5 1.5 0.2 1.4 3.2 0 2.2 -0.3 3.3 -0.6 2.7 -0.2 -0.7 -0.9 -1.3 -1.4 -1.3 -0.6 0 -0.7 0.5 -0.4 1 0.3 0.6 -0.3 1 -1.5 1 -1.2 0 -1.8 -0.4 -1.5 -1z"/>
  <path d="M52 38.4 c0 -1.4 0.3 -2.4 0.8 -2.2 7.3 3.5 8 4.8 2.7 4.8 -3.1 0 -3.5 -0.3 -3.5 -2.6z"/>
  <path d="M0.5 32.2 c0.3 -7 4.6 -17.3 8.7 -20.7 1.3 -1.1 1.7 -1.3 1.1 -0.5 -1 1.1 -1 1.7 0.3 3.2 1.5 1.6 1.5 1.8 0 2.4 -0.9 0.3 -1.6 1.2 -1.6 2 0 0.8 -0.4 1.4 -1 1.4 -0.5 0 -1 0.9 -1 2 0 1.3 -1 2.5 -2.7 3.2 -2.2 0.9 -2.4 1.2 -1 1.5 2.2 0.6 2.2 1.8 -0.2 4 -1.1 1 -2.1 3.2 -2.4 4.8 -0.3 1.7 -0.3 0.2 -0.2 -3.3z"/>
  <path d="M6.3 31.5 c-1.9 -2.1 -1.6 -2.5 1.7 -2.5 2 0 3 -0.5 3 -1.5 0 -0.9 0.9 -1.5 2.5 -1.5 1.4 0 2.5 -0.4 2.5 -1 0 -0.5 1.5 -1 3.4 -1 2.8 0 3.4 0.4 3.9 2.5 0.3 1.7 0 2.4 -0.7 2.2 -0.6 -0.2 -1 -1.3 -0.8 -2.3 0.2 -1.9 0.2 -1.9 -1.2 0 -1.1 1.4 -1.2 2.4 -0.5 3.7 0.6 1.3 0.6 1.9 -0.1 1.9 -0.5 0 -1 -0.6 -1 -1.4 0 -2 -8 -1.3 -9.5 0.8 -1.5 1.9 -1.6 1.9 -3.2 0.1z"/>
  <path d="M64.6 26.8 c-0.3 -1.3 -0.6 -3.3 -0.6 -4.5 0 -1.4 -0.6 -2.3 -1.5 -2.3 -0.8 0 -1.5 -0.6 -1.5 -1.4 0 -0.8 -0.7 -1.6 -1.5 -2 -0.8 -0.3 -1.5 -1.2 -1.5 -2 0 -0.7 -0.9 -1.6 -2 -1.9 -1.2 -0.3 -2 -1.4 -2 -2.6 0 -4.2 -1.9 -2 -2.6 2.9 -0.6 4.7 -0.8 5 -3.5 5 l-2.9 0 2 -3.2 c1.1 -1.8 2 -3.8 2 -4.4 0 -0.7 -1.8 -3 -4 -5.3 -4.4 -4.5 -4.2 -4.8 1.6 -2.7 5.4 1.9 12.9 7.1 15.8 10.9 4.1 5.5 8 14.7 5.7 13.3 -0.6 -0.4 -1.1 0 -1.1 0.8 0 2.4 -1.7 1.9 -2.4 -0.6z"/>
  <path d="M17 20 c0 -2 0.1 -2 2.5 -0.4 1.4 0.9 2.5 1.8 2.5 2 0 0.2 -1.1 0.4 -2.5 0.4 -1.8 0 -2.5 -0.5 -2.5 -2z"/>
  <path d="M15 7 c0 -0.5 0.7 -1 1.5 -1 0.8 0 1.5 -0.4 1.5 -1 0 -0.5 0.9 -1 1.9 -1 1.5 0 1.8 0.5 1.3 2.2 -0.5 2.1 -0.6 2.1 -1.3 0.2 -0.7 -1.6 -0.8 -1.7 -0.8 -0.1 -0.1 1.8 -4.1 2.5 -4.1 0.7z"/>
 </g>
 <g fill="#ac847b">
  <path d="M18 64 c-1.2 -0.8 -1.2 -1 0.3 -1.6 0.9 -0.3 1.4 -1 1.1 -1.6 -0.3 -0.5 -1.3 -0.3 -2.4 0.7 -1.5 1.4 -1.9 1.4 -2.9 0.1 -0.7 -0.9 -1.5 -3.5 -1.7 -5.8 l-0.5 -4.3 1.7 3 c0.9 1.7 1.8 3.2 2 3.4 0.8 0.9 5.3 -5.6 5.4 -7.6 0 -3.2 -1.5 -2.9 -1.8 0.4 -0.4 4.8 -2.1 4.6 -2.4 -0.3 -0.2 -3.8 -1.8 -6 -2.9 -4.2 -0.6 1 -0.9 0.8 -0.9 -0.6 0 -1.2 0.5 -1.6 1.5 -1.2 0.9 0.3 2.5 -0.6 3.9 -2.1 l2.5 -2.7 1 2.6 c0.5 1.4 1.5 2.9 2 3.3 2.5 1.5 0.3 15.1 -2.8 17.9 -1.1 1 -2.1 1.2 -3.1 0.6z"/>
  <path d="M34.7 37.4 c2.5 -1.1 5.5 -7.3 4.8 -10.3 -0.9 -4.1 0.4 -8.1 2.5 -8.1 1 0 3 -1.4 4.3 -3 1.4 -1.7 2.8 -3 3.1 -3 0.3 0 0.6 1.6 0.6 3.5 0 1.9 -0.4 3.5 -1 3.5 -0.5 0 -1 1.4 -1 3 0 2.5 -0.4 3 -2.4 3 -3.1 0 -5.4 2.6 -3.8 4.2 1.5 1.5 1.6 4.8 0.2 4.8 -0.5 0 -1 0.7 -1 1.5 0 1.1 -1 1.5 -3.7 1.4 -2.1 0 -3.3 -0.3 -2.6 -0.5z m8.4 -13 c1.2 -1.4 1.1 -1.6 -0.5 -1.3 -1.1 0.2 -2.1 1 -2.4 1.7 -0.5 1.7 1.3 1.5 2.9 -0.4z"/>
  <path d="M18 24.1 l0 -5.2 3.2 1.8 c5.4 3 7.3 5.3 4.3 5.3 -0.8 0 -1.5 0.7 -1.5 1.6 0 0.9 -0.6 1.4 -1.2 1.1 -0.7 -0.2 -1.2 -1.3 -1 -2.3 0.2 -1.7 0 -1.6 -1.8 0.5 l-2 2.3 0 -5.1z"/>
 </g>
 <g fill="#7e96af">
  <path d="M41 66.3 c-0.9 -1 -1.4 -2.6 -1.2 -3.5 0.3 -1.5 1.4 -1.8 5.8 -1.8 4.6 0 5.4 0.3 5.4 1.9 0 1.3 -1.3 2.4 -4 3.5 -4.9 1.9 -4.3 2 -6 -0.1z"/>
  <path d="M20 65 c-2.9 -1.5 -3.2 -2 -1.8 -2.5 1 -0.4 1.6 -1.1 1.3 -1.5 -0.8 -1.3 0.6 -4 2 -4 0.6 0 1.7 1 2.3 2.3 1 2.1 1.1 2 1.1 -1 0.1 -2.2 0.6 -3.3 1.6 -3.3 0.8 0 1.5 0.6 1.6 1.3 0 0.6 0.2 2.9 0.5 5 0.4 3.2 0.2 3.7 -1.6 3.7 -1.1 0 -2 0.5 -2 1 0 1.4 -1 1.2 -5 -1z"/>
  <path d="M14 61.2 c0 -1.3 3.9 -4.6 4.6 -3.9 0.3 0.3 0.3 1 -0.1 1.6 -0.9 1.5 -4.5 3.3 -4.5 2.3z"/>
  <path d="M54.1 59.8 c-0.1 -2.7 -0.3 -2.8 -5.5 -2.8 -4.4 0 -5.5 -0.4 -5.9 -1.7 -0.4 -1.4 -0.5 -1.2 -0.6 0.5 -0.2 3.2 -3.6 3 -3.7 -0.4 -0.3 -3.7 -1.1 -4 -3.4 -1.3 l-2.1 2.4 1.7 -2.8 c1.6 -2.6 1.6 -3.1 0.1 -6.3 -2.1 -4.2 -2.3 -7.4 -0.5 -5.6 2.1 2.1 2.9 1.3 1.2 -1.3 -1.6 -2.4 -1.6 -2.7 0.2 -3.9 1 -0.8 2.3 -1.2 2.8 -0.8 0.5 0.3 0.7 -0.2 0.3 -1.1 -0.3 -0.9 -0.2 -1.9 0.3 -2.2 0.6 -0.4 1 -1.7 1 -3.1 0 -1.3 0.4 -2.4 1 -2.4 0.5 0 0.7 0.6 0.4 1.4 -0.3 0.9 0.9 2.2 3.5 3.7 2.3 1.2 4.1 2.6 4.1 3.1 0 0.4 0.9 0.8 2 0.8 2.1 0 4 2.7 4 5.9 0 1.8 0.6 2.1 3.9 2.1 3.2 0 4 0.4 4.4 2.3 0.2 1.2 0.8 3 1.2 3.9 0.5 1.3 -0.3 2.8 -2.8 5.3 -1.9 1.9 -4 3.5 -4.5 3.5 -0.6 0 -1 -2.1 -0.9 -4.7 0.2 -3.4 -0.2 -4.8 -1.1 -4.8 -0.8 0 -2 -1.7 -2.7 -3.8 -0.7 -2.1 -1.7 -4.2 -2.1 -4.5 -0.4 -0.4 -0.4 0.1 -0.1 1.1 0.4 1 1 3.7 1.3 6 0.4 2.3 1.3 5.5 2.1 7 0.8 1.6 1.2 3.8 1 5 -0.4 1.8 -0.5 1.7 -0.6 -0.5z m-12.8 -13.9 c-0.9 -3.4 -3.3 -5.2 -3.3 -2.5 0 0.9 0.4 1.6 0.9 1.6 0.5 0 1.3 1.5 1.7 3.3 0.4 1.7 0.9 2.7 1.1 2 0.2 -0.6 0 -2.6 -0.4 -4.4z m4.4 -4 c-0.6 -7.2 -1.7 -10.7 -1.7 -5.2 0 4.2 1.2 12.3 1.8 12.3 0.2 0 0.2 -3.2 -0.1 -7.1z"/>
  <path d="M4.8 50.8 c-0.3 -0.7 0.1 -2.9 0.8 -4.8 l1.2 -3.5 0.1 3.5 c0.1 4 -1.3 7.1 -2.1 4.8z"/>
  <path d="M25 51 c0 -0.5 -0.7 -1 -1.5 -1 -0.9 0 -1.8 -0.6 -2.1 -1.4 -0.3 -0.8 -1.2 -1.7 -2 -2 -1.2 -0.4 -1.2 -0.2 -0.4 1.4 0.9 1.6 0.8 2 -0.7 2 -1.3 0 -1.9 -0.9 -2 -3 -0.2 -2.7 0.6 -3.5 3 -3.1 0.4 0.1 0.7 -0.4 0.5 -1.1 -0.3 -1.5 0.6 -2 2.6 -1.2 0.8 0.3 1.2 1.3 1 2.2 -0.5 1.5 -0.4 1.5 0.6 0 2.3 -3.6 5.6 0.9 4.4 5.9 -0.6 2.2 -3.4 3.3 -3.4 1.3z"/>
  <path d="M0.7 32 c0.2 -2.5 0.9 -6 1.4 -7.7 1 -3.1 1.4 -3.3 5.5 -3.3 2.4 0 4.4 -0.4 4.4 -1 0 -0.5 -0.7 -1 -1.5 -1 -0.8 0 -1.5 -0.4 -1.5 -1 0 -0.5 -0.7 -1 -1.5 -1 -1.9 0 -1.9 -1.4 -0.1 -2.9 1.1 -0.9 2.7 -0.3 7.5 2.6 3.3 2.1 6.1 4.2 6.1 4.7 0 0.4 -1.8 0.6 -4 0.4 -3.8 -0.3 -4 -0.2 -4 2.5 0 1.7 -1.1 4 -2.7 5.7 -2.3 2.4 -2.8 2.6 -4 1.4 -1.9 -1.8 -5 -0.2 -5.6 2.8 -0.2 1.3 -0.2 0.3 0 -2.2z m6.4 -6.6 c1.2 -1.5 1.1 -1.6 -1.1 -0.9 -3.5 1 -4.9 2.5 -2.3 2.5 1.1 0 2.7 -0.7 3.4 -1.6z"/>
  <path d="M64.4 31.3 c-1.4 -5.8 -5.1 -7.1 -7.4 -2.8 -1.6 3 -2.6 3.2 -3.3 0.5 -0.4 -1.5 -1.4 -2 -3.6 -2 -3.1 0 -3.8 -1.1 -2.5 -4.4 0.9 -2.3 7.4 -2.2 7.4 0.2 0 1.3 0.2 1.4 0.9 0.4 0.5 -0.9 2.5 -1.2 6.1 -1 4.5 0.3 5.4 0.7 6.1 2.6 0.6 1.5 0.5 2.1 -0.1 1.7 -0.6 -0.4 -1 0.8 -1 2.9 0 4.4 -1.7 5.6 -2.6 1.9z"/>
  <path d="M16 12.2 c-1.9 -0.8 -3.7 -1.6 -3.9 -1.8 -0.7 -0.7 3.2 -3.8 7.9 -6.2 3.9 -2 4.2 -2.1 2.7 -0.4 -1 1.1 -2.1 3.7 -2.5 5.9 l-0.7 4 -3.5 -1.5z"/>
  <path d="M49 10.3 c0 -0.9 -1.4 -3.2 -3.2 -5 -1.7 -1.8 -3 -3.5 -2.7 -3.7 1.3 -1.4 15.9 7.3 15.9 9.5 0 0.5 -2.2 0.9 -5 0.9 -4 0 -5 -0.3 -5 -1.7z"/>
 </g>
 <g fill="#ce8d71">
  <path d="M13 59.5 c-0.6 -1.5 -1 -3.8 -1 -5.3 l0.1 -2.7 1.6 3 c2.2 4.1 2 4.1 4.2 1.4 2.3 -2.7 2.6 -2.3 1.1 1.5 -0.5 1.4 -1.8 3 -3 3.6 -1.7 0.9 -2.2 0.7 -3 -1.5z"/>
  <path d="M19.9 60.8 c-0.1 -0.7 0 -1.7 0.1 -2.3 0.1 -0.5 0.3 -1.9 0.4 -3 0.1 -1.2 0.6 -2.6 1 -3.3 0.4 -0.7 0.4 -2.1 0.1 -3.2 -0.4 -1.1 -0.2 -2 0.4 -2 1.8 0 2.4 6.9 1.1 11.1 -1.3 3.8 -2.9 5.2 -3.1 2.7z"/>
  <path d="M16.2 52.5 c-0.7 -0.8 -0.8 -1.5 -0.3 -1.5 0.5 0 0.8 -1.6 0.5 -3.5 -0.2 -1.9 -0.2 -3.5 0.1 -3.5 1.1 0 3.1 5.7 2.7 7.8 -0.4 2.5 -1.2 2.7 -3 0.7z"/>
  <path d="M39.5 32 c0.4 -0.6 0.4 -2.8 0 -4.9 -0.5 -3.1 -1.2 -4.1 -3.2 -4.6 -1.9 -0.4 -2.3 -0.9 -1.4 -1.8 0.6 -0.6 1.1 -1.9 1.1 -2.9 0 -2.2 0.9 -2.2 3.4 -0.3 2.8 2.1 3.9 1.9 7 -1.1 l2.6 -2.7 0 3.1 c0 4.1 -1.6 8.1 -3.5 8.8 -2.2 0.9 -3 -0.3 -1.5 -2.1 1.6 -2 -0.1 -1.9 -2.6 0.1 -1.3 1.1 -1.5 1.7 -0.7 2 0.8 0.4 1.1 1.5 0.7 3 -0.5 1.8 -0.2 2.4 1 2.4 0.9 0 1.6 0.5 1.6 1 0 0.6 -1.2 1 -2.6 1 -1.5 0 -2.3 -0.4 -1.9 -1z"/>
  <path d="M20 22.8 c0.1 -2.8 0.2 -3 1.1 -1.5 0.6 0.9 1.4 1.5 2 1.2 1.1 -0.7 1.2 0.6 0.1 2 -1.6 2.3 -3.2 1.4 -3.2 -1.7z"/>
 </g>
 <g fill="#8ea3b4">
  <path d="M23.5 66.5 c-1.6 -0.7 -2.6 -1.4 -2.2 -1.4 0.4 -0.1 0.1 -1.3 -0.6 -2.8 -1.2 -2.2 -1.2 -3.3 0 -7.1 0.7 -2.5 1.1 -5.4 0.7 -6.4 -0.3 -1.1 0 -1.8 0.7 -1.8 0.7 0 2.1 -0.7 3.1 -1.7 1 -0.9 2.1 -1.4 2.4 -1.1 1 1 0.9 23.1 -0.1 23.4 -0.5 0.2 -2.3 -0.3 -4 -1.1z"/>
  <path d="M42.9 66.6 c1.3 -1.6 0.4 -2.5 -1.9 -2.1 -1.2 0.2 -1.5 -0.5 -1.2 -3.3 0.4 -3 0.2 -3.4 -1.3 -2.8 -1.5 0.5 -1.6 0.4 -0.6 -0.8 1.3 -1.6 0.4 -6.9 -1 -6 -0.5 0.3 -0.6 -0.2 -0.3 -1 0.3 -0.8 -0.4 -2.4 -1.5 -3.5 -2.1 -2.1 -3 -6.8 -1.1 -5.6 0.5 0.3 0.6 1.3 0.3 2.2 -0.6 1.5 -0.5 1.6 0.9 0.3 1.4 -1.3 1.4 -1.7 0 -3.8 -1.3 -2.1 -1.3 -2.4 0.4 -3.7 1.7 -1.2 2 -1.1 2.6 0.8 0.6 1.8 0.7 1.7 0.5 -0.8 0 -1.6 0.3 -3.8 0.9 -4.8 0.9 -1.6 1.4 -1.5 7 1.4 11.9 6.2 14.5 8.1 16.9 12 2.4 3.7 2.5 4.1 1 7 -0.9 1.6 -2.8 3.4 -4.3 4 -1.5 0.6 -3 1.6 -3.4 2.2 -0.4 0.7 -0.6 -0.5 -0.4 -2.6 0.2 -2 1.1 -4.6 2.1 -5.7 1 -1.1 1.6 -2.2 1.3 -2.5 -0.3 -0.3 -1.1 0.1 -1.7 0.9 -1.1 1.3 -1.5 1.2 -3.1 -0.4 -1.1 -1.1 -2.6 -3.6 -3.5 -5.6 -1.7 -4.2 -3.1 -4.1 -1.5 0 0.5 1.5 1 3.9 1 5.4 0 1.5 0.9 4.4 2 6.5 3.4 6.3 2.8 8.1 -3.9 11.1 -6.7 3 -7.8 3.2 -6.2 1.2z m19.1 -12 c0 -1.5 -1.4 -3.5 -2.1 -3 -1.5 0.9 -1 3.4 0.6 3.4 0.8 0 1.5 -0.2 1.5 -0.4z m-15.4 -8.8 c-0.9 -9.8 -1.5 -12.8 -2.7 -12.8 -1.3 0 -1.1 4.6 0.6 11.3 1.6 6.9 1.5 6.3 1.5 8.2 0 0.8 0.3 1.5 0.6 1.5 0.4 0 0.3 -3.7 0 -8.2z"/>
  <path d="M4.7 48.2 c0.3 -1.2 0.9 -2.5 1.4 -2.8 1.4 -0.8 1.1 1 -0.6 3.2 -1.3 1.8 -1.4 1.8 -0.8 -0.4z"/>
  <path d="M0.5 33.1 c0.3 -1.8 0.5 -4.3 0.5 -5.5 0.1 -1.9 0.2 -1.9 1.3 -0.4 1.2 1.5 1.5 1.5 4.5 -0.4 1.8 -1.1 3.2 -2.2 3.2 -2.4 0 -0.3 -1.8 -0.3 -4 0 -2.2 0.2 -4 0 -4 -0.5 0 -1.1 3.7 -4.9 4.9 -4.9 0.4 0 0.6 -1.1 0.3 -2.5 -0.3 -1.8 0 -2.5 1.1 -2.5 1.8 0 11.2 5.6 13.9 8.3 1.7 1.6 1.6 1.7 -2.2 1.7 -2.2 0 -4 -0.4 -4 -1 0 -0.5 -0.4 -1 -1 -1 -0.5 0 -1 1.3 -1 2.9 0 2.1 -0.9 3.6 -3.5 5.5 -3.3 2.6 -3.5 2.6 -3.5 0.7 0 -2.2 -1.4 -2.8 -2.5 -1.1 -0.4 0.6 -1 0.8 -1.5 0.5 -0.5 -0.3 -1.4 0.9 -2 2.7 l-1 3.3 0.5 -3.4z"/>
  <path d="M65.4 33.3 c0.4 -0.7 0.2 -1.3 -0.3 -1.3 -0.6 0 -1.1 -0.9 -1.1 -2 0 -1.1 0.6 -2 1.3 -2 0.8 0 0.7 -0.3 -0.3 -0.9 -0.8 -0.6 -1.7 -0.8 -2.1 -0.5 -0.4 0.2 -1 0 -1.4 -0.6 -0.9 -1.5 -1.9 -1.2 -4.3 1.1 -2 1.8 -2.4 1.8 -3.7 0.5 -0.8 -0.8 -1.5 -2 -1.5 -2.7 0 -0.8 -0.5 -0.5 -1.3 0.5 -1 1.4 -2.1 1.7 -4.5 1.1 -3.8 -0.8 -3.9 -1.5 -0.9 -4.3 2.8 -2.6 9.4 -3.1 10.3 -0.7 0.4 0.9 1.4 1.4 2.3 1.1 5.9 -1.6 8.9 -1.6 9.5 0 0.3 0.9 0.1 2.3 -0.5 3 -0.6 0.8 -0.8 1.4 -0.3 1.4 0.4 0 0.3 0.5 -0.4 1.2 -1.4 1.4 -1.6 3.2 -0.3 2.4 1.1 -0.7 0.8 2.1 -0.4 3.1 -0.4 0.4 -0.5 0.2 -0.1 -0.4z"/>
  <path d="M15 27.5 c0 -2.1 0.5 -2.5 3.1 -2.5 2.9 0 3 0.2 1.8 1.8 -3.1 3.9 -4.9 4.2 -4.9 0.7z"/>
  <path d="M57 13.5 c0 -1.1 -1.1 -1.5 -4 -1.5 -3.1 0 -4 -0.4 -4 -1.7 0 -0.9 -1.7 -3.4 -3.7 -5.5 -3.8 -3.9 -3.5 -5 0.5 -2.2 1.2 0.8 2.2 1.2 2.2 0.8 0 -0.4 0.8 0 1.8 0.9 1 1 2.1 1.4 2.5 1.1 0.3 -0.3 0.3 0.3 0 1.5 -0.5 2.1 1.1 2.9 2.2 1.1 0.7 -1.2 5 1.9 7.2 5 1.3 1.9 1.2 2 -1.6 2 -2.1 0 -3.1 -0.5 -3.1 -1.5z"/>
  <path d="M13.7 10.5 c-1.5 -1.1 -1.3 -1.5 2.4 -3.9 2.2 -1.5 4.3 -2.5 4.7 -2.2 0.3 0.3 0 0.6 -0.6 0.6 -0.7 0 -1.2 0.9 -1.2 2 0 1.1 -0.5 2 -1.1 2 -0.5 0 -0.8 0.4 -0.5 0.9 1 1.5 -1.9 2 -3.7 0.6z"/>
 </g>
 <g fill="#b69c9a">
  <path d="M22.5 60 c-0.4 -0.6 -1.3 -0.9 -2 -0.6 -1 0.3 -1 -0.5 0.1 -4.2 0.8 -2.5 1.2 -5.5 0.9 -6.6 -0.3 -1.2 -0.2 -1.5 0.1 -0.8 0.5 1 0.9 0.9 2 -0.5 1.2 -1.6 1.3 -1.4 1.2 2 -0.1 2.4 -0.6 3.7 -1.5 3.7 -0.7 0 -1.3 0.7 -1.3 1.6 0 1.4 0.3 1.4 1.5 0.4 1.3 -1.1 1.4 -0.8 0.9 2.1 -0.8 4.1 -1 4.4 -1.9 2.9z"/>
  <path d="M39.5 36 c0.4 -0.7 0.3 -1.5 -0.3 -1.9 -0.7 -0.4 -0.5 -1.3 0.5 -2.6 1.5 -2 1.5 -2 0.9 0.2 -0.4 1.2 -0.2 2.4 0.4 2.8 0.5 0.3 1 -0.1 1 -0.9 0 -0.8 0.4 -1.7 0.9 -2 0.5 -0.4 0.6 0.5 0.2 2.1 -0.4 1.6 -1.6 3 -2.5 3.1 -1.2 0.3 -1.6 0 -1.1 -0.8z"/>
  <path d="M16.5 26.5 c1 -5.3 1.9 -6.2 4.9 -4.6 1.7 1 2.2 1.9 1.8 3.4 -0.3 1.3 -0.7 1.6 -1 0.8 -0.3 -0.9 -1.3 -0.4 -3.4 1.6 l-3 2.8 0.7 -4z"/>
  <path d="M43.6 25.1 c-0.4 -0.5 -0.2 -1.2 0.4 -1.6 0.6 -0.4 0.8 -1 0.6 -1.3 -0.2 -0.4 0.6 -3 2 -5.7 1.3 -2.8 2.4 -5.6 2.4 -6.2 0 -0.7 0.7 -1.3 1.5 -1.3 1.1 0 1.5 1.1 1.5 4 0 2.6 -0.4 4 -1.3 4 -0.7 0 -1.7 1.9 -2.3 4.2 -0.9 4.2 -3.4 6.2 -4.8 3.9z"/>
 </g>
 <g fill="#aba8b9">
  <path d="M24.8 67.3 c-1.6 -0.4 -2.6 -5 -1.9 -8.7 0.1 -0.5 -0.3 -1.2 -0.9 -1.6 -1.6 -1 -0.2 -7.4 2.2 -10.5 2 -2.6 3.8 -3.3 3.8 -1.4 0 0.5 -0.6 0.7 -1.2 0.3 -1 -0.6 -1 -0.4 -0.2 0.7 1.4 1.8 2.5 19.9 1.2 19.9 -0.5 0 -0.6 0.5 -0.3 1 0.6 1 0.2 1.1 -2.7 0.3z m-0.8 -12.8 c1 -1.2 1 -1.5 -0.4 -1.5 -0.9 0 -1.6 0.7 -1.6 1.5 0 0.8 0.2 1.5 0.4 1.5 0.2 0 0.9 -0.7 1.6 -1.5z"/>
  <path d="M41.1 62.1 c-0.8 -0.5 -1.2 -1.8 -0.8 -3 0.6 -2.4 -0.3 -2.7 -2.2 -0.8 -0.8 0.8 -0.7 0.2 0.2 -1.6 1.4 -2.6 1.3 -3.2 -0.3 -6 -2 -3.5 -2.7 -14.7 -0.9 -14.7 0.7 0 0.8 1.2 0.4 3 -0.5 2.3 -0.3 2.9 0.7 2.5 1 -0.4 1.4 -2 1.3 -4.5 -0.1 -3.2 0.1 -3.7 1.2 -2.9 1 0.9 1.3 0.8 1.3 -0.4 0 -0.9 0.4 -1.8 0.8 -2.1 0.5 -0.3 0.6 0.8 0.4 2.5 -0.2 1.6 -0.8 3.2 -1.3 3.5 -0.5 0.3 -0.3 1.1 0.4 1.8 0.7 0.8 1.4 3.5 1.6 6.2 0.1 2.7 0.8 5.2 1.4 5.6 0.7 0.4 0.8 0.8 0.2 0.8 -0.5 0 -0.2 0.7 0.8 1.4 1.7 1.3 1.6 1.4 -0.3 1.9 -1.1 0.3 -2 0.1 -2 -0.5 0 -0.5 -0.6 -0.8 -1.2 -0.6 -0.7 0.3 -1.3 2 -1.4 3.8 -0.2 3.3 -0.1 3.3 1.1 1.1 1 -2 1.3 -2.1 1.8 -0.7 0.4 1 0.3 1.5 -0.3 1.1 -0.9 -0.6 -1.4 0.8 -1.1 2.8 0.1 0.9 -0.1 0.9 -1.8 -0.2z"/>
  <path d="M61.9 53.5 c-0.1 -1.1 0 -2.6 0.1 -3.4 0.1 -0.9 -0.4 -1.2 -1.4 -0.8 -1.3 0.5 -1.4 0.3 -0.4 -1.3 0.7 -1 1.6 -1.6 2.2 -1.3 0.5 0.3 0.6 0.1 0.2 -0.6 -0.6 -0.9 -1.4 -0.8 -3.2 0.4 -2.2 1.4 -2.4 1.4 -2.4 -0.1 0 -1.3 -0.3 -1.4 -1.4 -0.5 -1.2 1 -1.7 0.8 -2.5 -0.8 -0.6 -1.1 -1.1 -2.6 -1.1 -3.4 0 -0.8 -0.7 -2 -1.5 -2.7 -1.3 -1.1 -1.8 -1 -3.1 0.6 -1.5 1.8 -1.5 1.8 -1.1 -0.3 0.3 -1.3 0.1 -2.6 -0.4 -2.9 -0.5 -0.3 -0.9 -1.4 -0.9 -2.6 0 -1.7 0.2 -1.9 1.6 -0.8 0.8 0.8 4.3 2.7 7.7 4.4 4.2 2.1 7.1 4.4 8.9 7.1 3.3 4.8 3.3 5.3 0.8 8.5 -1.8 2.3 -2 2.4 -2.1 0.5z"/>
  <path d="M48.7 53.3 c-0.2 -0.4 -0.3 -2 -0.1 -3.6 0.1 -1.5 -0.1 -2.5 -0.5 -2.3 -0.4 0.3 -0.8 -0.1 -0.8 -0.9 0 -1 0.4 -1.2 1.2 -0.5 0.7 0.5 1.4 0.7 1.8 0.4 0.3 -0.3 0.5 1 0.3 3 -0.2 3.6 -1 5.4 -1.9 3.9z"/>
  <path d="M8.3 30.6 c0.4 -0.9 0.2 -1.6 -0.3 -1.6 -1.9 0 -1 -2.8 1.1 -3.3 2.3 -0.6 2.1 -3.4 -0.2 -2.9 -0.7 0.2 -2.6 0.5 -4 0.7 -2.6 0.3 -2.7 0.2 -1.6 -2.4 0.7 -1.5 1.9 -3.8 2.8 -5.2 l1.7 -2.4 3.3 1.9 c1.9 1.1 4.3 2.4 5.3 3 1.1 0.6 2.9 1.9 3.9 2.8 2 1.7 2 1.8 -0.7 5.3 -2.1 2.7 -3.3 3.4 -4.7 3 -1.2 -0.4 -3.1 0.1 -4.6 1 -2.3 1.6 -2.5 1.6 -2 0.1z"/>
  <path d="M44.5 22.8 c0.9 -4.2 2.3 -6.8 3.5 -6.8 0.6 0 1 -1.7 1 -3.7 0 -2.9 -0.8 -4.5 -3.7 -7.6 -2.6 -2.6 -3.2 -3.6 -1.8 -3.1 1.1 0.4 2.4 1.4 2.8 2.1 0.5 0.7 1.3 1 1.9 0.7 0.6 -0.4 0.8 -0.3 0.5 0.3 -1.1 1.7 3 4.6 5.8 4.1 1.8 -0.4 3.2 0.2 5.1 2.1 l2.6 2.6 -3.3 0.6 c-2.9 0.5 -3 0.7 -0.9 0.9 1.4 0.1 3.2 0.2 4.1 0.1 1.6 -0.2 6.3 7.5 5.4 8.9 -0.3 0.4 -3.4 1 -7.1 1.4 -5.7 0.6 -6.8 0.4 -8 -1.1 -1.3 -1.7 -1.5 -1.7 -2.8 0 -0.7 0.9 -2.3 1.7 -3.5 1.7 -2 0 -2.2 -0.4 -1.6 -3.2z"/>
 </g>
 <g fill="#9db5c1">
  <path d="M26.3 64.8 c-0.4 -0.7 -0.8 -1.6 -0.9 -2 -0.1 -0.5 -0.2 -1 -0.4 -1.3 -0.1 -0.3 -0.2 -1.8 -0.2 -3.5 0 -1.6 0.1 -3.2 0.2 -3.5 0.2 -0.3 0.3 -0.9 0.4 -1.4 0 -0.5 0.4 -1.3 0.9 -1.7 1.4 -1.5 0.7 -3.2 -1.2 -2.7 -1.3 0.3 -1.7 1.1 -1.3 2.6 0.4 1.7 0.2 1.9 -0.8 1.1 -2.4 -2.3 1.4 -7.5 4.2 -5.8 0.7 0.5 0.9 19.4 0.1 19.4 -0.1 0 -0.5 -0.6 -1 -1.2z"/>
  <path d="M44.5 61.7 c0.2 -1.8 0.7 -4.1 1.1 -5.2 0.4 -1.1 0.4 -1.7 -0.1 -1.3 -0.4 0.4 -1.8 -0.6 -3.2 -2.3 -1.4 -1.6 -2.9 -2.7 -3.4 -2.4 -0.5 0.4 -0.6 -0.1 -0.3 -0.9 0.3 -0.9 1.1 -1.3 1.8 -0.9 0.6 0.4 0.4 -0.1 -0.4 -1.1 -0.8 -1.1 -1.6 -1.4 -1.8 -0.7 -0.2 0.6 -0.8 1.1 -1.4 1.1 -0.6 0 -0.6 -0.6 0.2 -1.5 0.7 -0.8 1.6 -1.2 2.1 -0.9 0.5 0.3 0.9 -0.2 0.9 -1.1 0 -0.9 -0.4 -1.4 -0.9 -1 -0.5 0.3 -1.9 -0.8 -3 -2.3 -1.5 -2.2 -1.7 -3.2 -0.9 -4 2.1 -2.1 3 -1.3 2.3 1.8 -0.5 2.2 -0.3 3 0.6 2.8 1.7 -0.4 4 4.2 3.4 6.9 -0.3 1.2 0 2.5 0.7 2.9 0.8 0.5 0.9 -0.5 0.5 -3.9 -0.4 -2.9 -0.3 -4.7 0.3 -4.7 0.6 0 1 1.8 1 4 0 2.5 0.7 4.7 1.8 5.8 2.2 2.3 2.6 5 1.1 6.8 -0.7 0.9 -0.8 1.4 -0.1 1.4 0.6 0 1.2 -0.6 1.5 -1.2 0.2 -0.7 0.7 -1 1.1 -0.7 0.6 0.6 -0.2 1.6 -3.8 4.6 -1.2 1 -1.3 0.7 -1.1 -2z"/>
  <path d="M50.1 64.5 c-0.1 -2.1 1.4 -3.4 2.9 -2.5 1.3 0.8 1.3 1 -0.2 1 -0.9 0 -1.9 0.6 -2.1 1.3 -0.3 0.6 -0.6 0.8 -0.6 0.2z"/>
  <path d="M41.3 59.4 c-0.8 -0.8 -0.9 -1.5 -0.3 -1.9 0.6 -0.3 1 0 1 0.7 0 0.9 0.3 0.9 1 -0.2 0.5 -0.8 1 -1 1 -0.5 0 2.3 -1.5 3.3 -2.7 1.9z"/>
  <path d="M52.4 58.9 c-0.3 -0.6 -0.2 -1.5 0.4 -2.1 0.6 -0.6 1.1 -0.2 1.5 1.1 0.5 2.2 -0.7 2.9 -1.9 1z"/>
  <path d="M38.6 56.5 c0.9 -1.4 1.2 -3 0.8 -3.7 -0.6 -0.9 -0.3 -0.9 0.9 0.1 1.7 1.3 1.6 1.5 -0.4 3.8 -2.9 3 -3.4 2.9 -1.3 -0.2z"/>
  <path d="M48.8 53.3 c-0.2 -0.4 -0.3 -1.9 -0.2 -3.3 0.1 -1.4 -0.3 -3.2 -1 -4 -0.9 -1.3 -0.9 -1.3 0.5 -0.3 0.9 0.7 1.8 1.1 2 0.8 0.3 -0.2 0.5 1.1 0.4 3 0 3.3 -0.9 5.4 -1.7 3.8z"/>
  <path d="M57.7 52.4 c-0.4 -0.4 0.5 -2 1.8 -3.6 2.6 -3.1 3.3 -5.8 1.4 -5.8 -0.6 0 -0.9 0.6 -0.6 1.3 0.3 0.7 -0.4 1.9 -1.4 2.5 -1.6 1 -1.9 0.9 -1.9 -0.4 0 -1.3 -0.3 -1.4 -1.4 -0.5 -1.1 0.9 -1.6 0.9 -2.2 0 -0.4 -0.8 -0.3 -0.9 0.4 -0.5 0.8 0.5 1.2 -0.3 1.2 -2.3 0 -3.1 1.4 -4.2 2.3 -1.8 0.4 0.9 0.6 0.9 0.6 0 0.1 -0.7 -1.1 -1.9 -2.6 -2.7 -1.6 -0.8 -2.3 -1.5 -1.7 -1.6 1.8 0 7.8 4.4 8.9 6.7 0.6 1.1 1.7 2.8 2.4 3.7 1.2 1.4 1.2 1.9 0.1 2.9 -1 0.9 -1.1 0.9 -0.6 0 0.4 -0.8 -0.1 -1.1 -1.6 -1.1 -2.8 0.2 -5 1.7 -4.2 2.9 0.6 1 0 1.2 -0.9 0.3z"/>
  <path d="M49.7 36.9 c-0.3 -1.3 -0.1 -1.9 0.6 -1.6 1.5 0.5 2.2 3.7 0.9 3.7 -0.5 0 -1.2 -0.9 -1.5 -2.1z"/>
  <path d="M39.5 36.9 c-0.4 -0.5 -0.1 -0.8 0.6 -0.7 0.7 0.2 1.5 -0.6 1.7 -1.7 0.7 -3.3 1.9 -3.8 1.4 -0.6 -0.4 3 -2.6 4.8 -3.7 3z"/>
  <path d="M46 36.1 c0 -0.5 -0.3 -1.8 -0.6 -2.8 -0.6 -1.5 -0.4 -1.6 0.6 -0.6 1.6 1.5 2.2 4.3 0.9 4.3 -0.5 0 -0.9 -0.4 -0.9 -0.9z"/>
  <path d="M8.9 30.7 c1.1 -1.4 1.1 -1.8 -0.4 -2.3 -1.6 -0.6 -1.5 -0.9 0.6 -2.5 2.3 -1.7 2.3 -1.9 0.6 -3.6 -1.5 -1.6 -1.9 -1.6 -2.7 -0.3 -0.5 0.8 -1.8 1.6 -2.9 1.6 -1.1 0.1 -1.8 -0.3 -1.5 -0.8 0.3 -0.5 1.2 -0.7 2 -0.4 0.8 0.3 1.4 -0.1 1.4 -1 0 -0.8 -0.4 -1.2 -1 -0.9 -0.5 0.3 -1 0.3 -1 0 0 -1.1 3 -6.5 3.6 -6.5 0.7 0 6.6 3.2 7.4 4 0.3 0.3 1.7 1.1 3.2 1.9 3.8 1.9 4 3.3 1.1 7 -1.8 2.3 -3 3 -4.4 2.6 -1.2 -0.4 -3.1 0.1 -4.7 1.1 -2.4 1.5 -2.5 1.5 -1.3 0.1z m5.7 -4.6 c-0.4 -0.5 0.6 -1.4 2.1 -2 l2.8 -1.1 -2.9 0.6 c-1.8 0.3 -3.2 0 -3.7 -0.8 -0.7 -1 -0.9 -1 -0.9 0.3 0 0.8 0.5 2 1.2 2.7 1.4 1.4 2.1 1.6 1.4 0.3z"/>
  <path d="M44.5 23 c0.4 -1.9 1.5 -5.1 2.5 -7 1 -1.9 2.1 -4.3 2.4 -5.3 1 -3.1 7.9 -2 11.7 1.9 1.7 1.7 3.1 3.8 3.3 4.7 0.1 0.8 0.7 2.1 1.4 2.9 0.9 1.2 0.5 1.4 -2.4 1.5 -3.2 0.1 -3.3 0 -1.7 -1.3 1 -0.7 1.3 -1.4 0.7 -1.4 -1.5 0 -3.6 2.5 -2.7 3.3 0.8 0.9 -1 0.9 -3.1 0.1 -0.9 -0.3 -1.3 -1 -1 -1.5 0.3 -0.5 1 -0.6 1.6 -0.3 0.6 0.4 0.9 0.1 0.6 -0.6 -0.6 -2 -2.8 -2.4 -2.8 -0.6 0 0.9 -0.4 1.6 -1 1.6 -1.7 0 0.1 3 1.9 3 1.4 0.1 1.3 0.2 -0.2 1.1 -1.4 0.9 -2.1 0.7 -3.2 -0.7 -0.7 -1.1 -1.1 -2.2 -0.9 -2.6 0.2 -0.4 0 -0.9 -0.6 -1.3 -0.5 -0.3 -1 -0.1 -1 0.4 0 0.6 -0.6 1.1 -1.4 1.1 -0.8 0 -2.2 1 -3.1 2.3 -1.6 2.2 -1.7 2.1 -1 -1.3z"/>
  <path d="M58 24.9 c0 -1.1 5.9 -2.9 7.5 -2.3 2.8 1.1 1.5 2.2 -3 2.6 -2.5 0.2 -4.5 0 -4.5 -0.3z"/>
  <path d="M45.3 4.5 c-3 -2.7 -3.3 -3.3 -1.5 -2.8 1.2 0.3 2.2 0.9 2.2 1.4 0 0.4 1 1.7 2.2 2.9 1.2 1.1 1.9 2 1.5 2 -0.3 0 -2.3 -1.6 -4.4 -3.5z"/>
 </g>
 <g fill="#bdbec4">
  <path d="M9 30.6 c0 -0.3 1.1 -1.3 2.5 -2.2 1.9 -1.2 2.8 -1.4 3.8 -0.5 0.8 0.6 1.8 0.7 2.2 0.3 0.5 -0.4 0.5 -0.1 0.1 0.6 -0.4 0.7 -1.6 1 -2.6 0.7 -1.1 -0.3 -2.8 -0.1 -4 0.5 -1.1 0.6 -2 0.8 -2 0.6z"/>
  <path d="M13.8 20.9 c-0.2 -0.7 -2.3 -1.2 -4.6 -1.2 -3 0 -4.2 -0.4 -4.2 -1.4 0 -2.3 8.1 -1.4 10.3 1.2 1 1.1 1.6 1.4 1.2 0.8 -0.9 -1.8 0 -1.6 1.5 0.2 1.1 1.3 0.8 1.5 -1.3 1.5 -1.4 0 -2.7 -0.5 -2.9 -1.1z"/>
  <path d="M46 18.3 c0 -0.3 0.6 -1.7 1.4 -3.1 0.8 -1.5 1.7 -3.5 2 -4.5 0.4 -1.1 1.1 -1.5 1.8 -1.1 0.7 0.5 2.7 0.7 4.4 0.5 1.8 -0.1 3.6 0.4 4.3 1.3 0.8 0.9 1 1.6 0.5 1.6 -0.5 0.1 0.2 0.7 1.6 1.5 2.5 1.4 2.5 1.4 -1.5 1.6 -3.9 0.1 -3.9 0.2 -1 0.9 l3 0.8 -3.7 0.1 c-4.5 0.1 -7 -0.8 -6.1 -2.2 0.4 -0.6 0.1 -0.7 -0.6 -0.3 -0.7 0.5 -1 1.4 -0.8 2.1 0.4 0.8 -0.5 1.2 -2.4 1.3 -1.6 0 -2.9 -0.2 -2.9 -0.5z"/>
 </g>
</svg>