<?xml version="1.0" encoding="utf-8"?>
<!DOCTYPE svg PUBLIC "-//W3C//DTD SVG 20010904//EN" "http://www.w3.org/TR/2001/REC-SVG-20010904/DTD/svg10.dtd">
<svg version="1.0" xmlns="http://www.w3.org/2000/svg" width="69px" height="69px" viewBox="0 0 69 69" preserveAspectRatio="xMidYMid meet">
 <g fill="#f7f7f7">
  <path d="M30 50 c0 -3.9 0.1 -4 3.5 -4 3.4 0 3.5 0.1 3.5 4 0 3.9 -0.1 4 -3.5 4 -3.4 0 -3.5 -0.1 -3.5 -4z"/>
  <path d="M60 50.4 c0 -1.7 -0.6 -2.8 -2 -3.1 -1.1 -0.3 -2 -0.9 -2 -1.3 0 -0.4 -1.9 -1.3 -4.2 -1.9 -2.4 -0.7 -4.9 -1.5 -5.5 -1.7 -0.8 -0.4 -1.3 0.2 -1.3 1.6 0 1.8 -0.5 2.1 -3.7 1.8 -3.6 -0.3 -3.8 -0.5 -4.1 -4 -0.2 -2.8 0.1 -3.8 1.2 -3.8 1.6 0 3.3 -5.7 4.5 -15.6 0.5 -3.4 1.1 -6.6 1.5 -7.3 0.8 -1.3 -4 -6.1 -6.1 -6.1 -0.8 0 -3 1.2 -4.9 2.6 -2.7 2.1 -3.4 3.3 -3.4 6.1 0 4.3 -1.9 8.9 -5.4 13.1 l-2.8 3.2 6.1 0 6.1 0 0 4 c0 4.4 -0.5 4.6 -8.2 3.4 -3 -0.5 -3.8 -1.1 -3.9 -2.8 0 -2.1 0 -2 -0.9 0.2 -0.5 1.2 -1.8 2.2 -2.9 2.2 -1.1 0 -3.2 1.3 -4.8 2.8 -1.5 1.6 -4.2 3.2 -5.8 3.6 -2.9 0.7 -2.7 0.5 2.5 -5.1 3 -3.1 4.4 -4.9 3 -3.8 -1.4 1.1 -3.2 2.7 -4 3.6 -0.8 0.9 -2.5 1.9 -3.7 2.2 -1.9 0.4 -2.3 -0.1 -3.3 -4.4 -0.7 -2.7 -0.9 -6.5 -0.6 -8.4 l0.7 -3.5 6.4 0.6 6.5 0.7 0 -4.2 c0 -3.6 0.3 -4.1 2.3 -4.1 2.5 0 4.7 -1.7 4.7 -3.7 0 -0.9 -1.9 -1.3 -7 -1.3 -3.8 0 -7 -0.4 -7 -0.9 0 -2 10.5 -10.2 15.1 -11.8 2.7 -1 4.9 -2.1 4.9 -2.5 0 -1.1 12.4 -1 13.5 0.1 0.6 0.5 2.6 1.4 4.6 2 2 0.6 5.5 2.6 7.8 4.4 4 3 4.1 3.3 3.5 7.3 -0.4 2.6 -0.2 4.4 0.5 4.8 0.6 0.4 1.1 2.4 1.1 4.5 0 2.3 0.8 4.8 2 6.4 1.1 1.4 2 3 2 3.5 0 0.5 0.7 1.6 1.6 2.3 2.7 2.2 3.2 5.1 1.7 9.4 -2.3 6.7 -6.3 9.8 -6.3 4.9z"/>
 </g>
 <g fill="#efefef">
  <path d="M35.4 60.5 l0.6 -5.5 -3 0 c-2.8 0 -3 -0.3 -3 -3.7 0 -2.1 -0.7 -5.6 -1.5 -7.8 -0.8 -2.2 -1.4 -5.5 -1.5 -7.2 0 -3.1 0.2 -3.3 3.5 -3.3 2.7 0 3.5 0.4 3.5 1.8 0 0.9 0.5 2.4 1 3.2 0.9 1.3 1.2 1.3 2.1 -0.2 0.5 -1 1.6 -1.8 2.3 -1.8 1.5 0 3.1 -7.4 4.1 -19.2 l0.7 -6.8 -3.1 0 c-2.4 0 -3.1 -0.4 -3.1 -2 0 -2.9 3.6 -2.5 6.8 0.7 1.5 1.5 3 2.7 3.4 2.6 0.3 -0.1 0.2 1.3 -0.3 3.2 -0.6 2 -1.1 6.6 -1.2 10.4 -0.1 3.8 -0.5 6.7 -0.8 6.5 -0.4 -0.2 -1 0.4 -1.3 1.3 -1 2.6 4 6.9 11.4 9.6 5.6 2 6.6 2.8 7.1 5.3 l0.7 2.9 0.2 -3 c0.4 -4.5 0 -5.8 -2.1 -8.1 -1 -1.1 -1.9 -2.3 -1.9 -2.7 0 -0.3 -1.2 -2.3 -2.6 -4.4 -1.6 -2.4 -2.4 -4.7 -2.1 -6.2 0.3 -1.3 -0.2 -3.5 -1.1 -5 -1.5 -2.8 -1.2 -8 0.8 -11.1 0.8 -1.3 1.1 -1.3 2.6 0.2 1.5 1.5 1.6 2.1 0.5 4.4 -1 2.2 -0.9 3 0.4 4.4 0.8 0.9 1.5 3.2 1.5 5.1 0 2.6 1.1 5 4 8.9 2.2 2.9 4 5.9 4 6.5 0 2.6 -3.3 10.4 -5.1 12.1 -1.8 1.6 -1.9 1.6 -1.9 -0.3 0 -1.2 -0.7 -2.3 -1.5 -2.7 -0.8 -0.3 -1.5 -1.2 -1.5 -2.1 0 -1 -1 -1.5 -3.2 -1.5 -1.8 0 -4.3 -0.3 -5.5 -0.6 -2.2 -0.6 -2.3 -0.3 -2.3 4.5 0 3.7 -0.4 5.1 -1.4 5.1 -1.7 0 -2.6 2.2 -2.6 6 0 4.8 -0.9 6 -4.7 6 l-3.6 0 0.7 -5.5z"/>
  <path d="M13.5 42 c-0.8 -2.4 0.1 -4 2.1 -4 1.1 0 3.4 -3.6 3.4 -5.4 0 -0.1 -2.9 -0.3 -6.5 -0.3 -11.9 -0.3 -12.8 -1.8 -7.2 -12.5 l3.3 -6.3 6.9 -0.3 c4 -0.2 7.3 -0.8 7.7 -1.5 1 -1.5 3 1.2 2.1 2.7 -0.3 0.5 -0.1 0.6 0.5 0.2 0.7 -0.4 1.2 -1.3 1.2 -1.9 0 -0.7 1.4 -2.4 3.2 -3.9 l3.2 -2.6 -2.7 0.5 c-1.5 0.3 -2.7 0.1 -2.7 -0.5 0 -1.6 2 -1.9 5.7 -0.8 4.3 1.4 4.6 4.6 0.5 4.6 -2.6 0 -2.9 0.4 -4 5.8 -0.7 3.2 -1.2 6.8 -1.2 8 0 1.2 -0.4 2.2 -1 2.2 -0.5 0 -1 0.8 -1 1.8 0 1 -1.1 2.8 -2.5 4 -1.7 1.5 -2.6 3.6 -3.1 7.2 -0.6 4.9 -0.7 5 -4 5 -2.4 0 -3.4 -0.5 -3.9 -2z m11.2 -18.7 c1.3 -2.3 2.2 -5 2 -6 -0.4 -1.4 -0.5 -1.4 -0.6 0.4 0 1.2 -1.6 4.1 -3.4 6.5 -4.6 6 -5.4 7.7 -2.8 5.3 1.3 -1.1 3.4 -3.9 4.8 -6.2z"/>
 </g>
 <g fill="#e6e6e6">
  <path d="M35.5 60.3 c0.3 -3.8 0.9 -7.8 1.2 -9.1 0.4 -1.7 0.2 -2.1 -1 -1.6 -1 0.3 -1.7 -0.1 -2 -1.3 -0.4 -1.6 -0.5 -1.6 -0.6 0 -0.2 2.5 -4.1 2.3 -4.1 -0.3 0 -3.2 -2.2 -7 -4.2 -7 -1.3 0 -1.8 -0.8 -1.9 -2.7 -0.1 -2.5 -0.3 -2.4 -1.2 1 -1 3.5 -1.3 3.7 -4.9 3.7 -3.5 0 -3.9 -0.2 -3.6 -2.2 0.2 -1.3 1 -2.3 1.8 -2.3 1.9 0 2.8 -1.2 4 -5.5 0.5 -1.9 1.9 -4.1 3.1 -4.8 2.1 -1.3 2.1 -1.2 1.7 2.2 -0.4 3.5 -0.3 3.6 2.9 3.6 2.9 0 3.3 0.3 3.4 2.8 0.1 1.6 0.3 2 0.6 1 0.5 -1.9 3.3 -2.5 3.3 -0.7 0 1.4 4.3 0 5.3 -1.7 1.2 -2.1 3.5 -1.7 6.4 1 2.5 2.3 2.6 2.8 2 9.9 -0.3 5 -1.4 9.3 -3.1 12.9 -1.4 3 -2.6 6 -2.6 6.6 0 0.7 -1.6 1.2 -3.6 1.2 l-3.6 0 0.7 -6.7z m5.6 -10.8 c-0.5 -0.5 -1.1 -1.7 -1.4 -2.5 -0.3 -0.8 -0.6 0.8 -0.6 3.5 0 4.8 0 4.9 1.4 2.5 0.7 -1.4 1 -2.9 0.6 -3.5z m1.9 -6.9 c0 -0.8 0.6 -1.6 1.3 -1.9 0.9 -0.4 0.9 -0.7 -0.1 -1.8 -1.1 -1.2 -1.3 -1.2 -1 0 0.2 0.7 -0.3 1.6 -1.1 1.9 -0.9 0.3 -1.1 0 -0.6 -0.9 0.6 -1 0.5 -1.1 -0.4 -0.3 -0.6 0.6 -0.9 1.8 -0.5 2.7 0.8 2.1 2.4 2.2 2.4 0.3z"/>
  <path d="M62 48.5 c0 -1.4 0.2 -2.5 0.4 -2.5 0.2 0 0.6 1.1 0.8 2.5 0.3 1.4 0.1 2.5 -0.3 2.5 -0.5 0 -0.9 -1.1 -0.9 -2.5z"/>
  <path d="M65.1 44.9 c-0.1 -2.5 -1.2 -5 -3.4 -8 -4.6 -6 -5.9 -8.6 -5.5 -11.3 0.1 -1.3 -0.2 -2.9 -0.8 -3.7 -2.2 -2.7 -2.3 -5.4 -0.5 -9.4 l1.7 -4 1.9 2.8 c1.3 2.1 1.5 3.1 0.6 4 -1.8 1.8 -1.3 2.7 1.4 2.7 2.2 0 2.5 0.4 2.5 3.5 0 2.4 -0.5 3.5 -1.5 3.5 -2.1 0 -1.9 0.5 1.5 5.5 1.7 2.4 3 4.8 3 5.4 0 0.6 0.5 1.1 1 1.1 1.4 0 1.1 3.8 -0.5 8 l-1.3 3.5 -0.1 -3.6z"/>
  <path d="M53 44 c0 -2.2 2 -2.6 5.1 -1 3 1.6 2.3 3 -1.6 3 -2.8 0 -3.5 -0.4 -3.5 -2z"/>
  <path d="M43 26 c0 -3.3 0.3 -4 2 -4 2.1 0 2.5 1.6 1.4 5.8 -1.1 3.9 -3.4 2.7 -3.4 -1.8z"/>
  <path d="M26.3 20.5 c0.6 -1.9 1.4 -3.5 1.9 -3.5 0.4 0 0.8 -0.9 0.8 -2 0 -1.1 -0.4 -2 -1 -2 -1.8 0 0.2 -3 3.5 -5 4.3 -2.6 7.5 -2.6 7.5 0 0 1.1 -0.7 2 -1.5 2 -1 0 -1.5 1.1 -1.5 3.5 0 3.2 -0.2 3.5 -3 3.5 -2.8 0 -3 0.3 -3 3.5 0 3 -0.3 3.5 -2.4 3.5 -2.3 0 -2.4 -0.2 -1.3 -3.5z"/>
  <path d="M42.9 18.3 c-1.2 -0.3 -1.8 -2.1 -2.3 -6 -0.4 -3.1 -0.5 -5.7 -0.4 -5.8 0.2 -0.2 1.3 0.1 2.5 0.6 2.9 1.1 5.5 6.2 4.7 9.4 -0.6 2.4 -1.2 2.7 -4.5 1.8z"/>
 </g>
 <g fill="#dedede">
  <path d="M35 61.5 c0 -1.9 0.5 -3.5 1 -3.5 0.6 0 1 -0.4 1 -1 0 -0.5 -1.6 -1 -3.5 -1 -3.1 0 -3.5 -0.3 -3.5 -2.7 0 -1.4 -0.8 -6.6 -1.7 -11.5 -1.3 -6.9 -2 -8.8 -3.4 -8.8 -1.7 0 -2.9 3.6 -2.9 8.6 0 2.1 -0.5 2.4 -3.5 2.4 -3.3 0 -3.5 -0.2 -3.5 -3.2 0 -3 0.1 -3.1 1.5 -1.2 1.1 1.3 1.5 1.5 1.3 0.4 -0.3 -2.5 2.4 -9.9 4.4 -11.6 1 -1 1.8 -2.3 1.8 -3.1 0 -0.8 0.8 -1.3 1.8 -1.1 1.1 0.2 1.8 1.4 2 3.6 0.3 2.7 0.7 3.2 3 3.2 1.9 0 3 0.7 3.7 2.3 0.6 1.3 2.1 2.3 3.8 2.5 2.4 0.3 2.7 0 2.7 -2.7 0 -1.6 0.3 -3.6 0.6 -4.5 0.5 -1.2 0 -1.6 -2 -1.6 -2.4 0 -2.6 -0.3 -2.6 -4.4 0 -4.3 0.1 -4.5 3.3 -4.9 2.8 -0.3 2.6 -0.4 -1 -0.5 -4.3 -0.2 -4.3 -0.2 -4.3 3.3 0 3.3 -0.2 3.5 -3.5 3.5 -3.3 0 -3.5 -0.2 -3.5 -3.5 0 -1.9 0.5 -3.5 1 -3.5 0.6 0 1 -0.7 1 -1.5 0 -0.8 -0.7 -1.5 -1.5 -1.5 -1.6 0 -1.9 -0.9 -0.7 -2.5 3 -4.1 10.2 -7 10.2 -4 0 0.8 0.2 1.5 0.4 1.5 0.2 0 1.1 0.3 1.9 0.6 1 0.3 1.7 -0.1 1.9 -1.3 0.3 -1.6 0.5 -1.6 2.6 0.5 2.2 2.2 2.3 2.9 1.8 11 -0.3 4.8 -1 10.1 -1.6 11.9 -1.1 3 -0.9 3.4 1.7 5.7 1.5 1.4 2.2 2.6 1.5 2.6 -0.9 0 -1.1 1.4 -0.6 5.5 0.5 3.8 0.3 5.5 -0.5 5.5 -0.6 0 -1.1 1.4 -1.1 3.1 0 1.7 -0.7 3.7 -1.5 4.5 -0.8 0.9 -1.5 2.6 -1.5 4 0 2.1 -0.4 2.4 -4 2.4 -3.9 0 -4 -0.1 -4 -3.5z m9.4 -13.7 c0.7 -3.6 -0.4 -5.2 -1.9 -2.7 -0.4 0.6 -1.3 0.8 -2.1 0.5 -0.9 -0.3 -1.4 0.1 -1.4 1.2 0 1 -0.6 2.4 -1.2 3.1 -1 1.1 -1 1.4 0 1.8 0.7 0.3 1.2 2.4 1.3 5.1 l0.1 4.7 2.2 -5 c1.3 -2.7 2.6 -6.7 3 -8.7z m-11.4 -1.5 c-1.1 -1.7 -1.1 -1.7 -0.6 0 0.3 1 0.7 2.8 0.7 4 0.2 2.2 0.2 2.2 0.6 0 0.2 -1.2 -0.1 -3 -0.7 -4z m1 -4.4 c0 -0.6 -0.4 -0.8 -1 -0.4 -0.5 0.3 -1.4 -0.9 -1.9 -2.7 -0.5 -1.8 -1 -2.5 -1 -1.6 -0.1 2.4 2 6.8 3 6.2 0.5 -0.3 0.9 -1 0.9 -1.5z m9.6 0.7 c3 -3.1 1.3 -6.3 -2.1 -3.8 -1.8 1.3 -2 2 -1.1 3.4 1.3 2.2 1.4 2.2 3.2 0.4z"/>
  <path d="M59.6 50.5 c-0.5 -2.6 -1.2 -3.5 -2.6 -3.5 -1.5 0 -2 -0.7 -2 -2.4 0 -2.3 0.2 -2.4 2.9 -1.5 4.6 1.6 6.4 5.1 4.6 9.2 -1.1 2.7 -2.2 2 -2.9 -1.8z"/>
  <path d="M66.1 43.8 c-0.1 -1 -2.4 -5 -5.1 -8.8 -3.9 -5.5 -4.9 -7.6 -4.4 -9.5 0.4 -1.6 0 -3 -1 -4 -2.2 -2.2 -2 -6.8 0.3 -8.9 1.9 -1.7 2.1 -1.7 5 1.6 1.7 1.8 3.5 4.5 4 6 0.9 2.4 0.6 3 -2 4.8 -3.8 2.8 -4.1 7 -0.4 7 1.6 0 2.5 0.6 2.5 1.5 0 0.8 0.4 1.5 0.9 1.5 1.5 0 2.3 5.4 1.2 8.1 -0.7 1.7 -1 1.9 -1 0.7z"/>
 </g>
 <g fill="#d6d6d6">
  <path d="M43.3 52.1 c1.3 -4.8 3.7 -4.5 3.7 0.5 0 2.9 -0.3 3.4 -2.4 3.4 -2.2 0 -2.3 -0.2 -1.3 -3.9z"/>
  <path d="M29 47.8 c0 -3.2 1.4 -6.7 2.3 -5.8 0.3 0.3 0.8 2.4 1.2 4.8 0.6 3.8 0.5 4.2 -1.4 4.2 -1.7 0 -2.1 -0.6 -2.1 -3.2z"/>
  <path d="M34.4 48 c0.3 -1.9 0.2 -2.9 -0.4 -2.5 -1.3 0.8 -1.3 -0.1 0 -2.6 1.3 -2.4 4.8 -2.5 6.6 -0.1 1.8 2.3 1.7 3.7 -0.1 2.2 -1.3 -1.1 -1.5 -0.8 -1.5 1.4 0 1.6 -0.5 2.6 -1.5 2.6 -0.8 0 -1.5 0.5 -1.5 1 0 0.6 -0.5 1 -1.1 1 -0.7 0 -0.9 -1.1 -0.5 -3z"/>
  <path d="M44.8 45.3 c0 -1 0 -2.7 0.1 -3.8 0.3 -3.2 -0.7 -4.9 -2.3 -3.6 -1.8 1.5 -2.6 0.4 -2.6 -3.6 0 -2.8 0.4 -3.3 2.4 -3.3 1.9 0 2.2 0.4 1.9 2.4 -0.4 1.7 0.1 2.7 1.6 3.5 1.7 0.9 2.1 2.1 2.1 5.6 0 3.3 -0.4 4.5 -1.5 4.5 -0.8 0 -1.6 -0.8 -1.7 -1.7z"/>
  <path d="M15.4 44.5 c-0.4 -0.8 -1.8 -1.5 -3.2 -1.5 l-2.7 0 2.8 -2.7 c2.6 -2.6 2.9 -2.7 3.8 -1 0.6 0.9 1.5 1.7 2.1 1.7 0.7 0 0.6 -0.5 -0.2 -1.5 -0.7 -0.8 -0.8 -1.5 -0.3 -1.5 0.6 0 1.4 -1.9 1.9 -4.2 0.8 -3.6 1.3 -4.3 3.2 -4.1 1.8 0.2 2.1 -0.1 1.6 -2.5 -0.4 -1.9 0.1 -3.4 1.5 -4.9 1.2 -1.2 2.3 -4.3 2.7 -7.3 0.5 -3.9 1.2 -5.4 2.5 -5.7 1.1 -0.3 1.9 -0.9 1.9 -1.3 0 -1.5 6.1 -2.2 8.9 -1.1 3.1 1.3 6.6 6.5 5.5 8.2 -0.4 0.7 -1 3.7 -1.3 6.8 l-0.6 5.6 -6.2 0 c-6.1 0 -6.3 0 -6.3 2.6 0 2 -0.6 2.8 -2.6 3.3 -3.7 1 -7.3 5.5 -7.4 9.4 0 3 -0.2 3.2 -3.5 3.2 -2.2 0 -3.8 -0.6 -4.1 -1.5z m22.6 -31.5 c-1.9 -1.2 -4.7 -1.3 -5.4 -0.2 -0.3 0.5 1.1 0.9 3.2 1 2.7 0.1 3.3 -0.1 2.2 -0.8z"/>
  <path d="M63.9 38.8 c-1.3 -1.8 -3.4 -4.8 -4.7 -6.5 l-2.4 -3.3 3.1 0 c2.9 0 3.1 0.2 3.1 3.5 0 3.1 0.3 3.5 2.5 3.5 2 0 2.5 0.5 2.5 2.4 0 3.8 -1.6 3.9 -4.1 0.4z"/>
  <path d="M57 25 c0 -0.5 1.5 -2 3.4 -3.2 2.6 -1.8 3.1 -2.6 2.1 -3.4 -1.4 -1.4 -4.5 0 -4.5 2.1 0 2.1 -1.7 1.8 -3 -0.4 -0.8 -1.6 -0.6 -2 0.8 -2.4 1.6 -0.4 1.6 -0.5 0 -0.6 -2.4 -0.1 -2.3 -1.6 0.2 -4.1 l2 -2 3 3.3 c1.6 1.9 3.4 4.7 4 6.3 0.9 2.4 0.8 3.1 -0.6 4.1 -2.1 1.5 -7.4 1.7 -7.4 0.3z"/>
 </g>
 <g fill="#cecece">
  <path d="M37 60 c0 -1.9 0.5 -4.2 1 -5 0.7 -1.1 1 -0.6 1 2 0 1.9 -0.5 4.2 -1 5 -0.7 1.1 -1 0.6 -1 -2z"/>
  <path d="M40 60.4 c2.6 -6.9 5 -8.5 5 -3.5 0 4.4 -1 6.1 -3.6 6.1 -2.1 0 -2.3 -0.3 -1.4 -2.6z"/>
  <path d="M44.7 46.1 c0.3 -3.3 0.3 -6.7 0 -7.6 -0.6 -1.4 -0.9 -1.4 -3.2 0.1 -1.4 0.9 -2.2 2 -1.9 2.5 0.3 0.5 0 0.9 -0.5 0.9 -0.6 0 -1.1 -1.6 -1.1 -3.5 0 -3.2 0.2 -3.5 3 -3.5 1.7 0 3 0.5 3 1 0 0.6 0.8 1.3 1.8 1.7 0.9 0.3 2.4 1.1 3.2 1.8 0.8 0.6 3.8 2 6.5 3 2.8 0.9 5.6 2.5 6.3 3.3 1.9 2.5 1.5 5.2 -0.8 5.2 -1.4 0 -2 -0.7 -2 -2.4 0 -2.1 -0.6 -2.4 -4.7 -2.9 -5.8 -0.6 -6.3 -0.4 -6.3 3.4 0 2.2 -0.5 2.9 -2 2.9 -1.8 0 -1.9 -0.5 -1.3 -5.9z"/>
  <path d="M29.3 46.5 c-1.5 -1.7 -1.7 -7.5 -0.3 -7.5 1.4 0 3 3.5 3 6.4 0 2.9 -0.9 3.2 -2.7 1.1z"/>
  <path d="M34.8 45.8 c0.4 -1.6 0.2 -1.9 -0.9 -1.2 -1 0.6 -0.9 0.1 0.3 -1.8 1.6 -2.5 1.6 -2.6 -1.3 -4.8 -3.8 -2.7 -8 -2.1 -7.2 1 0.3 1.1 0 2 -0.6 2 -0.6 0 -1.1 1.4 -1.1 3 0 2.8 -0.3 3 -3.5 3 -3.1 0 -3.5 -0.3 -3.6 -2.7 0 -1.6 -0.3 -2.2 -0.6 -1.5 -0.2 0.6 -2.1 1.2 -4.1 1.2 l-3.7 -0.1 3.4 -2.9 3.3 -2.8 2.5 2.6 2.5 2.7 -1.6 -2.7 c-1.2 -2.1 -1.3 -2.8 -0.4 -2.9 0.7 0 2.3 -1.3 3.6 -3 1.9 -2.3 2 -2.9 0.8 -2.9 -0.9 0 -1.6 -0.4 -1.6 -0.9 0 -1.2 6.7 -2.4 8.2 -1.5 0.7 0.4 0.8 0.3 0.4 -0.4 -0.4 -0.7 -1.7 -1.2 -3 -1.2 -2.6 0 -3 -2.4 -1 -5.5 0.8 -1.1 1.4 -2.7 1.4 -3.5 0 -4.2 2.5 -6.9 7.3 -8 6.1 -1.3 9.7 -1.3 9.7 0 0 0.6 0.7 1 1.5 1 1.4 0 2 1.4 1.5 3.5 -0.2 0.6 -0.4 3 -0.6 5.5 -0.5 7.6 -1.4 11 -2.9 11 -0.8 0 -1.5 -0.6 -1.5 -1.3 0 -0.9 -1.1 -1.2 -3.5 -0.9 -2.6 0.3 -3.5 0.9 -3.5 2.2 0 1 -0.8 2.1 -1.7 2.3 -1.1 0.3 -0.7 0.5 1 0.6 2.7 0.1 2.7 0.2 2.7 6.6 0 4.9 -0.3 6.5 -1.4 6.5 -1 0 -1.2 -0.7 -0.8 -2.2z m7.6 -21.6 c0.2 -0.4 -0.1 -1.5 -0.8 -2.4 -1.2 -1.6 -1.4 -1.6 -2.4 0.7 -1 2.2 -0.9 2.5 0.8 2.5 1 0 2.1 -0.3 2.4 -0.8z m-8.9 -5.2 c0.8 -0.7 3.6 -1 6.5 -0.8 4.9 0.3 5.1 0.2 4.8 -2.2 -0.2 -1.8 -1 -2.6 -2.8 -2.8 -1.4 -0.1 -4.2 -0.5 -6.2 -0.8 -3.1 -0.5 -3.8 -0.3 -3.8 1 0 1.4 0.7 1.6 3.8 1.2 2 -0.3 4.4 -0.1 5.2 0.4 1.2 0.8 1.1 1 -0.8 1 -1.2 0 -3.8 0.7 -5.7 1.4 -2.9 1.2 -3.5 2 -3.4 4.3 0.1 2.2 0.3 2.4 0.6 0.6 0.2 -1.2 1.1 -2.7 1.8 -3.3z"/>
  <path d="M64.3 38.7 c-8.5 -9.7 -9.3 -13.6 -3.4 -16.7 3.4 -1.7 4 -1.8 4.5 -0.4 0.9 2.3 0.8 2.4 -1.3 2.4 -1.1 0 -2.1 0.9 -2.5 2.3 -0.9 3.3 -0.8 3.7 0.9 3.7 0.8 0 1.5 0.7 1.5 1.5 0 0.8 0.5 1.5 1 1.5 0.6 0 1 0.9 1 2 0 1.1 0.5 2 1 2 1.2 0 1.3 2.7 0.1 3.4 -0.4 0.3 -1.7 -0.5 -2.8 -1.7z"/>
  <path d="M55.1 20.2 c-1.6 -2.9 -1.4 -4.6 0.8 -6.6 1.7 -1.5 1.9 -1.5 3.9 0.1 l2.1 1.8 -2.9 3.4 c-2.7 3.2 -2.9 3.2 -3.9 1.3z"/>
 </g>
 <g fill="#c5c5c5">
  <path d="M35 60.5 c0 -2.8 0.4 -3.5 2 -3.5 2.1 0 2.4 1 1.4 4.8 -1 3.6 -3.4 2.7 -3.4 -1.3z"/>
  <path d="M39 63.3 c0.1 -0.5 0.7 -1.9 1.5 -3.3 l1.4 -2.5 0.1 3.3 c0 2.2 -0.5 3.2 -1.5 3.2 -0.8 0 -1.5 -0.3 -1.5 -0.7z"/>
  <path d="M29 48.6 c0 -4.5 2.6 -5.6 3.4 -1.4 0.9 4.5 0.8 4.8 -1.4 4.8 -1.6 0 -2 -0.7 -2 -3.4z"/>
  <path d="M34 50.6 c0 -0.7 0.3 -2.8 0.6 -4.5 0.6 -2.6 1.1 -3.1 3.5 -3.1 1.6 0 2.9 0.4 2.9 1 0 0.6 -0.6 0.9 -1.2 0.8 -0.8 -0.2 -1.2 0.7 -1 2.4 0.2 1.8 -0.3 3 -1.7 3.7 -2.6 1.4 -3.1 1.4 -3.1 -0.3z"/>
  <path d="M5 48.6 c0 -0.7 1.9 -3.1 4.3 -5.2 l4.2 -3.9 0.3 2.8 c0.2 1.8 -0.4 3.6 -2 5.2 -2.5 2.7 -6.8 3.4 -6.8 1.1z"/>
  <path d="M57 45.5 c0 -2.1 0.3 -2.3 2.3 -1.6 3.3 1.2 3.5 4.1 0.3 4.1 -2.1 0 -2.6 -0.5 -2.6 -2.5z"/>
  <path d="M16 42.3 l0 -2.6 2.6 2.4 2.7 2.4 -1.7 -2.6 c-1.7 -2.7 -1.3 -3.9 1.4 -3.9 2.2 0 3.6 -6 1.8 -7.2 -1 -0.6 -0.9 -0.8 0.2 -0.8 0.9 0 2.7 0.8 4 1.7 l2.5 1.7 -1.9 -2.2 c-1.7 -1.9 -1.7 -2.2 -0.3 -2.2 1 0 1.7 0.5 1.7 1 0 0.6 0.8 1 1.7 1 1.3 0 1.4 -0.3 0.5 -1.2 -0.7 -0.7 -1.2 -2 -1.2 -3 0 -1.1 -0.5 -1.5 -1.4 -1.2 -1.1 0.4 -1.4 -0.9 -1.3 -6.5 0 -6.5 0.2 -7.2 2.9 -9.6 2.2 -1.9 4.2 -2.7 7.5 -2.8 3.9 -0.2 4.8 0.2 7.5 3.1 2 2.3 2.7 3.9 2.2 5 -0.4 1 -1 4.9 -1.5 8.8 -0.4 4 -1.2 8.1 -1.7 9.1 -1.2 2.1 -0.6 3.3 2.3 4.9 1.1 0.6 2.1 2.3 2.3 3.8 0.3 2.1 -0.1 2.6 -1.8 2.6 -1.2 0 -1.9 -0.4 -1.6 -0.9 0.4 -0.5 0.2 -2.1 -0.4 -3.6 -0.8 -2.2 -1.3 -2.4 -3 -1.5 -1.6 0.9 -2 0.8 -2 -0.5 0 -0.9 -0.9 -1.5 -2.4 -1.5 -1.3 0 -2.7 -0.6 -2.9 -1.2 -0.3 -0.7 -0.6 -0.3 -0.6 1 -0.1 2.4 -1.1 2.8 -2.8 1.1 -0.8 -0.8 -1.3 -0.3 -1.8 2 -0.5 2.6 -1.1 3.1 -3.6 3.1 -1.9 0 -2.9 0.5 -2.9 1.5 0 1 -1.1 1.5 -3.5 1.5 -3.1 0 -3.5 -0.3 -3.5 -2.7z m25.2 -17.3 c2.9 0.6 3.8 0.4 3.8 -0.6 0 -0.8 -0.7 -1.4 -1.5 -1.4 -0.9 0 -1.8 -0.7 -2.1 -1.5 -0.5 -1.2 -0.9 -1.2 -2.8 0 -1.2 0.8 -3.1 1.2 -4.3 0.9 -1.9 -0.5 -2.1 -0.9 -1.2 -2.6 1 -1.8 1.7 -1.9 6.5 -1.3 4.9 0.6 5.4 0.5 5.4 -1.2 0 -3.6 -2.4 -7.3 -4.7 -7.3 -1.3 0 -2.3 0.5 -2.3 1 0 0.6 -1.4 1 -3.1 1 -2.6 0 -3 0.4 -2.8 2.3 0.1 1.2 -0.1 2.9 -0.4 3.7 -2.1 5.6 -1 8.2 3 7.1 1.6 -0.4 4.5 -0.4 6.5 -0.1z"/>
  <path d="M61.5 34.9 c-5 -7 -5.3 -7.9 -2.1 -7.9 2.3 0 2.6 0.4 2.6 3.5 0 3 0.3 3.5 2.4 3.5 2.3 0 3.6 1.6 3.6 4.6 0 2.9 -2.9 1.2 -6.5 -3.7z"/>
  <path d="M59.3 23.5 c3.2 -2.9 5.5 -3.2 6.4 -0.9 0.8 2.1 -1.4 3.4 -5.7 3.4 l-3.5 -0.1 2.8 -2.4z"/>
  <path d="M54.7 18.8 c-0.6 -2.2 1.6 -6.8 3.2 -6.8 0.5 0 1.4 0.7 2.1 1.5 1 1.1 0.9 1.8 -0.4 3 -0.9 0.9 -1.6 2.3 -1.6 3.1 0 2.3 -2.7 1.6 -3.3 -0.8z"/>
 </g>
 <g fill="#bdbdbd">
  <path d="M34.4 62.6 c0.7 -5.5 0.7 -5.6 -1.7 -5.6 -1.9 0 -2.6 -0.6 -3.1 -3.1 -0.9 -4.5 -0.7 -7.9 0.3 -7.9 0.5 0 1.1 -0.8 1.3 -1.7 0.2 -1 0.8 0.7 1.2 3.7 l0.9 5.5 0.9 -4 c0.5 -2.1 0.6 -4.6 0.3 -5.3 -0.3 -0.8 0 -2 0.5 -2.8 0.9 -0.9 0.5 -1.7 -1.4 -2.9 -1.4 -1 -2.6 -2.4 -2.6 -3.1 0 -0.8 -0.4 -1.4 -1 -1.4 -0.5 0 -0.7 0.7 -0.4 1.5 0.4 0.8 0.1 1.5 -0.5 1.5 -0.6 0 -1.1 1.1 -1.1 2.4 0 1.6 -0.7 2.7 -2 3.1 -1.1 0.3 -2 1.3 -2 2.1 0 0.9 -1.1 1.4 -3.5 1.4 -2.4 0 -3.5 -0.5 -3.5 -1.5 0 -0.8 -0.4 -1.5 -1 -1.5 -0.5 0 -1 -1.1 -1 -2.5 l0 -2.5 3 3.2 c2.5 2.8 2.8 3 2.3 1.1 -0.3 -1.3 -1 -2.3 -1.7 -2.3 -0.6 0 -0.4 -0.5 0.4 -1 0.8 -0.5 2.2 -0.7 3.1 -0.5 1.1 0.4 1.5 -0.3 1.5 -3 0 -4.4 0.9 -5.3 3.7 -3.6 2.2 1.4 2.2 1.4 0.3 -0.8 -2.1 -2.3 -0.9 -2.8 2.7 -1 2.1 1 2.1 1 0.3 -0.5 -1.1 -0.9 -2.6 -1.6 -3.3 -1.6 -0.7 0 -1.3 -0.4 -1.3 -0.9 0 -0.5 0.8 -0.8 1.8 -0.6 0.9 0.1 1.2 0 0.6 -0.2 -1.4 -0.5 -2.6 -4.5 -1.6 -5.3 0.4 -0.3 0.8 -2.5 0.9 -5 0.1 -3.6 0.7 -4.9 3 -6.7 2.3 -1.9 2.9 -2 3.1 -0.7 0.2 0.8 -0.2 2.1 -0.8 2.9 -0.7 0.8 -1.3 2.7 -1.5 4.2 -0.2 1.5 -0.6 3.7 -1 4.9 -0.9 2.8 3.3 7.8 5.8 6.9 0.9 -0.4 1.7 -1.1 1.7 -1.6 0 -0.5 1.4 -0.9 3 -0.9 1.7 0 3 0.5 3 1.1 0 0.5 0.5 0.7 1 0.4 1.2 -0.7 0.4 3.7 -1.2 6.8 -0.5 0.9 -0.7 2.1 -0.4 2.6 0.3 0.5 -0.5 1.6 -1.9 2.5 -2.1 1.4 -2.3 2 -1.5 3.6 1.3 2.5 1.3 3.1 -0.2 2.7 -0.7 -0.1 -1.2 0.6 -1.1 1.6 0 1.2 -0.4 1.6 -1.3 1.3 -1.1 -0.4 -1.3 0.3 -0.8 3.7 0.4 2.3 1.1 4.5 1.6 4.8 0.5 0.3 0.7 2.4 0.4 4.5 -0.6 3.7 -0.5 3.6 2.3 -2.1 3.2 -6.6 5.3 -16 4.4 -19.4 -0.7 -2.8 0.1 -2.7 4.3 0.7 3.9 3.1 4.3 4.2 1.5 4.2 -1.6 0 -2.1 0.9 -2.7 4.5 -0.3 2.5 -1 4.5 -1.5 4.5 -0.5 0 -0.9 1.4 -0.9 3 0 2.3 -0.5 3 -1.9 3 -1.3 0 -2 1.1 -2.7 4.3 -0.8 3.8 -1.2 4.2 -4.3 4.5 l-3.3 0.3 0.6 -5.5z"/>
  <path d="M5.4 49.6 c-0.3 -0.8 1 -3 3 -5 l3.6 -3.5 0 3.4 c0 2.4 -0.5 3.5 -1.5 3.5 -0.8 0 -1.5 0.7 -1.5 1.5 0 1.9 -2.9 2 -3.6 0.1z"/>
  <path d="M61.8 35 l-2.8 -3.5 2.6 -0.3 c3.3 -0.4 3.6 -0.1 3.2 3.9 l-0.3 3.4 -2.7 -3.5z"/>
  <path d="M60 24 c0 -1.3 3.8 -3.2 5 -2.5 2.2 1.4 1 3.5 -2 3.5 -1.6 0 -3 -0.4 -3 -1z"/>
  <path d="M41.7 22.3 c-1.6 -1.5 -0.6 -3.3 1.8 -3.3 3.1 0 3.3 2 0.3 2.1 -2.2 0.1 -2.2 0.1 0.2 0.9 2.2 0.7 2.2 0.8 0.4 0.9 -1.1 0.1 -2.4 -0.2 -2.7 -0.6z"/>
  <path d="M33 20.5 c0 -1.8 4.8 -3.1 6.2 -1.7 1.6 1.6 0 3.2 -3.3 3.2 -1.9 0 -2.9 -0.5 -2.9 -1.5z"/>
  <path d="M55.2 19.4 c-1.1 -2 0.3 -6 2.3 -6.8 0.7 -0.2 1.9 0.3 2.7 1.2 1.2 1.5 1 2.1 -1.3 4.5 -2.5 2.5 -2.8 2.6 -3.7 1.1z"/>
  <path d="M45 16.2 c0 -2.4 -0.5 -2.7 -6.2 -3.7 -4 -0.6 -5.4 -3.5 -1.8 -3.5 1.1 0 2 -0.4 2 -1 0 -2.3 4.1 -0.8 6.5 2.5 2.5 3.2 2.6 3.6 1.1 5.7 l-1.6 2.2 0 -2.2z"/>
 </g>
 <g fill="#b5b5b5">
  <path d="M34 64.5 c0 -2.8 0.4 -3.5 2 -3.5 1.2 0 2 0.7 2 1.8 0.1 1.6 0.1 1.6 1.1 0 1.5 -2.7 2.9 -2.2 2.9 1.1 0 3 -1.4 4.1 -5.6 4.1 -2.1 0 -2.4 -0.5 -2.4 -3.5z"/>
  <path d="M34.8 46.4 c-0.2 -2.5 0 -4.8 0.4 -5 1.4 -0.9 0.8 -2.1 -1.7 -3.2 -1.5 -0.7 -2.5 -2 -2.5 -3.2 0 -1.2 -0.3 -1.9 -0.7 -1.7 -0.5 0.3 -1.6 -0.6 -2.6 -1.9 -2.1 -2.9 -0.5 -3.3 3.3 -0.8 1.9 1.2 1.8 0.9 -0.5 -1.1 -2.8 -2.5 -2.8 -2.6 -0.6 -2 1.6 0.5 2.1 0.4 1.7 -0.4 -0.4 -0.6 -1.7 -1.1 -2.8 -1.1 -1.8 0 -2 -0.4 -1.4 -3.7 0.3 -2.1 0.6 -5.5 0.6 -7.6 0 -3 0.4 -4 2 -4.4 1.1 -0.3 2 -0.9 2 -1.3 0 -1.3 5.7 -2.9 7.9 -2.3 1.2 0.3 2.1 1.2 2.1 1.9 0 0.8 0.9 1.4 1.9 1.4 1.9 0 3.1 1.8 3.1 4.7 0 1.4 -0.2 1.4 -1.8 0 -1 -1 -2.4 -1.7 -3 -1.7 -0.7 0 -1.2 -0.7 -1.2 -1.5 0 -0.8 -0.4 -1.5 -1 -1.5 -0.5 0 -1 0.5 -1 1.1 0 0.7 -1.1 0.9 -3 0.6 -3.1 -0.7 -4.1 0.1 -4.7 3.7 -0.2 1.2 -0.6 3.5 -0.9 5.1 -0.3 2.2 0.1 3.8 1.9 5.9 l2.4 2.9 2.1 -2.1 c5 -5 10 -0.5 6.6 5.9 -1 1.9 -1.8 3.8 -1.9 4.2 0 0.4 -0.6 1.1 -1.4 1.6 -1 0.6 -1 1.3 -0.2 2.9 0.8 1.6 0.7 2.1 -0.4 2.6 -1 0.4 -1.3 1.4 -0.9 3.6 0.6 2.5 0.3 3 -1.4 3 -1.7 0 -2.1 -0.8 -2.4 -4.6z"/>
  <path d="M27.3 43.8 c-0.6 -2.4 -1.1 -5.4 -1.2 -6.8 0 -1.4 -0.5 -2.6 -1.1 -2.8 -1.5 -0.5 -1.2 -3.2 0.5 -3.2 1.8 0 3.6 3.1 5.2 9 1.7 6.3 1.6 8 -0.5 8 -1.2 0 -2.1 -1.3 -2.9 -4.2z"/>
  <path d="M10.1 43.3 c0.6 -1 2.1 -2.5 3.2 -3.4 2.1 -1.5 2.3 -1.4 4.5 1.3 1.3 1.5 1.9 2.8 1.3 2.8 -0.6 0 -1.1 -0.4 -1.1 -1 0 -0.5 -0.7 -1 -1.5 -1 -0.8 0 -1.5 0.7 -1.5 1.5 0 1 -1 1.5 -3 1.5 -2.6 0 -2.9 -0.2 -1.9 -1.7z"/>
  <path d="M48 42.6 c0 -2.3 0.2 -2.4 3.5 -1.3 1.9 0.6 3.5 1.6 3.5 2.4 0 0.8 -1.3 1.3 -3.5 1.3 -3 0 -3.5 -0.3 -3.5 -2.4z"/>
  <path d="M21 41.7 c0 -1.6 0.6 -2.3 2 -2.4 1.5 -0.1 2 0.4 2 2.3 0 1.7 -0.5 2.4 -2 2.4 -1.4 0 -2 -0.7 -2 -2.3z"/>
  <path d="M61.2 34.1 c-2.3 -3.3 -4.2 -6.7 -4.2 -7.5 0 -1.4 3.6 -4.6 5.2 -4.6 1.3 0 0.9 4.8 -0.4 5.3 -1 0.4 -1 0.6 0 0.6 0.7 0.1 1.2 1.5 1.2 3.6 0 3.1 0.3 3.5 2.6 3.5 2 0 2.5 0.4 2.2 2.2 -0.5 3.8 -2.3 3 -6.6 -3.1z"/>
  <path d="M41.7 22.3 c-1.6 -1.5 -0.6 -3.3 1.8 -3.3 1.8 0 2.5 0.5 2.5 2 0 2 -2.8 2.8 -4.3 1.3z"/>
  <path d="M33 21.2 c0 -0.5 0.7 -1.5 1.5 -2.2 1.7 -1.4 5.8 -0.4 5.2 1.3 -0.4 1.4 -6.7 2.2 -6.7 0.9z"/>
  <path d="M55.7 20.4 c-1.3 -1.4 -0.7 -5.1 1.2 -6.8 1.7 -1.5 1.9 -1.5 3.2 0 1.1 1.4 1.1 1.8 -0.2 2.8 -0.9 0.6 -2 1.9 -2.5 2.9 -0.6 1 -1.3 1.4 -1.7 1.1z"/>
 </g>
 <g fill="#adadad">
  <path d="M34 65.6 c0 -1.9 0.5 -2.6 2 -2.6 1.4 0 1.8 0.5 1.4 1.8 -0.5 1.6 -0.5 1.6 0.9 0 1.9 -2.4 2.9 -2.2 2.5 0.5 -0.2 1.7 -1.1 2.3 -3.5 2.5 -3 0.3 -3.3 0.1 -3.3 -2.2z"/>
  <path d="M35 58.5 c0 -2.8 0.4 -3.5 2 -3.5 2.1 0 2.4 1 1.4 4.8 -1 3.6 -3.4 2.7 -3.4 -1.3z"/>
  <path d="M40 61.3 c0 -0.5 0.5 -1.5 1 -2.3 0.8 -1.2 1 -1.1 1 0.8 0 1.2 -0.4 2.2 -1 2.2 -0.5 0 -1 -0.3 -1 -0.7z"/>
  <path d="M43.7 52.8 c0.8 -2.4 1.6 -6.9 1.6 -10 0.2 -6.1 0.9 -7.1 2.7 -3.9 0.5 1.1 3.3 2.6 6.2 3.5 6.9 2.1 7.7 2.6 8.4 6.4 0.6 2.8 0.4 3.2 -1.5 3.2 -1.5 0 -2.1 -0.6 -2.1 -2.4 0 -2 -0.6 -2.4 -4 -3 -3.1 -0.5 -4 -1.1 -4 -2.6 0 -1.1 -0.4 -2 -1 -2 -0.5 0 -1 1.1 -1 2.5 0 1.3 -0.5 4.7 -1.1 7.5 -0.9 4.3 -1.4 5 -3.4 5 -2.4 0 -2.4 0 -0.8 -4.2z"/>
  <path d="M31 50.5 c0 -0.8 -0.7 -1.5 -1.5 -1.5 -1 0 -1.5 -1.1 -1.5 -3.5 0 -4.6 2.6 -4.8 3.5 -0.2 0.4 1.7 0.9 4 1.1 5 0.3 0.9 0.1 1.7 -0.5 1.7 -0.6 0 -1.1 -0.7 -1.1 -1.5z"/>
  <path d="M34 50.8 c0 -3 1.3 -5.8 2.6 -5.8 0.9 0 1.4 1.2 1.4 3.5 0 2.8 -0.4 3.5 -2 3.5 -1.1 0 -2 -0.6 -2 -1.2z"/>
  <path d="M21.2 41.8 c0.3 -0.7 1.5 -1.8 2.7 -2.4 2 -1 2.7 -3.3 0.9 -2.6 -0.5 0.1 -0.8 -1.2 -0.8 -2.8 0 -1.9 0.5 -3 1.4 -3 1.9 0 5.1 5.1 3.8 5.9 -0.6 0.3 -1.4 1.9 -1.7 3.4 -0.6 2.2 -1.3 2.7 -3.7 2.7 -1.9 0 -2.8 -0.4 -2.6 -1.2z"/>
  <path d="M37 38.5 c0 -1.9 -0.4 -3.5 -1 -3.5 -0.5 0 -1 0.5 -1 1 0 1.9 -2.8 1 -3.3 -1.1 -0.3 -1.2 -1 -1.8 -1.5 -1.5 -0.5 0.3 -1.4 -0.6 -2 -1.9 -1.3 -2.9 -0.6 -3.1 2.8 -0.9 1.8 1.1 1.7 0.9 -0.5 -1.1 l-3 -2.6 3 0.7 c1.7 0.3 4 1.7 5.2 3 2.6 2.9 7.3 3.3 7.3 0.7 0 -1.5 -0.2 -1.5 -0.9 -0.4 -0.6 0.9 -1.6 1.1 -2.7 0.6 -1.8 -0.7 -1.8 -0.8 0.1 -1.6 1.6 -0.8 1.5 -0.8 -0.7 -0.4 -1.6 0.3 -2.8 0.1 -2.8 -0.5 0 -0.5 0.7 -1 1.5 -1 0.9 0 1.2 -0.6 0.9 -1.5 -1 -2.5 1.8 -1.7 4.3 1.1 2.1 2.4 2.1 2.8 0.8 5.5 -0.8 1.5 -1.9 3.1 -2.5 3.4 -0.6 0.4 -0.8 1.1 -0.5 1.6 0.4 0.5 0.1 0.9 -0.5 0.9 -0.7 0 -1 0.7 -0.6 1.5 0.3 0.9 0 1.5 -0.9 1.5 -1 0 -1.5 -1.1 -1.5 -3.5z"/>
  <path d="M62.7 35.9 l-2.8 -3.9 3 0 c2.4 0 3.1 0.4 3.1 2 0 1.1 0.5 2 1 2 1.5 0 1.2 2.7 -0.3 3.3 -0.7 0.2 -2.5 -1.3 -4 -3.4z"/>
  <path d="M29.4 26.3 c-1.7 -0.3 -2 -1.2 -2 -6.3 -0.1 -5.2 0.2 -6 1.8 -6 2 0 2.4 2.4 0.8 6.5 -0.8 2 -0.7 3 0.5 4.1 1.3 1.3 2.1 2.7 1.3 2.3 -0.2 -0.1 -1.2 -0.4 -2.4 -0.6z"/>
  <path d="M58 25.1 c0 -1.4 6.4 -4.1 7.4 -3.1 1.8 1.8 -0.3 4 -3.9 4 -1.9 0 -3.5 -0.4 -3.5 -0.9z"/>
  <path d="M42 21.5 c-1 -1.2 -0.9 -1.6 0.3 -2.1 1.7 -0.6 3.7 0.2 3.7 1.6 0 1.5 -2.9 1.9 -4 0.5z"/>
  <path d="M33.6 21.2 c-0.3 -0.5 0 -1.5 0.7 -2 1.6 -1.4 5.9 -0.4 5.4 1.2 -0.5 1.4 -5.3 2 -6.1 0.8z"/>
  <path d="M55.7 20.4 c-0.4 -0.4 -0.7 -1.5 -0.7 -2.5 0 -1.3 0.5 -1.6 1.7 -1.2 1.3 0.5 1.5 0.2 1.1 -1.5 -0.8 -2.8 0.6 -3.7 2.3 -1.6 1.1 1.3 1 1.7 -0.5 2.6 -0.9 0.5 -2.1 1.9 -2.5 2.9 -0.4 1.1 -1 1.7 -1.4 1.3z"/>
  <path d="M28 12.2 c0 -0.8 5.4 -5.2 6.5 -5.2 1.2 0 0.3 3.4 -1.2 4.6 -2 1.5 -5.3 1.8 -5.3 0.6z"/>
 </g>
 <g fill="#a5a5a5">
  <path d="M35.6 62.1 c-0.5 -3.5 -1 -4.1 -3 -4.1 -2.4 0 -3.6 -2.8 -3.6 -8.6 0 -3.8 2.7 -2.8 3.7 1.4 l1 3.7 0.7 -5.2 c0.4 -2.9 0.5 -5.7 0.2 -6.2 -0.4 -0.5 0.1 -1.4 1 -1.9 1.3 -0.7 1.2 -1.1 -1 -2.6 -1.4 -0.9 -2.6 -2.5 -2.6 -3.6 0 -1.1 -0.7 -2 -1.5 -2 -0.8 0 -1.9 -0.9 -2.5 -2 -1.2 -2.3 0.2 -2.7 2 -0.5 0.7 0.8 1.8 1.5 2.4 1.5 0.6 0 -0.2 -1.2 -1.8 -2.6 l-2.8 -2.5 2.8 0.7 c1.6 0.3 3.8 1.7 4.9 3 2.3 2.7 7 3.2 7.8 1 0.6 -1.6 -1.2 -2.5 -5.1 -2.7 -1.6 -0.1 -2 -0.3 -1 -0.6 0.9 -0.2 1.8 -1.2 2 -2.1 0.2 -1.3 0.8 -1.1 3.1 1.2 2.9 2.9 2.8 4.1 -1.5 9.5 -1 1.3 -1.6 3.2 -1.3 4.2 0.6 1.7 -1.1 5.7 -2.8 7 -1.1 0.8 0.2 5.9 1.5 5.9 0.5 0 0.6 1.9 0.2 4.8 -1 6.9 -2 8.1 -2.8 3.3z"/>
  <path d="M39 63.4 c2.6 -6.9 5 -8.5 5 -3.5 0 4.4 -1 6.1 -3.6 6.1 -2.1 0 -2.3 -0.3 -1.4 -2.6z"/>
  <path d="M18 44.4 c0 -2.2 0.2 -2.5 1.5 -1.4 1.2 1 1.5 1 1.5 -0.4 0 -0.8 1.4 -2.3 3.2 -3.2 2.9 -1.5 3 -1.7 1.4 -3 -1.8 -1.3 -1.5 -5.4 0.4 -5.4 1.4 0 3.4 4.1 3.6 7.3 0.1 2.2 -0.2 2.7 -2.2 2.7 -2 0 -2.4 0.5 -2.4 3 0 2.8 -0.3 3 -3.5 3 -3.1 0 -3.5 -0.3 -3.5 -2.6z"/>
  <path d="M45.6 40.8 c-1 -3.8 -0.7 -4.2 1.4 -2.3 2.3 2.1 2.6 4.5 0.6 4.5 -0.7 0 -1.6 -1 -2 -2.2z"/>
  <path d="M60.8 33 l-2.8 -3.5 2.6 -0.3 c3.3 -0.4 3.6 -0.1 3.2 3.9 l-0.3 3.4 -2.7 -3.5z"/>
  <path d="M57 27.1 c0 -1.2 2.9 -4.1 4.1 -4.1 0.5 0 0.9 1.1 0.9 2.5 0 2 -0.5 2.5 -2.5 2.5 -1.4 0 -2.5 -0.4 -2.5 -0.9z"/>
  <path d="M30.5 26 c-0.3 -0.5 -1.1 -0.7 -1.8 -0.4 -0.9 0.3 -1.2 -1.4 -1.3 -6.1 -0.1 -5.7 0.1 -6.5 1.8 -6.5 2 0 2.3 1.8 0.8 6.9 -0.7 2.6 -0.6 3.7 0.5 4.8 0.8 0.8 1.5 1.6 1.5 1.9 0 0.7 -0.9 0.4 -1.5 -0.6z"/>
  <path d="M36 20.5 c0 -0.9 0.9 -1.5 2.1 -1.5 1.8 0 1.9 0.2 0.9 1.5 -0.7 0.8 -1.6 1.5 -2.1 1.5 -0.5 0 -0.9 -0.7 -0.9 -1.5z"/>
  <path d="M41.7 21.4 c-0.9 -1 0.2 -2.4 1.9 -2.4 0.8 0 1.4 0.7 1.4 1.5 0 1.5 -2.1 2.1 -3.3 0.9z"/>
  <path d="M58 14.5 c0 -0.9 0.5 -1.5 1.1 -1.3 0.6 0.2 1.1 0.8 1.1 1.3 0 0.5 -0.5 1.1 -1.1 1.3 -0.6 0.2 -1.1 -0.4 -1.1 -1.3z"/>
  <path d="M44.5 13.5 c-0.5 -0.2 -2.7 -0.6 -4.7 -1 -2.2 -0.3 -3.8 -1.2 -3.8 -1.9 0 -0.8 1.5 -1.6 3.8 -1.9 2.9 -0.4 4.1 0 5.5 1.5 2.6 3 2.2 4.3 -0.8 3.3z"/>
 </g>
 <g fill="#9c9c9c">
  <path d="M41.3 58.8 c1.9 -4.6 3.7 -4.8 3.7 -0.4 0 3.2 -0.3 3.6 -2.5 3.6 -2.4 0 -2.5 -0.1 -1.2 -3.2z"/>
  <path d="M34.8 56.3 c-0.1 -2.1 -0.1 -4.9 0 -6.3 0 -1.4 0.2 -4 0.3 -5.7 0 -1.8 0.6 -3.3 1.3 -3.3 0.6 -0.1 -0.2 -1.1 -1.8 -2.4 -2.2 -1.9 -2.8 -3 -2.4 -5 0.4 -2 -0.1 -3.2 -2.1 -4.8 -1.7 -1.4 -1.9 -1.9 -0.8 -1.5 1 0.4 2.3 0.7 2.7 0.7 0.5 0 2 1.1 3.2 2.5 1.3 1.4 3.6 2.6 5.1 2.7 3.2 0.3 3.5 1.3 0.7 2.8 -1.1 0.6 -1.8 1.5 -1.5 2.1 0.4 0.5 0.1 0.9 -0.6 0.9 -0.8 0 -0.8 0.4 0.1 1.5 0.9 1.1 0.9 1.9 0.2 2.8 -0.6 0.7 -0.9 3.5 -0.7 6.2 0.6 6.3 -0.3 10.5 -2.1 10.5 -0.9 0 -1.5 -1.3 -1.6 -3.7z"/>
  <path d="M31 49.3 c0 -4.3 0.5 -4.1 1.3 0.5 0.4 1.8 0.2 3.2 -0.3 3.2 -0.6 0 -1 -1.6 -1 -3.7z"/>
  <path d="M45 48.8 c0 -3 1.3 -5.8 2.6 -5.8 0.9 0 1.4 1.2 1.4 3.5 0 2.8 -0.4 3.5 -2 3.5 -1.1 0 -2 -0.6 -2 -1.2z"/>
  <path d="M9 46.7 c0 -2.9 2.9 -5.7 5.9 -5.7 2 0 2.2 0.4 1.9 3.8 -0.3 3.5 -0.5 3.7 -4 4 -3.4 0.3 -3.8 0.1 -3.8 -2.1z"/>
  <path d="M56 45.6 c0 -2.3 0.2 -2.4 3 -1.5 1.7 0.6 3 1.7 3 2.5 0 0.9 -1.1 1.4 -3 1.4 -2.5 0 -3 -0.4 -3 -2.4z"/>
  <path d="M23 41 c0 -0.6 1.1 -1.6 2.5 -2.2 2.4 -1.1 2.4 -1.2 0.6 -2.5 -1.2 -0.8 -1.7 -2 -1.4 -3.2 0.6 -2.2 3.3 -1.7 3.3 0.5 0 0.8 0.4 1.4 0.8 1.4 0.4 0 0.8 1.6 0.9 3.5 0.1 3.3 -0.1 3.5 -3.3 3.5 -1.9 0 -3.4 -0.5 -3.4 -1z"/>
  <path d="M61.5 33.9 c-4.9 -6.9 -5 -7.3 -1.9 -9.8 3.4 -2.7 6.4 -2.8 6.4 -0.1 0 1.3 -0.7 2 -2 2 -1.6 0 -2 0.7 -2 3.5 0 3.1 0.3 3.5 2.5 3.5 2.1 0 2.5 0.5 2.5 3 0 1.7 -0.4 3 -0.9 3 -0.5 0 -2.6 -2.3 -4.6 -5.1z"/>
  <path d="M28 30.9 c-1.1 -1.9 -1 -2 0.9 -0.9 1.2 0.6 2.1 1.5 2.1 2 0 1.8 -1.9 1.1 -3 -1.1z"/>
  <path d="M39 28.9 c-1.9 -0.3 -2.7 -0.7 -1.7 -0.8 0.9 0 1.7 -0.8 1.7 -1.6 0 -0.9 0.6 -1.2 1.5 -0.9 0.8 0.4 1.3 1 1 1.4 -0.3 0.5 0.3 1 1.2 1.2 1 0.2 1.4 0.6 0.8 0.9 -0.5 0.3 -2.6 0.2 -4.5 -0.2z"/>
  <path d="M28.1 18.4 c-1.5 -4.5 -0.3 -8.4 2.4 -8.4 0.8 0 1.5 -0.5 1.5 -1.1 0 -0.8 1.8 -1 6.1 -0.5 6.5 0.6 8.8 2.3 8.8 6.1 0 1.7 -0.1 1.8 -1.2 0.5 -0.7 -0.9 -3.6 -2.1 -6.6 -2.8 -6.6 -1.5 -7.7 -0.7 -8.9 5.9 l-0.9 4.4 -1.2 -4.1z"/>
  <path d="M35.3 21.3 c-2.2 -0.8 -1.4 -2.3 1.3 -2.3 1.5 0 2.4 0.5 2.2 1.2 -0.5 1.4 -1.8 1.8 -3.5 1.1z"/>
 </g>
 <g fill="#949494">
  <path d="M34 63.5 c0 -2.8 0.4 -3.5 2 -3.5 2.1 0 2.4 1 1.4 4.8 -1 3.6 -3.4 2.7 -3.4 -1.3z"/>
  <path d="M38 66.3 c0.1 -0.5 0.7 -1.9 1.5 -3.3 l1.4 -2.5 0.1 3.3 c0 2.2 -0.5 3.2 -1.5 3.2 -0.8 0 -1.5 -0.3 -1.5 -0.7z"/>
  <path d="M42.3 56.8 c1.9 -4.6 3.7 -4.8 3.7 -0.4 0 3.2 -0.3 3.6 -2.5 3.6 -2.4 0 -2.5 -0.1 -1.2 -3.2z"/>
  <path d="M34.6 55.3 c-0.4 -2.1 -0.2 -5.2 0.3 -7 0.5 -1.8 0.7 -4.1 0.4 -5.1 -0.3 -1.3 0.2 -2.1 1.6 -2.5 2.1 -0.5 3.8 1.8 2 2.9 -0.7 0.4 -0.8 2.3 -0.4 5.1 0.8 5.3 -0.2 10.3 -2 10.3 -0.8 0 -1.6 -1.6 -1.9 -3.7z"/>
  <path d="M29 51.6 c0 -4.5 2.6 -5.6 3.4 -1.4 0.9 4.5 0.8 4.8 -1.4 4.8 -1.6 0 -2 -0.7 -2 -3.4z"/>
  <path d="M6.7 51.3 c-2 -1.9 1.9 -8.3 5 -8.3 0.6 0 1.3 -0.9 1.6 -2 0.7 -2.7 1.8 -2.5 5.2 1 l2.9 3 -3.2 0 c-2.7 0 -3.2 0.4 -3.2 2.3 0 1.3 -0.5 2.8 -1.2 3.5 -1.3 1.3 -6 1.6 -7.1 0.5z"/>
  <path d="M58 48.1 c0 -0.5 -1.8 -1.1 -4 -1.5 -3.4 -0.5 -4 -1 -4 -3.1 l0 -2.4 6 2.1 c4.3 1.6 6 2.7 6 4 0 1.1 -0.7 1.8 -2 1.8 -1.1 0 -2 -0.4 -2 -0.9z"/>
  <path d="M21.7 43.3 c-1.4 -1.3 -0.6 -2.4 2.9 -3.9 3.5 -1.5 3.5 -1.5 1.6 -3.2 -1.3 -1.2 -1.7 -2.3 -1.2 -3.7 0.6 -1.8 0.8 -1.7 2.5 0.9 2.5 3.8 2.7 6.6 0.3 6.6 -1.1 0 -1.8 0.7 -1.8 2 0 2 -2.8 2.8 -4.3 1.3z"/>
  <path d="M34.1 38.1 c-0.7 -0.5 -1.4 -2.3 -1.6 -4.2 -0.1 -1.9 -1.1 -4 -2.5 -5.1 -1.2 -1 -1.9 -1.8 -1.6 -1.8 1.5 0 6.2 3 7.8 4.9 1 1.2 3 2.1 4.5 2.1 2.7 0.1 2.7 0.1 0.8 1.5 -1.1 0.8 -2.5 1.9 -3.2 2.5 -1.5 1.2 -2.4 1.2 -4.2 0.1z"/>
  <path d="M62.1 34.5 l-3.2 -4.5 3 0 c2.6 0 3.1 0.4 3.1 2.5 0 1.6 0.6 2.5 1.5 2.5 0.8 0 1.5 0.9 1.5 2 0 3.3 -2.5 2.3 -5.9 -2.5z"/>
  <path d="M28.2 30.9 c-1.2 -1.9 -1.1 -1.9 0.8 -0.9 1.1 0.6 1.8 1.5 1.5 2.1 -0.8 1.2 -0.8 1.2 -2.3 -1.2z"/>
  <path d="M58 26.1 c0 -1 1.9 -2.6 4.3 -3.4 1.3 -0.5 1.7 -0.1 1.7 1.8 0 2.1 -0.5 2.5 -3 2.5 -1.6 0 -3 -0.4 -3 -0.9z"/>
  <path d="M42 20.5 c0 -0.8 0.7 -1.5 1.5 -1.5 0.8 0 1.5 0.7 1.5 1.5 0 0.8 -0.7 1.5 -1.5 1.5 -0.8 0 -1.5 -0.7 -1.5 -1.5z"/>
  <path d="M28.9 20.5 c-2.2 -3.8 -1.8 -6.5 1.3 -10 2.8 -3 3.9 -3.5 7.6 -3.5 3.4 0 4.8 0.6 6.7 2.6 1.4 1.5 2.5 3.6 2.5 4.7 0 1.8 -0.1 1.8 -1.7 -0.2 -1.3 -1.6 -3.3 -2.4 -7.4 -2.8 -6.3 -0.6 -6.6 -0.4 -7.7 5.9 -0.4 2.4 -1 3.9 -1.3 3.3z"/>
  <path d="M34.5 20 c0.3 -0.5 1.5 -1 2.6 -1 1 0 1.9 0.5 1.9 1 0 0.6 -1.2 1 -2.6 1 -1.4 0 -2.3 -0.4 -1.9 -1z"/>
 </g>
 <g fill="#8c8c8c">
  <path d="M34.5 55 c-1 -1.6 0.5 -7 2 -7 1.4 0 2.3 3.4 1.7 6.3 -0.4 1.9 -2.7 2.3 -3.7 0.7z"/>
  <path d="M31 52.5 c0 -1.6 -0.6 -2.5 -1.5 -2.5 -0.8 0 -1.5 -0.8 -1.5 -1.9 0 -1 -0.7 -3.4 -1.5 -5.2 l-1.4 -3.4 -0.1 4.3 c0 4.1 -0.1 4.2 -3.5 4.2 -3.1 0 -3.5 -0.3 -3.5 -2.5 0 -1.4 -0.4 -2.5 -1 -2.5 -0.5 0 -1 1.6 -1 3.5 0 3.4 -0.1 3.5 -3.7 3.5 l-3.7 0 3 -3.2 c2.8 -3.2 2.8 -3.2 0.1 -0.9 -2.5 2.3 -2.7 2.3 -2.7 0.5 0 -1.1 1.3 -3.3 2.9 -4.8 l2.9 -2.7 2.7 2.5 c3.1 2.8 4.7 3.4 3.9 1.2 -0.3 -0.8 0.8 -2 3 -3 2 -0.9 3.6 -2.1 3.6 -2.7 0 -0.6 -0.4 -0.8 -0.9 -0.4 -1.1 0.6 -2.6 -3.4 -1.6 -4.3 0.8 -0.8 3.8 3.3 4.1 5.7 0.2 0.9 0.7 3.4 1.2 5.6 1.9 7.9 2.3 11.5 1.2 11.5 -0.5 0 -1 -1.1 -1 -2.5z"/>
  <path d="M44.3 51.5 c0.6 -1.9 1.6 -3.5 2.4 -3.5 0.8 0 1.3 1.3 1.3 3.5 0 3 -0.3 3.5 -2.4 3.5 -2.3 0 -2.4 -0.2 -1.3 -3.5z"/>
  <path d="M59 50.5 c0 -1.8 -0.5 -2.5 -2 -2.5 -1.1 0 -2 -0.4 -2 -1 0 -0.5 -1.1 -1 -2.4 -1 -4.2 0 -5.6 -1.1 -5.6 -4.1 l0 -2.8 3.3 1.8 c1.7 1 4.9 2.4 7 3.1 3.9 1.2 6.4 4.8 5.3 7.7 -0.9 2.3 -3.6 1.5 -3.6 -1.2z"/>
  <path d="M33.5 36.1 c-0.9 -1.8 -1.4 -3.5 -1.1 -3.9 0.3 -0.3 -0.1 -1.3 -1 -2.3 -1.5 -1.6 -1.4 -1.7 0.6 -1.2 1.2 0.3 2.8 1.6 3.6 2.9 0.9 1.2 2.8 2.4 4.2 2.6 l2.7 0.4 -3 1.4 c-1.6 0.8 -3.3 1.9 -3.6 2.4 -0.4 0.5 -1.5 -0.6 -2.4 -2.3z"/>
  <path d="M61.7 33.7 c-4.5 -6.5 -4.6 -8.2 -0.7 -10.2 3.8 -2 4.7 -1.9 5.3 0.5 0.4 1.5 0 2 -1.4 2 -1 0 -1.9 0.7 -1.9 1.5 0 0.9 1 1.5 2.6 1.5 2.4 0 2.5 0.2 2.2 4.7 -0.2 2.5 -0.8 4.8 -1.4 5 -0.6 0.2 -2.7 -2.1 -4.7 -5z"/>
  <path d="M42.2 20.9 c0.2 -0.6 0.8 -1 1.3 -1 0.5 0 1.1 0.4 1.3 1 0.2 0.6 -0.4 1.1 -1.3 1.1 -0.9 0 -1.5 -0.5 -1.3 -1.1z"/>
  <path d="M35 20 c2 -1.3 4 -1.3 4 0 0 0.6 -1.2 1 -2.7 1 -2.2 0 -2.5 -0.2 -1.3 -1z"/>
  <path d="M27.8 16.8 c-0.4 -2.7 0 -3.8 2.4 -6 3.3 -3.1 5.8 -3.6 5.8 -1.3 0 0.8 -0.8 1.5 -1.8 1.5 -1.9 0 -4.7 4.4 -4.3 6.7 0.1 0.6 -0.3 1.4 -0.8 1.7 -0.5 0.3 -1.1 -0.9 -1.3 -2.6z"/>
  <path d="M38.5 11.8 c-1.9 -1.1 -2 -4.8 0 -4.8 2.3 0 6 2 7.2 4 1.1 1.6 0.8 1.8 -2.2 1.7 -1.9 -0.1 -4.1 -0.5 -5 -0.9z"/>
 </g>
 <g fill="#848484">
  <path d="M34.6 66.4 c-0.3 -0.9 -0.6 -2.9 -0.6 -4.5 0 -2.3 0.4 -2.9 2.1 -2.9 1.9 0 2 0.4 1.5 4.3 l-0.7 4.2 1.9 -3.3 c1.9 -3.5 3.2 -3.3 3.2 0.4 0 3.4 -6.2 4.9 -7.4 1.8z"/>
  <path d="M43.3 54.8 c0.8 -1.8 1.7 -5 2.1 -7 0.4 -2.1 1.1 -3.8 1.6 -3.8 0.6 0 1 -0.9 1 -2 0 -1.7 0.2 -1.8 2.8 -0.5 1.5 0.7 3.9 1.8 5.5 2.4 4.6 1.8 3.3 3.5 -2.3 2.8 -4.8 -0.6 -5 -0.5 -5 1.8 0 1.4 -0.4 2.5 -1 2.5 -0.5 0 -1 1.6 -1 3.5 0 3.1 -0.3 3.5 -2.5 3.5 -2.5 0 -2.5 -0.1 -1.2 -3.2z"/>
  <path d="M31.1 52.3 l0.1 -3.8 1.3 3.5 1.2 3.5 0.9 -4 c0.4 -2.2 0.8 -5.5 0.8 -7.2 0 -2.6 0.4 -3.3 1.9 -3.3 1.5 0 1.8 0.5 1.3 2.3 -0.3 1.2 -0.6 4.6 -0.6 7.5 l0 5.2 -3.5 0 c-3.4 0 -3.5 -0.1 -3.4 -3.7z"/>
  <path d="M5.9 50.4 c-1.1 -1.4 -0.6 -2.3 3.8 -6.5 l5.1 -4.9 3.7 3.3 c3 2.6 3.3 3.3 1.9 3.6 -1 0.2 -2.9 1.6 -4.3 3.2 -2.9 3.3 -8 4 -10.2 1.3z m7.5 -5.1 c0.8 -1.9 0.2 -1.6 -2.5 1.3 -2.3 2.5 -2.3 2.6 -0.2 1.3 1.3 -0.7 2.5 -1.9 2.7 -2.6z"/>
  <path d="M22.5 41 c1 -1.1 2.4 -2 3.1 -2 2.1 0 2.8 -2.2 1 -3.2 -2 -1.1 -2.2 -4 -0.1 -3.2 0.8 0.4 1.5 1.2 1.5 2 0 0.8 0.3 1.4 0.8 1.4 0.4 0 0.8 1.6 0.9 3.5 l0.2 3.5 -4.6 0 c-4.5 0 -4.6 0 -2.8 -2z"/>
  <path d="M65.5 35.3 c0.2 -2.1 0.2 -3.2 -0.1 -2.5 -0.9 2 -3.2 1.4 -5.3 -1.7 -2.9 -4 -2.6 -5.6 1.3 -7.5 1.9 -0.9 3.6 -1.6 3.9 -1.6 1 0 2.9 10.4 2.5 13.4 -0.1 1.6 -0.9 3.1 -1.6 3.4 -0.9 0.3 -1.1 -0.7 -0.7 -3.5z"/>
  <path d="M33.1 34.1 c-0.6 -1 -0.7 -2.1 -0.3 -2.5 0.3 -0.4 0 -1.1 -0.8 -1.6 -0.8 -0.6 -1 -1 -0.4 -1 0.6 0 2.1 1.1 3.4 2.5 1.3 1.4 2.9 2.5 3.7 2.5 0.7 0 1.3 0.5 1.3 1 0 1.8 -5.9 1.1 -6.9 -0.9z"/>
  <path d="M35.5 20 c0.3 -0.5 1.3 -1 2.1 -1 0.8 0 1.2 0.5 0.9 1 -0.3 0.6 -1.3 1 -2.1 1 -0.8 0 -1.2 -0.4 -0.9 -1z"/>
  <path d="M28 15.7 c0 -3 0.5 -4 2.5 -4.9 1.4 -0.6 2.5 -1.5 2.5 -1.9 0 -1.3 5.6 -2 8.3 -1 1.5 0.6 2.7 1.7 2.7 2.5 0 1.7 -2.9 2.5 -5.5 1.5 -4.6 -1.8 -6.4 -1 -8.4 3.4 l-2 4.2 -0.1 -3.8z"/>
 </g>
 <g fill="#7b7b7b">
  <path d="M34 64.2 c0 -3.1 -0.4 -4.2 -1.9 -4.7 -1.5 -0.4 -2.3 -2.1 -3.1 -6.3 -0.6 -3.1 -1.4 -6.5 -1.6 -7.4 -0.6 -2.2 -4.4 -2.4 -4.4 -0.3 0 1 -1 1.5 -3.3 1.5 -3.4 0 -5.8 1.8 -7 5.3 -0.9 2.5 -4.2 2.1 -6.2 -0.9 -1.6 -2.4 -1.6 -2.6 0.2 -4 1 -0.7 2.1 -1.4 2.5 -1.4 0.4 0 0.9 -0.8 1.2 -1.8 0.3 -0.9 1.5 -2.3 2.6 -3 1.8 -1.1 2.5 -0.9 5.7 1.5 2.7 2.1 3.5 2.3 3 1.1 -0.7 -1.8 2.9 -5.2 4.5 -4.2 0.4 0.3 1.1 -0.2 1.5 -1.2 0.4 -1 0 -2 -1 -2.6 -2.1 -1.1 -2.3 -3 -0.3 -2.2 1.6 0.6 3.8 6.9 5.6 15.8 1.4 6.9 2.7 6 3.4 -2.3 0.4 -5.9 0.8 -6.6 3.2 -5.7 1.1 0.4 1.3 1 0.6 1.9 -0.8 1.1 -2.4 23.7 -1.6 23.7 0.2 0 1.2 -2 2.3 -4.5 2.3 -5.3 4.1 -5.8 4.1 -1.2 0 4.6 -1.1 5.8 -5.9 6.4 l-4.1 0.6 0 -4.1z m-21 -17.7 c1.3 -1.4 2.1 -2.7 1.8 -3 -0.2 -0.3 -1.7 0.9 -3.3 2.5 -1.6 1.7 -2.4 3 -1.9 3 0.6 0 2.1 -1.1 3.4 -2.5z"/>
  <path d="M44.7 51.3 c0.8 -2.7 1.2 -6.9 1 -9.6 l-0.4 -4.8 2.9 2.8 c1.6 1.5 5.2 3.4 8 4.3 4.2 1.3 5.3 2 5.9 4.3 0.4 1.6 0.5 3.5 0.2 4.3 -0.8 2.1 -3.3 1.7 -3.3 -0.6 0 -1.1 -0.4 -2 -1 -2 -0.5 0 -1 1.2 -1 2.6 0 2.6 -0.2 2.6 -4.5 2.2 -2.5 -0.3 -4.5 -0.2 -4.5 0.3 0 0.5 -1.1 0.9 -2.4 0.9 l-2.4 0 1.5 -4.7z"/>
  <path d="M34.2 34.8 c-0.7 -0.7 -1.2 -2 -1.2 -2.9 0 -1 -0.6 -2 -1.2 -2.2 -0.9 -0.4 -0.9 -0.6 -0.1 -0.6 0.6 -0.1 2 1 3.1 2.4 1.2 1.5 3 2.5 4.7 2.5 1.5 0 2.4 0.4 2 1 -0.9 1.4 -5.8 1.3 -7.3 -0.2z"/>
  <path d="M28 14.7 c0 -2.3 0.8 -3.1 5 -5.1 2.9 -1.4 5.9 -2.2 7.2 -1.9 2.9 0.7 6.8 4.2 6.8 6.1 0 1.3 -0.3 1.2 -1.8 -0.1 -1 -1 -2.8 -1.7 -4 -1.7 -1.1 0 -3.2 -0.4 -4.5 -0.9 -2.8 -1.1 -4.3 -0.2 -7.1 3.9 l-1.6 2.4 0 -2.7z"/>
 </g>
 <g fill="#737373">
  <path d="M31.8 67.3 c-2.1 -0.5 -2.6 -7.3 -0.5 -7.3 0.7 -0.1 0.5 -0.6 -0.5 -1.4 -1 -0.7 -1.8 -2.4 -1.8 -3.7 0 -2.4 -0.2 -2.5 -6.9 -2.1 l-6.9 0.4 -0.5 -2.8 c-0.4 -2.8 -0.4 -2.8 -0.6 -0.3 0 1.4 -0.9 3.3 -1.9 4.3 -1.8 1.5 -2 1.5 -3.6 -0.3 -1.7 -1.8 -1.6 -2.1 2.8 -6.1 2.5 -2.4 4.6 -4.9 4.6 -5.8 0 -1.3 0.2 -1.3 1.8 0 3.2 2.8 4.4 3.1 4 1.2 -0.2 -1.2 0.6 -2.1 2.7 -2.8 1.7 -0.6 3.3 -1.5 3.6 -2 0.8 -1 2.3 3.6 3.9 11.8 0.8 4.1 1.5 5.5 2.1 4.5 0.7 -1.1 0.9 -1 0.9 0.4 0 1 0.5 1.5 1 1.2 0.6 -0.3 1 -2.3 0.9 -4.3 -0.1 -3.4 -0.2 -3.5 -0.9 -1.2 -0.6 1.7 -0.8 0.6 -0.5 -3.5 0.2 -4.4 0.7 -6.1 1.8 -6.3 0.8 -0.2 1.8 0.2 2.2 0.7 0.3 0.6 0.1 1.1 -0.4 1.1 -0.7 0 -1.1 2.8 -1.1 7.3 0 3.9 -0.3 9.6 -0.6 12.5 -0.7 5.3 -1.1 5.7 -5.6 4.5z"/>
  <path d="M38 67.6 c0 -0.2 1.4 -3.5 3.1 -7.3 1.8 -3.7 3.8 -9 4.5 -11.8 1.1 -4.2 1.3 -4.5 1.1 -1.5 -0.1 2.5 0.2 3.5 1.3 3.5 1.1 0 1.4 -0.9 1.2 -3.5 -0.2 -2.4 0 -3.1 0.7 -2.1 0.5 0.8 2.9 1.4 6.2 1.5 4.9 0.2 5.3 0.4 6 3 0.7 2.4 0.2 3.4 -3.3 7.2 -4.7 5.1 -10.3 8.8 -11.8 7.9 -0.6 -0.4 -1.7 0 -2.3 0.8 -1.1 1.3 -6.7 3.3 -6.7 2.3z"/>
  <path d="M8 47.7 c0 -0.2 1.5 -1.6 3.3 -3.3 l3.2 -2.9 -2.9 3.3 c-2.8 3 -3.6 3.7 -3.6 2.9z"/>
  <path d="M34.5 34.4 c-2.2 -2.2 -1.1 -3 1.5 -1.1 1.2 0.8 1.7 1.8 1.2 2.1 -0.6 0.3 -1.8 -0.1 -2.7 -1z"/>
  <path d="M28 14.2 c0 -0.5 0.7 -1.3 1.6 -1.6 1 -0.4 1.4 -0.1 1.2 0.6 -0.5 1.5 -2.8 2.3 -2.8 1z"/>
  <path d="M45 13.5 c-0.7 -0.8 -1.8 -1.5 -2.5 -1.5 -0.6 0 -1.2 -0.7 -1.2 -1.5 0 -2.3 2.5 -1.8 4.3 1 1.9 2.9 1.4 4.4 -0.6 2z"/>
 </g>
 <g fill="#6b6b6b">
  <path d="M26.2 66.5 c-5.5 -1.7 -8.7 -3.8 -14.1 -9.2 -4.9 -4.9 -5.1 -4 2.3 -12 2.8 -3.1 3 -3.1 5.2 -1.5 l2.2 1.7 -2.1 2.3 -2.2 2.4 3.5 -0.4 c2.7 -0.2 3.6 -0.8 3.8 -2.5 0.4 -2.5 2.2 -3.2 2.2 -0.8 0 0.9 0.6 1.2 1.6 0.8 1.5 -0.6 1.5 -1.2 -0.2 -7.8 -0.4 -1.6 -0.3 -1.7 0.5 -0.5 0.6 0.8 1.6 4.8 2.3 8.9 0.7 4 1.8 7.5 2.5 7.8 0.8 0.3 1.3 2.2 1.3 4.7 0 3 0.3 3.7 1 2.6 0.8 -1.3 1 -1.3 1 0.2 0 5 -2.7 5.9 -10.8 3.3z"/>
  <path d="M38 67.5 c0 -1.7 2.5 -5.3 3.3 -4.8 0.6 0.3 0.7 0.1 0.4 -0.4 -0.4 -0.6 0.2 -3.1 1.3 -5.5 1.2 -2.8 1.7 -3.3 1.4 -1.5 -0.7 3.1 0.1 3.4 2.8 1 1.4 -1.3 2.3 -1.4 4 -0.5 2.3 1 2.2 1.1 -0.9 2.3 -4.3 1.7 -4.2 2.6 0.2 2.1 2.2 -0.3 3.5 0 3.5 0.7 0 0.7 -0.4 1 -0.9 0.7 -0.4 -0.3 -1.6 0.3 -2.6 1.4 -1.9 2.1 -12.5 5.9 -12.5 4.5z"/>
  <path d="M56.6 55 c2.1 -7.1 3.6 -8.8 3.2 -3.5 -0.1 2.5 -1.1 4.9 -2.5 6.5 l-2.3 2.5 1.6 -5.5z"/>
  <path d="M35.8 44.6 c-0.3 -1.6 0 -2.7 0.9 -3 2 -0.8 2.3 -0.8 2.3 0.5 0 0.5 -0.5 0.7 -1.2 0.3 -0.7 -0.5 -0.9 -0.2 -0.6 0.8 0.4 0.8 0.3 2 -0.2 2.7 -0.5 0.9 -0.9 0.5 -1.2 -1.3z"/>
  <path d="M44.7 13 c-0.9 -1.1 -1.3 -2 -0.8 -2 1.1 0 3.5 2.9 2.9 3.5 -0.2 0.2 -1.2 -0.4 -2.1 -1.5z"/>
 </g>
 <g fill="#636363">
  <path d="M31.6 64 c-2.2 -5.6 -1.9 -6.5 0.5 -1.1 1.1 2.4 1.8 4.6 1.5 4.8 -0.2 0.2 -1.1 -1.4 -2 -3.7z"/>
  <path d="M17.2 60.8 c-0.7 -0.7 -1.2 -0.8 -1.2 -0.3 0 0.5 -1.8 -0.8 -3.9 -2.9 l-4 -3.9 4.6 -5.9 c4.4 -5.5 4.7 -5.7 6.4 -4.2 1.8 1.6 1.7 1.8 -1.1 5.1 -1.7 1.8 -3 3.6 -3 3.9 0 0.3 1.1 2.5 2.5 5 2.4 4.2 2.2 5.7 -0.3 3.2z"/>
  <path d="M24 57.4 c0 -1.4 0.3 -1.4 1.5 -0.4 0.8 0.7 1.5 1.4 1.5 1.6 0 0.2 -0.7 0.4 -1.5 0.4 -0.8 0 -1.5 -0.7 -1.5 -1.6z"/>
 </g>
 <g fill="#5a5a5a">
  <path d="M13.2 58.8 c-1.4 -1.4 -1.6 -3.8 -0.3 -3.8 0.8 0 2.3 4.1 1.7 4.7 -0.1 0.1 -0.8 -0.3 -1.4 -0.9z"/>
 </g>
 <g fill="#525252">
 </g>
 <g fill="#4a4a4a">
 </g>
 <g fill="#424242">
 </g>
 <g fill="#3a3a3a">
 </g>
 <g fill="#313131">
 </g>
 <g fill="#292929">
 </g>
 <g fill="#212121">
 </g>
 <g fill="#191919">
 </g>
 <g fill="#101010">
 </g>
 <g fill="#080808">
 </g>
 <g fill="#000000">
 </g>
</svg>