<svg version="1.0" xmlns="http://www.w3.org/2000/svg" width="70" height="69"><path d="M0 54.5C0 41.3.2 40 1.8 40c1.2 0 2.3 1.6 3.5 5 2.2 6.1 10.4 14.9 16.5 17.5 2.3 1 4.2 2.2 4.2 2.7 0 .4.7.8 1.5.8s1.5.7 1.5 1.5c0 1.3-2.3 1.5-14.5 1.5H0V54.5zm41 13c0-.8.7-1.5 1.5-1.5s1.5-.4 1.5-.8c0-.5 1.9-1.7 4.3-2.7 5-2.2 13.8-10.9 15.7-15.6.8-1.9 2-4 2.6-4.6 2.9-3 3.4-1.2 3.4 12.7v14H55.5C43.3 69 41 68.8 41 67.5zm-41-53V0h15c13.6 0 15 .2 15 1.8 0 1.1-1.3 2.1-4.1 3-9 2.8-18.6 12.1-21.1 20.4-.8 2.6-1.7 3.8-3 3.8C.1 29 0 27.9 0 14.5zm66.5 12.2c-.6-.7-1.6-2.5-2.3-4.1C60.8 15 52.1 7.3 44.1 4.8c-2.8-.9-4.1-1.9-4.1-3C40 .2 41.4 0 55 0h15v14c0 10.6-.3 14-1.2 14-.7-.1-1.8-.6-2.3-1.3z" fill="#020202"/><path d="M23 67.3C13.4 64 5.4 56.3 1.9 47c-2.4-6.2-2.4-8-.1-8 1.2 0 2.4 1.8 4 5.9C7 48.1 8 51.2 8 51.9c0 .6.7 1.1 1.5 1.1s1.5.9 1.5 1.9c0 1.3.8 2.1 2.3 2.3 1.4.2 2.3 1.1 2.5 2.6.3 1.7 1 2.2 3.3 2.2 1.6 0 2.9.5 2.9 1 0 .6 1.1 1 2.5 1s2.5.5 2.5 1c0 .6.7 1 1.5 1s1.5.7 1.5 1.5c0 1.9-1.3 1.8-7-.2zm17 .3c0-.9.7-1.6 1.5-1.6s1.5-.4 1.5-1c0-.5 1.1-1 2.5-1s2.5-.4 2.5-1c0-.5 1.3-1 2.9-1 2.3 0 3-.5 3.3-2.2.2-1.5 1.1-2.4 2.6-2.6 1.4-.2 2.2-1 2.2-2.3 0-1 .7-1.9 1.5-1.9s1.5-.7 1.5-1.5c0-1.8 3.1-8.6 4.7-10.2 1.4-1.5 3.3-1.7 3.3-.3 0 .5-.9 3.4-2.1 6.5-3.6 9.6-14.3 18.7-24.6 21-2.6.5-3.3.3-3.3-.9zM0 28.5c0-.8.9-3.9 2.1-7C5.8 11.7 16.8 2.4 27.3.5 30.6-.1 31 0 31 1.8c0 1.7-.8 2.2-4.5 2.8-2.5.3-4.5 1-4.5 1.5s-.7.9-1.5.9-1.5.5-1.5 1c0 .6-.6 1-1.4 1-.8 0-1.6.7-2 1.5-.3.8-1.5 1.5-2.6 1.5-1.3 0-2 .7-2 2 0 1.1-.7 2-1.5 2S8 16.5 8 17.1c0 .7-1 3.8-2.2 7C4.2 28.2 3 30 1.8 30c-1 0-1.8-.7-1.8-1.5zm66.5-.8C65 25.8 62 19.1 62 17.5c0-.8-.7-1.5-1.5-1.5s-1.5-.9-1.5-1.9c0-1.3-.8-2.1-2.2-2.3-1.5-.2-2.4-1.1-2.6-2.5-.3-1.8-1-2.3-3.3-2.3-1.6 0-2.9-.4-2.9-.9s-2-1.2-4.5-1.5C39.8 4 39 3.5 39 1.8c0-1.8.4-1.9 3.7-1.3 10.5 1.9 21.5 11.2 25.2 21 1.2 3.1 2.1 6 2.1 6.5 0 1.4-2.3 1.2-3.5-.3z" fill="#1e1e1e"/><path d="M27.3 68.3C26.4 68 26 64.7 26 57c0-6.2-.4-11.1-1-11.5-1.1-.7-1.3-5.4-.4-7.9.3-.9 1.2-1.6 2-1.6s1.4-.4 1.4-1c0-1.8 6.6-1.1 8.3.8 2 2.2 2.3 7.8.5 8.5-1 .4-1 .6 0 .6.6.1 1.2 1.2 1.2 2.5s.6 2.6 1.4 2.9c1 .4 1.7 2.8 2.2 6.6.4 3.4 1.1 6.1 1.5 6.1 1.6 0 1 4.8-.7 5.4-1.8.7-13.3.7-15.1-.1zM6.8 55.5c-1-1.3-1.8-3.3-1.8-4.4 0-1.7.6-2.1 3.5-2.1 3.5 0 3.5 0 3.5 4.5 0 3.6-.3 4.5-1.7 4.5-1 0-2.6-1.1-3.5-2.5zM61 47.7c0-2-7.4-8.5-10.1-8.9-1.6-.2-2.5-1.1-2.7-2.5-.3-1.9-1-2.3-3.8-2.3-3.2 0-3.4-.2-3.4-3.5s.2-3.5 3.5-3.5c2.8 0 3.5.4 3.5 2s.7 2 3.5 2c2.2 0 3.8.6 4.1 1.5.4.8 1.5 1.5 2.5 1.5 1.1 0 4.2 1.2 7 2.6 4.4 2.2 5 2.8 4.5 4.9C68 47.8 67.1 49 64 49c-1.8 0-3-.5-3-1.3zM7 45.1c0-1.4-.6-1.7-2.6-1.3-1.6.3-3-.1-3.5-.9C-.3 41-.2 36 1 36c.6 0 1-.7 1-1.5 0-1.8 5.1-2.1 8.1-.5 1.6.9 1.9.7 1.9-1.5 0-2.3.4-2.5 4-2.5 3.7 0 4 .2 4.9 3.8.6 2 1.1 5.2 1.1 7 0 3-.2 3.2-3.5 3.2-2.2 0-3.8.6-4.1 1.5-.4.9-1.9 1.5-4 1.5-2.6 0-3.4-.4-3.4-1.9zM21 3.6C21 2.3 23.8 1 26.8 1c.6 0 1.2.9 1.2 2 0 1.6-.7 2-3.5 2-2.3 0-3.5-.5-3.5-1.4z" fill="#323a49"/><g fill="#4c4545"><path d="M24.5 67.6c-6.2-1.9-9.7-4.1-14.4-8.6-7.6-7.4-12.7-22.6-8.6-25.7 1.7-1.2 1.7-1.3.2-1.3-2.2 0-2.2-2.7.3-9.1 2.8-7.4 6.5-12.3 12.3-16.3 14.3-9.8 33.5-8.4 45.5 3.3C66.4 16.3 72.5 31 68.6 31c-1.1 0-1.6-.9-1.6-3 0-2-.5-3-1.5-3-.8 0-1.5-.7-1.5-1.6 0-.8-.7-2.2-1.5-3-.8-.9-1.5-2.3-1.5-3.2 0-1-1-2.2-2.2-2.7-1.3-.6-2.4-2-2.6-3.2-.2-1.4-1-2.3-2.1-2.3-1.4 0-2 1-2.5 3.9-.8 5.1-4.3 7.5-10 6.8-2.2-.3-4.2-1.1-4.4-1.6-.5-1.5-3.2-1.4-3.2.2 0 .6-1.2 2.3-2.5 3.6-1.4 1.3-2.5 2.7-2.5 3.2s-1.1.9-2.5.9c-3.9 0-2.1 2.5 4.1 5.6 5 2.5 5.4 3 5.4 6.2v3.5l-2.7-2.4c-2-1.7-2.3-1.8-1-.3 1 1.2 1.6 3.5 1.6 5.5l-.2 3.4-1-3.7c-1-3.6-3.8-6-4.5-3.9-.6 1.7-.3 2.6.8 2.6.6 0 1 .3 1 .8v2.2c0 .8-.9 1.5-2 1.5s-2-.7-2-1.5-.4-1.5-1-1.5c-.5 0-1-.9-1-2 0-2.8-1.8-2.5-2.6.5-.3 1.4-1.2 2.5-2 2.5s-1.4.5-1.4 1c0 .6-.7 1-1.5 1s-1.5.7-1.5 1.5.9 1.5 2 1.5c1.7 0 2 .7 2 4 0 3.6-.2 4-2.5 4-1.4 0-2.5.5-2.5 1 0 .6.9 1 2 1 3.7 0 15 6.2 15 8.2 0 1.1-1.7.9-6.5-.6zm-7.1-33c-.6-1.5-2.4-2.3-2.4-1.1 0 .8 2.4 3.4 2.8 3 .1-.1 0-1-.4-1.9zM11.2 27c3.7 0 5.8-1 5.8-2.6 0-.8 1-1.4 2.5-1.4 3.1 0 3.3-2.3.5-4.7-1.4-1.2-2-3-2-6 0-3.6-.3-4.3-1.9-4.3-1.4 0-2.1.8-2.3 2.8-.2 1.6-1.2 3.1-2.5 3.7C10 15 9 16.2 9 17.2c0 .9-.7 2.3-1.5 3.2-.8.8-1.5 2.2-1.5 3 0 .9-.4 1.6-1 1.6-.5 0-1 1.4-1 3.2v3.1l2.3-2.1C7.6 28 9.8 27 11.2 27zm29 40.6c.9-.8 1.8-1.9 2-2.3.5-1.2 9.6-5.3 11.8-5.3 1.2 0 2-.8 2.2-2.2.2-1.3 1.3-2.7 2.6-3.3C60 54 61 52.8 61 51.9c0-.9 1.4-3.1 3-4.9 1.9-2 3-4.3 3-6.1 0-2 .5-2.9 1.6-2.9 3.9 0-2.2 14.7-8.8 21.1-4.4 4.3-11.6 8.2-17.7 9.4-3.2.7-3.4.6-1.9-.9z"/><path d="M28.1 51.3c.1-3.3.2-3.5.8-1.3l.7 2.5 1.2-2.2C31.5 49 32.5 48 33 48c.6 0 0 1.6-1.2 3.5-2.9 4.5-3.8 4.4-3.7-.2z"/></g><g fill="#2d4e68"><path d="M28.3 68.3c-1.5-.5-1.8-4.3-.4-4.3.5 0 1.2.7 1.5 1.6.6 1.6.8 1.6 2.4 0 2.1-1.8 4.2-2.2 2.4-.4-1.7 1.7-1.5 2.6.6 3.1.9.3.1.5-1.8.5-1.9 0-4.1-.2-4.7-.5z"/><path d="M38.6 62.3l.3-3.8L37 61c-2.4 3.1-2.6.9-.3-3.1 1.2-2.1 1.4-3.2.6-4-.7-.7-1.9.3-3.9 3.5-1.6 2.5-3.3 4.4-3.9 4.3-1.3-.4-1.9-7.7-.7-7.7.5 0 .7 1.4.4 3-.2 1.7-.2 3 .1 3 1.1 0 5.7-8.2 5.7-10.2-.1-2.3-.1-2.2-2.5.5-2.9 3.2-3.1 2.8-1-1.3 1.6-3.1 1.1-7.9-.9-9.2-.6-.4-.7-1-.3-1.4.4-.4 1.7.1 2.9 1.2 1.9 1.6 2 1.6.9.1-1.8-2.2-.9-3.1 2.4-2.3 2.1.5 2.5 1.2 2.5 4 0 1.9-.6 3.7-1.2 4-1 .5-1 .7 0 1.2.6.3 1.2 2 1.2 3.7 0 4.7 1.1 7.7 2.6 7.7 1 0 1.4 1.3 1.4 4 0 3.5-.3 4-2.3 4-2.1 0-2.3-.4-2.1-3.7zM52 54.5c0-3.3.2-3.5 3.5-3.5s3.5.2 3.5 3.5-.2 3.5-3.5 3.5-3.5-.2-3.5-3.5z"/><path d="M26 47.5c0-2.8.4-3.5 2-3.5 2.1 0 2.4 1 1.4 4.8-1 3.6-3.4 2.7-3.4-1.3zm36 1.1c0-.8-.7-1.6-1.5-2-.8-.3-1.5-1.5-1.5-2.6 0-1.3-.7-2-2-2-1.1 0-2-.4-2-1 0-.5-.6-1-1.4-1-2 0-11.6-5.1-11.6-6.1 0-.5-.7-.9-1.6-.9-1.2 0-1.4-.9-1.2-4.2.3-3.6.7-4.4 2.6-4.6 2.8-.4 11.2 1.9 11.2 3 0 .4.7.8 1.5.8s1.5-.7 1.5-1.5c0-1.1 1.1-1.5 3.9-1.5 4.3 0 5.1 1 5.1 6.4 0 2.6.6 3.5 2.6 4.5 2.2 1 2.5 1.5 1.9 4.4-1.5 7.2-2.8 9.7-5.2 9.7-1.3 0-2.3-.6-2.3-1.4zm3.7-4c-.3-.8-.1-1.7.6-1.9.7-.2-.8-1.4-3.3-2.7l-4.5-2.2 2.8 2.9c1.5 1.6 2.7 3.4 2.7 4.1 0 .7.5 1.2 1.1 1.2.6 0 .9-.6.6-1.4zM2 41c1.9-1.3 3-1.3 3 0 0 .6-1 1-2.2 1-1.9 0-2-.2-.8-1zm17-.9c0-.5-.3-1.7-.7-2.7-.5-1.3-.3-1.6 1-1.1 1.1.4 1.7.1 1.7-.8 0-.8.5-1.5 1-1.5.6 0 1 1.6 1 3.5 0 2.8-.4 3.5-2 3.5-1.1 0-2-.4-2-.9zM0 37.3C0 31.5 1 30 4.6 30c4.7 0 4.5 2.8-.6 6.9l-4 3.2v-2.8z"/></g><path d="M27.8 68.4c-1.6-.5-1.8-1.9-1.8-10.8C26 46 25 44 19.2 44c-3.4 0-4.3-1.4-1.6-2.4 1.1-.4 1.4-1.3 1-3.1-.4-1.5-.2-2.5.4-2.5.6 0 .8.5.4 1.2s-.3.8.4.4c1.5-.9 1.6-4.6.2-4.6-.5 0-1-.7-1-1.5 0-1.1 1.6-.3 5.3 2.5 3 2.2 5.9 4 6.6 4 .6 0 1.4.6 1.7 1.4.3.8 1.2 1.7 2 2 3.7 1.4-2.5-4.5-7.3-7-2.9-1.4-5.3-3-5.3-3.5 0-1.4 2-1.1 3.6.6.9.8 2.4 1.5 3.5 1.5 1 0 1.9.5 1.9 1 0 .6.9 1 2 1s2 .7 2 1.5.7 1.5 1.5 1.5c1 0 1.5 1.1 1.5 3.5 0 1.9-.4 3.5-1 3.5-2.1 0-1 3.9 1.2 4.2 1.6.2 2.5 1.3 3.1 3.8 2.1 8.8 3 14.1 2.3 14.7-.8.9-13.4 1.4-15.8.7zM38 55.3c0-3.1-2.1-1.8-5.5 3.2-2.6 3.9-3.4 6.1-3 7.6.6 1.9 1.2 1.4 4.6-3.7 2.1-3.3 3.9-6.4 3.9-7.1zm.3 9.7c1.2-1.9 1.5-3.5 1-4.5-.7-1.2-1.6-.6-4.1 3-3.1 4.4-3.1 4.5-.9 4.5 1.5 0 2.9-1.1 4-3zm-5.4-9.4c2.8-4 3.3-7.6 1.2-7.6-1.2 0-5.1 7.6-5.1 9.9 0 3 .5 2.7 3.9-2.3zm-1.4-6.5c1.7-3.4 1-8.7-1.3-9.6-2.5-.9-3.8 1.2-1.9 3.3 1.2 1.3 1.5 2.8 1 5.5-.7 4.5.1 4.7 2.2.8zM11.1 59.5C5.3 54 3.3 50.1 5 47.1c.9-1.9.8-2.1-1.5-2.1-3.5 0-3.5-3.7 0-4.6 3.4-.8 6.5 2 6.5 5.8 0 1.7.4 2.7 1 2.3.6-.4.9-.9.6-1.3-.2-.4 0-1.6.5-2.7.5-1.3.8 1 .6 6.3l-.2 8.2h2.8c2.2 0 2.7.4 2.7 2.5 0 3.5-1.4 3.1-6.9-2zm-1.3-5.6c0-2.2-.2-2.9-1-2.1-.5.5-.7 1.9-.3 3.1.9 2.9 1.2 2.6 1.3-1zM52 61.5c0-2.2.4-2.5 3.8-2.5l3.7.1-2.8 2.4c-3.6 3.2-4.7 3.1-4.7 0zm9.7-11.1c-.4-.4-.7-1.7-.7-3s-.8-2.4-2-2.7c-1.1-.3-2-1.2-2-2.1 0-.9-.8-1.6-2-1.6-1.5 0-2-.7-2-2.5 0-1.9.4-2.3 1.8-1.8 3.5 1.3 6.2 3.6 8.3 6.9 2.2 3.6 3.9 4.4 3.9 1.9 0-.8.4-1.5 1-1.5.5 0 .3 1.5-.5 3.3-1.2 3-4.2 4.6-5.8 3.1zM2 35.3c0-3.1.2-3.3 3.7-3.3s3.6 0 1.8 2c-1 1.1-2.1 1.7-2.6 1.5-.4-.3-1.2.3-1.8 1.2-.9 1.5-1 1.3-1.1-1.4zm36-5.2c0-4.9.9-6.1 4.6-6.1 2.8 0 3.4.4 3.4 2.1 0 1.4-.5 1.9-1.5 1.6-2.1-.9-3.1 1.4-1.1 2.5 2.7 1.5 1.8 2.8-1.9 2.8-3.2 0-3.5-.2-3.5-2.9zM17 12c0-1.6-.7-2-3.2-2-3.2 0-3.2 0-1.3-1.9 3.1-3 9.9-6.3 10.4-5 .2.6-.2 1.6-.8 2.2-.6.6-1.1 2.8-1.1 4.9 0 3.1-.4 3.8-2 3.8-1.3 0-2-.7-2-2zm35-3.5c0-.9-.9-1.5-2.5-1.5-2 0-2.5-.5-2.5-2.5 0-2.8 1.1-2.6 7.2 1.1 5.2 3.3 5.5 4.4 1.4 4.4-2.5 0-3.6-.4-3.6-1.5z" fill="#505665"/><g fill="#7a5249"><path d="M11.5 57.5c-.3-1.4-.7-3.7-1-5.1-.3-1.4-.2-3.1.4-3.7 1-1.3 1.1-1.7 1.1-4.3 0-1 .6-1.4 1.5-1 .8.3 1.5.2 1.5-.3s.9-1.1 2-1.4c1.7-.4 2 0 2 2.4 0 2.2-.5 2.9-2 2.9-2.9 0-2.5 2.7.5 3.4 2.2.6 2.5 1.2 2.5 5.1V60h-4c-3.4 0-4-.3-4.5-2.5zM8 45.9c0-1.7.4-2.8 1-2.4.6.3 1 1.7 1 3.1 0 1.3-.4 2.4-1 2.4-.5 0-1-1.4-1-3.1zm23.8-6.7c2.3-.7 1.2-1.9-4.3-4.7-4.3-2.1-5.7-3.4-6.4-5.9-.9-2.9-.9-2.9-1-.5-.1 1.4.4 3 1.1 3.7.9.9.8 1.2-.4 1.2-1.9 0-2.5-3.7-2.7-14.7 0-5.8.3-7.3 1.4-7.3.8 0 1.5.6 1.5 1.3 0 .7.9 2 2 3 1.2 1 2 2.9 2 4.9v3.2l1.7-2.4c.9-1.4 2.3-2.9 3-3.3.7-.4 1.3-1.4 1.3-2.1 0-2.7 2.6-3.8 5.6-2.4 1.6.7 3.1 1.5 3.4 1.9 1.6 1.8 4.1 1.6 6.5-.7 1.4-1.3 2.8-2.4 3.1-2.4.2 0 .4 1.6.4 3.5 0 3.6-.2 3.8-7 4.8-2.4.4-2.4.4.3.6 2.4.1 2.7.5 2.7 3.7 0 3.1-.3 3.5-2 2.9-2.1-.7-2.3-.1-2 4.7.1 1.4-.5 3-1.3 3.5-.7.4-1.6 1.6-2 2.5-.4 1.3-1.6 1.7-4.4 1.6-2.1-.1-3.2-.3-2.5-.6z"/><path d="M24.4 36.5c-3.6-3.4-2.3-4.4 1.6-1.2 1.6 1.4 2.6 2.8 2.1 3.2-.5.3-2.2-.6-3.7-2z"/></g><path d="M38 65.5c1.4-2.3 1.9-4.2 1.5-5.6-.7-1.9-1-1.7-3.7 2.5-1.7 2.6-3.3 4.4-3.6 4.2-.2-.3 1-2.7 2.7-5.4 1.7-2.7 3.1-5.4 3.1-6 0-.7.7-1.2 1.5-1.2 1 0 1.5 1 1.5 3 0 1.7.5 3 1 3 .6 0 1 1.6 1 3.5s-.4 3.5-1 3.5c-.5 0-1-.6-1-1.2-.1-.7-.9-.3-1.9 1-2.9 3.4-3.5 2.6-1.1-1.3zM52 59c0-3.8-.4-5-1.5-5S49 52.8 49 49.5c0-4.5 0-4.5 3.5-4.5 3.3 0 3.5.2 3.5 3.5 0 2.4.5 3.5 1.5 3.5 1.1 0 1.5 1.1 1.5 3.9 0 3.2-.5 4.3-2.9 6-1.6 1.2-3.2 2.1-3.5 2.1-.3 0-.6-2.2-.6-5zm-16.4-7.1c.8-1.3-.9-4-2.2-3.5-.8.3-1.1 0-.7-1 .3-.8 1.8-1.4 3.4-1.4 2.6 0 2.9.3 2.9 3.4 0 2.8-.4 3.4-1.9 3.3-1.1 0-1.8-.4-1.5-.8zm27.5-4.6c0-3.5.1-3.6 1-1.4 1.1 2.8 2.4 2 3.4-2 .7-3 .1-3.6-8-7.7-3.3-1.7-6.9-3.9-8-4.9-3-2.7-8.7-4.6-9.6-3.1-.8 1.2 1.2 2.5 11.9 8C57.2 38 60 39.7 60 40c0 .3-2.2.3-5 .2-4.1-.3-5-.7-5-2.3 0-1.5-.7-1.9-3.5-1.9-1.9 0-3.5-.4-3.5-1 0-.5-.7-1-1.5-1-1.2 0-1.5-1.3-1.5-5.6v-5.6l4.3.7c2.3.4 7.9.6 12.5.6 6.8-.2 8.2.1 8.2 1.4 0 .8.9 1.5 2 1.5 2.6 0 3.4 3.5 2.7 10.9-.8 6.9-3.2 13.1-5.2 13.1-1.1 0-1.5-1.1-1.4-3.7zm-1.8-15.9C62 30.6 61 28 60 28c-.4 0-1 .9-1.3 2-.5 1.9 1.2 2.8 2.6 1.4zM32.2 42.2c-.9-2.7-.5-3.7 2.6-5.6.8-.5 1.2.1 1.2 2 0 2.2-.2 2.5-1.5 1.4-1.1-.9-1.5-.9-1.5-.1 0 .6.7 1.4 1.5 1.7 1.9.8 2 3.4.1 3.4-.8 0-1.8-1.2-2.4-2.8zM.1 34.8L0 29h4.6c4.1 0 4.5.2 4.2 2.2-.2 1.2-1.4 2.8-2.7 3.4-1.3.7-2.8 1.8-3.2 2.6-.7 1-.9 1-1-.2 0-.8-.5-.4-.9 1-.6 1.9-.8 1.1-.9-3.2zm13.7-15.1c-2-1.6-2.8-3.2-2.8-5.5 0-3.1.1-3.2 4.6-3.2 3.7 0 4.7.4 5.1 2 .3 1.1.8 2 1.2 2 .4 0 .7 1.6.8 3.5.1 3.3-.1 3.5-3 3.5-1.8-.1-4.4-1.1-5.9-2.3z" fill="#3b6283"/><path d="M11 55.9c0-3.3 1.9-5.9 4.4-5.9.9 0 1.6-.7 1.6-1.5s-.9-1.5-2-1.5-2-.7-2-1.5.7-1.5 1.6-1.5c.8 0 1.3-.4 1-.8-.3-.4.8-1.3 2.5-1.9 2.8-1.1 2.9-1 2.9 1.8 0 1.9.5 2.9 1.5 2.9 1.1 0 1.5 1.2 1.5 4.5 0 3.6-.3 4.5-1.8 4.5-1 0-2.4.9-3.2 2-.9 1.3-2.6 2-4.7 2-3 0-3.3-.3-3.3-3.1zm6-.3c0-1.5-1.8-3.1-2.6-2.3-.7.7.7 3.7 1.7 3.7.5 0 .9-.6.9-1.4zm16-17.2c0-.4.8-1.3 1.7-2 1-.7 1.4-1.6.9-2.1-.5-.4-1.1-.2-1.3.5-.6 1.7-2.3 1.5-2.3-.3 0-1.4 1.7-2 4.7-1.6.6.1 1.4-.3 1.7-.8.7-1.1-2.5-2.5-3.3-1.3-1.9 2.8-7.4 1.5-6.4-1.5.7-1.9-1.4-2.4-3.1-.7-2.2 2.1-5 1-4.3-1.6.3-1.3 0-2-.9-2-.8 0-1.4-.9-1.4-1.9 0-1.1-.3-2.7-.7-3.7-.4-1.2-.3-1.5.5-1s1.2 0 1.2-1.3c0-1.2-.4-2.1-1-2.1-.5 0-1-.7-1-1.5s.7-1.5 1.5-1.5 1.5.5 1.5 1c0 .6.9 1.9 2 3s2 3.1 2 4.5c0 3 1.6 3.3 2.5.6.3-1.1 1.5-2.3 2.6-2.6 1-.4 1.9-1.5 1.9-2.5 0-3 1.7-3.3 5.9-.9 2.3 1.2 4.8 1.9 6 1.6 1.7-.4 2.1-.1 2.1 2 0 2.5-.2 2.6-5 2-2.9-.4-5-.2-5 .3 0 .6 2 1 4.5 1 4.2 0 4.5.2 4.5 2.6 0 1.4-.4 2.3-.9 1.9-1.3-.8-2.7 2.1-3.6 7.2-.5 3.1-1.2 4.3-2.8 4.7-2.9.8-4.7.7-4.7 0zm5.3-14.5C37 22.7 32 21.7 32 22.7c0 1.8 2.2 3 4.6 2.5 1.4-.2 2.2-.8 1.7-1.3z" fill="#9a5d4e"/><g fill="#686c79"><path d="M14.4 62.1c-5.4-4-7.9-6.8-10.8-12.7-3.5-7-3.4-8 .9-7.9 5.1 0 7.4 4.7 4 8.1-1.9 1.9-1.9 3.5 0 6 1.3 1.8 1.4 1.6 1.5-2.3 0-2.4.4-4.3.9-4.3s1.2-1.2 1.4-2.7c.3-2 .4-1.6.6 1.4 0 2.5-.4 4.4-1.1 4.7-1 .5-1 .7 0 1.2.6.3 1.2 2 1.3 3.7 0 1.8.3 2.6.6 2 .2-.7 2-1.3 3.9-1.3 3.2 0 3.4.2 3.4 3.5 0 4.3-1.4 4.5-6.6.6zm38.6-1c0-2.9.2-3.1 3.5-3.1s3.5-.2 3.5-3.5c0-2.4.5-3.5 1.5-3.5.8 0 1.5-.7 1.5-1.5s-.7-1.5-1.5-1.5c-.9 0-1.5-.9-1.5-2.5 0-1.8-.5-2.5-2-2.5s-2-.7-2-2.5c0-1.4.4-2.5.9-2.5 1.4 0 7.1 6.2 7.1 7.7 0 .7.7 1.6 1.6 2.1 1.4.8 1.3 1.3-.9 4.8-2.3 3.6-5.6 7-9.9 10.3-1.6 1.2-1.8 1-1.8-1.8z"/><path d="M25 53.1c0-8.3-.3-10.1-1.5-10.1-.8 0-1.5.5-1.5 1 0 .6-1.7 1-3.7.9-3.1 0-3.4-.2-1.8-.9l2-.9-2-.1c-1.7-.1-1.7-.3.5-1.1 1.4-.6 2.9-1.7 3.3-2.5.5-.9 1.8-1.2 3.3-1 2.3.4 2.4.3 1.2-1.2-2.4-3.1-3.6-4.2-4.7-4.2-.6 0-1.1-.8-1.1-1.8 0-2.7-6.8-1.7-10.2 1.6-2.2 2-2.8 2.2-2.8 1 0-.9-.8-1.9-1.7-2.1-1.7-.4-1.7-.5 0-.6.9 0 1.7-.8 1.7-1.6 0-2 2.6-3.1 9.1-3.9l5.6-.7-.5 2.9c-.3 2.6.2 3.4 4.2 6.4 4.1 3.2 4.4 3.7 3.1 5.4-1.1 1.6-1.1 2.1.1 3.5 1.1 1.2 1.5 4.1 1.5 10v8.3l2.7-4.2c1.5-2.3 3.1-4.2 3.5-4.2 1.9 0-6 9.5-8.1 9.8-2.1.3-2.2.1-2.2-9.7zm14.7 8.2c-.2-1-.8-2.6-1.2-3.5-.6-1.5-.2-1.8 1.9-1.8 2.3 0 2.6.4 2.6 3.5 0 3.7-2.3 5-3.3 1.8zM42 44.6c0-3.2.2-3.4 4.6-4 8.1-1.1 8.4-1 8.4 2.8 0 3.2-.2 3.4-4.6 4-8.1 1.1-8.4 1-8.4-2.8zm25.4-2.5c0-3.3.4-4.8 1.3-4.8 1 0 1.2 1 .7 3.6-1.1 5.8-1.9 6.3-2 1.2zM33 43.5c0-1.9.4-2.3 1.8-1.8 1.5.6 1.5.4-.2-1.5-1.9-2.2-1.9-2.3 0-3.6 1.7-1.3 1.9-1.3 2.2.5.2 1 1 1.9 1.8 1.9.9 0 1.4 1.1 1.4 3.5 0 3.3-.2 3.5-3.5 3.5-3.1 0-3.5-.3-3.5-2.5zm34-13.2c0-1.3-.4-2.3-1-2.3-.5 0-1-1.1-1-2.5s-.4-2.5-1-2.5c-.5 0-1-1.1-1-2.5 0-1.6-.6-2.5-1.5-2.5-1 0-1.5-1.1-1.5-3.5 0-3.3-.2-3.5-3.5-3.5-1.9 0-3.5-.4-3.5-1 0-.5-.7-1-1.5-1s-1.5-.8-1.6-1.7c0-1.7-.1-1.7-.7-.1-.6 1.5-1.3 1.2-4.6-2.2-4.7-4.8-3-5.3 5.1-1.6 10.2 4.8 18.1 14.9 19.6 25.1.4 2.2.4 3.4 0 2.6-.5-1.1-.7-1.1-1.4 0-.6 1-.9.8-.9-.8z"/><path d="M21.3 28.4c-.3-.8-.1-2 .6-2.7.8-.8 1.1-.6 1.1 1 0 1.2.6 2.4 1.3 2.6.7.3.5.6-.6.6-1 .1-2-.6-2.4-1.5zM1 26.4c0-3.2 5.5-12.6 9.6-16.4C17.4 3.7 27.5-.6 22.5 5c-2 2.2-2.3 8.9-.6 13.3.6 1.5.7 2.7.3 2.7-.4 0 0 .5.8 1 1.1.7.5 1-2.2 1-3.6 0-3.8-.2-3.8-3.1 0-2.7.2-3 1.5-1.9 1.3 1 1.5.9 1.5-.9 0-1.2-.6-2.1-1.5-2.1-.8 0-1.5-.9-1.5-2 0-1.6-.7-2-3.5-2-3.3 0-3.5.2-3.5 3.5 0 2.4-.5 3.5-1.5 3.5-.9 0-1.5.9-1.5 2.5 0 1.4-.4 2.5-1 2.5-.5 0-1 1.1-1 2.5 0 1.8-.5 2.5-2 2.5-1.1 0-2-.7-2-1.6z"/></g><g fill="#8e6964"><path d="M15.8 63.2c-3.9-2.4-3.6-4.2.7-4.2 3.2 0 3.5.2 3.5 3 0 3.4-.4 3.5-4.2 1.2zM10 51c0-1.1.5-2 1-2 .6 0 1-1.2 1-2.7 0-2.2.2-2.5 1-1.3.5.8 1 3 1 4.8 0 2.5-.4 3.2-2 3.2-1.3 0-2-.7-2-2zm-4-3.3c0-2 .5-3.7 1-3.7.6 0 1 .6 1 1.4 0 .8.4 1.6.9 1.8.4.2 0 1.2-1 2.2C6 51.3 6 51.3 6 47.7zm28-8.8c0-.6 1.2-2.5 2.6-4.4 2.4-3.1 2.4-3.4.7-4.4-1.2-.7-1.3-1-.4-1.1.8 0 1.1-.7.8-2-.3-1 0-2.1.7-2.3.6-.2-.6-1.1-2.6-2-5.6-2.4-4.9-4.1 1.2-3.4 3 .4 5 .2 5-.4 0-.5 1.1-1.4 2.5-2.1 3.3-1.5 4.8-5.9 2.9-8.7C46 6.1 46 6 48.9 6c3 0 3.1.1 3.1 4.5 0 3.3-.4 4.5-1.5 4.5-.9 0-1.5.9-1.5 2.5 0 1.4-.4 2.5-1 2.5-.5 0-1 1.6-1 3.6 0 3.1-.3 3.6-2 3.1-3.1-.8-4.5 2.5-1.7 4 1.8 1 1.9 1.2.5 1.3-1 0-1.8.7-1.8 1.5 0 2.9-3.1 6.5-5.6 6.5-1.3 0-2.4-.5-2.4-1.1zm-15-8.3c-1.9-5.1-1.3-7 2.5-8.2 2.5-.8 3.6-.8 3.9 0 .3.7.9.4 1.6-.6 1.8-2.8 3-2.1 3 1.7 0 2.3-.5 3.5-1.2 3.4-3.4-.4-4.7.2-4.1 1.7.4 1.2.1 1.5-1.3 1.2-1.3-.2-1.9-1.2-1.8-2.7.1-2.2 0-2.3-1.2-.6-1 1.3-1 2.3-.3 3.7.6 1.1.8 2.2.5 2.5-.3.3-1-.6-1.6-2.1z"/><path d="M32.3 31.3c-2.1-.7-1.5-3.3.7-3.3 1.1 0 2 .6 2 1.4 0 1.8-1.1 2.5-2.7 1.9zM17 18.8c0-2 .1-2 1.9-.4 1.8 1.6 1.8 1.6 1.4-.9-.3-1.4-1.2-2.5-1.9-2.5-.8 0-1.4-1-1.4-2.5 0-4.6 2.6-2.7 4.2 3l1.5 5.5h-2.8c-2.3 0-2.9-.4-2.9-2.2z"/></g><path d="M31 68.5c0-.6 1.6-3.4 3.5-6.2 3.3-5 4.3-8.2 2.9-9.6-.4-.4-2.3 1.7-4.3 4.5-3.8 5.4-6.1 7.1-6.1 4.4 0-.9-.4-1.6-1-1.6s-1-2.9-1-6.6c0-7-1.2-9.4-4.9-9.4-2.6 0-2.6-.6-.3-3.3 1.2-1.6 2.6-2.1 4.6-1.9 2.6.3 2.8.2 1.7-1.2-1.2-1.4-1.1-1.6.3-1 1.8.7 2 1.3.6 3.4-.6 1-.5 2 .4 3s1.3 4.3 1.3 9.3c0 4.2.2 7.9.4 8.2.3.2 2-1.8 3.8-4.6 3.1-4.8 3.6-8.7.8-7.6-.8.3-1.1-.6-1-3.2.1-2 .2-3.7.2-3.9.1-.1 1.1.3 2.4.9 2.1 1.2 2.1 1.1.5-.8-2.2-2.5-2.3-3.9-.2-4.7 2.5-1 2.9 0 2.9 6.5-.1 3.9.3 5.9 1.1 5.9 1.3 0 2.4 3.2 2.4 7.3 0 2.2-.4 2.8-1.7 2.5-1.3-.3-3 1.3-5.5 5.2-2.1 3-3.8 5-3.8 4.5zm21-7.9c0-2.1-.6-3.6-1.5-4-.9-.3-1.5-1.8-1.5-3.6 0-2.7-.3-3-3.4-3s-3.4-.3-4-3.7c-.3-2.1-.6-6.1-.6-9 0-6.4 1.5-7 8.3-3.1 2.6 1.5 5.2 2.8 5.8 2.8.6 0 .7.5.4 1-.3.6-1.9 1-3.6 1-1.6 0-2.9.5-2.9 1 0 .6 1.3 1 3 1 2.4 0 3.1.5 3.6 2.8.4 1.5 1.1 3 1.6 3.3.5.3 1.3 3 1.7 6 1 5.8 0 8.4-2.8 7.4-.8-.3-1.2-.3-.8.1.8.8-1.1 3.4-2.4 3.4-.5 0-.9-1.5-.9-3.4zM5.1 52.3C3.9 50 4.8 43 6.4 42.7c1.6-.3 2.2 4.7 1 8.2-1.1 3.3-1.2 3.4-2.3 1.4zm63-10c-.1-1.7-1.9-3.2-7.7-6.4-4.4-2.5-7.9-5-8.2-6.1-.3-1.3-1.1-1.8-2.2-1.5-.9.2-2.8-.1-4.1-.9-1.7-.9-2.8-.9-3.6-.2-.9.7-1.3.7-1.3 0 0-2.6 3.5-3.5 13.6-3.8 5.7-.1 10.4.2 10.4.7 0 .5.9.9 1.9.9 1.6 0 2.1 1 2.6 5.3.4 3 .2 7.3-.3 9.8-.5 2.4-1 3.4-1.1 2.2zm.6-10.5c-.2-1.3-.4-.3-.4 2.2s.2 3.5.4 2.3c.2-1.3.2-3.3 0-4.5zM62 29.9c0-2.4-.4-3-1.7-2.7-1.1.2-1.9 1.4-2.1 3.1-.3 2.2.1 2.7 1.7 2.7 1.7 0 2.1-.6 2.1-3.1zM.2 33.5l.3-5 4.8-.3c5.1-.3 6 .8 3.1 4.4-1.1 1.3-1.7 1.5-2 .7-1-2.3-3.1-1.4-4.8 2L0 38.5l.2-5zm11.6-14.2C9.3 17.6 8 16 8 14.4 8 13 9.4 11 11.8 9.1L15.5 6l.7 2.2c.6 2.1.6 2.1.7-.4.1-2 .9-3.2 3.1-4.3 3.8-2 4.7-1.9 2.7.3-.9 1-2 4-2.3 6.6-.7 4.6-.7 4.7-3.8 4-1.8-.3-2.7-.2-2.1.3 5.1 4.4 6.7 5.6 6.1 4.6-.3-.6-.2-1.4.4-1.8.6-.4 1 .5 1 1.9 0 2.3-.4 2.6-3.2 2.5-1.8 0-5-1.2-7-2.6z" fill="#567792"/><path d="M10 54.1c0-2.2.5-4.3 1-4.6.6-.3 1-1.7 1-3.1 0-2 .5-2.4 3.3-2.5 2.7 0 2.9-.2 1.2-.9-2-.9-2-.9 0-.9 1.2-.1 2.6-.6 3.3-1.3.9-.9 1.2-.6 1.2 1.5 0 1.8.5 2.7 1.6 2.7 1.4 0 1.6.8 1.1 4.5-.5 5.3-.4 5-3.9 5.9-2.1.5-2.8.3-2.8-.9 0-.8-.7-1.5-1.6-1.5-1.2 0-1.5.6-1 2.5.6 2.2.3 2.5-1.9 2.5-2.2 0-2.5-.4-2.5-3.9zm28.6-21.6c.4-.8-.1-1.7-1-2.1-.9-.3-1.3-1-1-1.5.3-.5 0-.9-.5-.9-.6 0-1.1.7-1.1 1.5 0 2.1-3.8 1.9-4.2-.2-.2-1.1-2.5-2.5-6.3-3.8-4.9-1.6-6.1-2.5-6.3-4.4-.3-1.9 0-2.2 1.3-1.8.9.4 1.3.3 1-.2-.3-.5-.1-1.2.5-1.6.9-.6 1.5 1.6 1.1 3.9-.1.5.5.6 1.4.3.9-.4 1.5-.1 1.5.8 0 2.2 1.7 1.8 2.3-.6.3-1.1 1.5-2.3 2.6-2.6 1.2-.3 2.1-1.4 2.1-2.4 0-2.8 1.6-3.1 6.2-1 3 1.3 4.9 1.6 6.5 1 2-.7 2.3-.5 2.3 1.6 0 1.4-.4 2.5-1 2.5-1.3 0-5 3.2-5 4.3 0 .5.7.4 1.5-.3s1.5-.8 1.5-.2c0 .5-.7 1.5-1.5 2.2-.9.8-1.2 2.2-.8 4.1.5 2.5.2 2.9-1.5 2.9-1.5 0-2-.5-1.6-1.5zM38 25c1.2-.7.7-1.2-2.4-2.5-4.8-2-6.1-1.6-4.1 1.3 1.7 2.3 4 2.8 6.5 1.2z" fill="#b16652"/><g fill="#c0755b"><path d="M17.6 64.2c-.4-.7-.4-1.8 0-2.4.6-1 .5-1-.8 0-1.2 1-2 .8-4.2-.9C10.2 59 9 55 10.8 55c.4 0 .9-1.1 1-2.6.1-1.7-.2-2.3-1.1-1.8-.9.5-.9.4.1-.7.6-.7 1.2-2.3 1.2-3.6 0-1.8.6-2.3 2.6-2.3 1.5 0 3.3-.8 4.1-1.7 1.3-1.6 1.4-1.5 1 1.5-.3 2.5 0 3.2 1.4 3.2 3.4 0 4.1 7.6.9 10.5-1.1 1-2.4 3.2-2.8 4.9-.5 2-1.1 2.6-1.6 1.8zm-.8-9.4c-.4-2.7-2.8-3.6-2.8-1 0 2 .8 3.2 2.2 3.2.5 0 .8-1 .6-2.2zM21 50c0-1.1-.4-2-.8-2s-.8.9-.8 2 .4 2 .8 2 .8-.9.8-2zm17.6-17.4c.6-1.6-1.2-5.6-2.5-5.6-.5 0-1.1.9-1.4 2-.6 2.3-2.7 2.7-2.7.6 0-.7-.7-1.9-1.5-2.6-.8-.7-1.5-2.2-1.5-3.3v-2l2.3 2c3.1 2.9 7.7 3.6 7.7 1.2 0-1.1-1-2-3-2.4-2.5-.6-3-1.1-3-3.6 0-3.7 1.9-4.5 5.9-2.5 3.9 2.1 4.7 2 7.1-.4 2-2 2-2 2 1.5 0 2.2-.6 3.8-1.5 4.1-.8.4-1.5 1.3-1.5 2.1s-1 2.4-2.2 3.5c-1.6 1.3-1.9 2.1-1 2.4.6.3 1.2 1.4 1.2 2.5 0 1.4-.7 1.9-2.5 1.9-1.7 0-2.3-.4-1.9-1.4zm4.4-8.1c1.4-1.6 1-1.8-1.4-.9-.9.3-1.6 1-1.6 1.5 0 1.4 1.6 1.1 3-.6zm-24.4 5.3c-.9-3.6-.7-4.8.9-4.8 1.2 0 1.4.4.6 1.7-.6 1.1-.6 2.4 0 3.5s.6 1.8.1 1.8c-.6 0-1.2-1-1.6-2.2z"/><path d="M21.6 29.3c-1-1-.7-2 1-3.7 1.4-1.5 1.3-1.6-1.5-1.6-2.6 0-3.1-.4-3.1-2.4 0-1.3.8-2.7 1.7-3 1-.4 1.4-.4 1.1 0-.7.6 1.5 3.4 2.7 3.4.3 0 1.5.9 2.7 2l2.2 2h-2.2c-1.3 0-2.2.6-2.2 1.4 0 1.7-1.4 2.8-2.4 1.9z"/></g><path d="M37.9 66.1c2.2-3.1 2.7-6.6 1.1-7.6-.5-.3-1-.3-1 .2-.1.4-1.2 2.2-2.7 3.8l-2.6 3 1.8-3c1-1.6 2.4-3.8 3.1-4.9.7-1 1-2.5.7-3.2-.3-.9.2-1.4 1.5-1.4 2.4 0 3.2 1.8 3.2 7.1 0 2.1.5 3.9 1 3.9.6 0 1 .9 1 2 0 2.6-4 2.8-4 .3-.1-1.5-.3-1.5-1.9.5-2.8 3.2-3.6 2.7-1.2-.7zM17.5 64c-.3-.5-.3-1.6.1-2.2.6-1 .5-1-.7-.1-1.2 1-1.5.8-1.7-1.3-.2-2.2.2-2.4 3.8-2.4 3.9 0 4 .1 4 3.5 0 3-.3 3.5-2.4 3.5-1.4 0-2.8-.4-3.1-1zm7.5-5c0-4.3.3-5 1.9-5 1.6 0 1.9.6 1.8 3.3-.1 2.1.3 3.1 1.1 2.9 1-.2 1 .2 0 1.8-.7 1.1-2.1 2-3 2-1.5 0-1.8-.9-1.8-5zm26.5 1c-.8-1.6-1.5-4.4-1.5-6.2 0-3.3-.1-3.3-3.9-3l-4 .4-.7-6.1c-.6-5.9-.8-6.1-3.5-6.1-3.5 0-3.5-.2-.4-4.8 1.4-2 2.5-4.3 2.5-5 0-.7.9-2.3 2.1-3.5 1.8-2 3-2.2 13.9-2.4 10.9-.1 12 0 12.5 1.8.4 1 .3 2.4-.1 3-.4.7-.8 3-1 5.2-.2 2.2-.6 4.2-.8 4.4-.2.3-1.9-.3-3.7-1.2-2.8-1.5-3-1.9-1.6-2.7 2.3-1.2 2-7.8-.3-7.8-2 0-4.1 3.4-3.5 5.7.5 2.2.4 2.3-1.5 1.3-1.2-.6-2.5-2.2-3-3.6-.8-1.9-1.5-2.4-3-1.9-1 .3-2.9.1-4.1-.5-1.7-1-2.4-.9-3.8.5-1.2 1.3-1.3 1.9-.3 2.2 2.5.9 7.2 5.5 7.2 7 0 1.2.8 1.4 3.5 1 2.8-.5 4.1-.1 6.3 1.8l2.7 2.4-2.7.1c-3.3 0-3.4.4-.8 3.2 1.3 1.4 2 3.6 2 5.9 0 2.1.6 3.9 1.3 4.2.8.3.4 1.3-1.2 3.1-1.9 2-2.7 2.3-3.8 1.5-1-.9-1.3-.7-1.3 1 0 3-1.7 2.6-3.5-.9zm3.5-9.3c0-.5-.4-.6-.9-.2-.5.3-1.2-.7-1.4-2.2-.3-2.4-.4-2.3-.6.8 0 2 .2 3.9.6 4.2.7.7 2.3-1.1 2.3-2.6zm-9.6-10.1c-.4-3.1-.9-5.4-1.2-5.2-.2.3-.1 3 .3 6.1.3 3.1.9 5.5 1.1 5.2.3-.2.2-3-.2-6.1zm-11 13.1c1.9-3.1 1.3-7.5-.8-5.8-.9.8-1.1.2-.8-2.4.2-1.9.7-3.5 1.1-3.5 1.8.1 2.9 1.9 3.3 5.5.4 3.2 0 4.4-2 6.5l-2.5 2.5 1.7-2.8zM4.5 51c-3.1-5.9-3.6-8-2-8 .9 0 1.5 1 1.6 2.8.1 2 .3 2.2.6.7 1-4.6 1.4-5.1 2.4-3.3.6 1 .6 3.2 0 5.7-.5 2.2-.6 4.2-.3 4.6.3.3.2.5-.1.5-.4 0-1.3-1.3-2.2-3zm13.8-3.7c-2.8-.5-2.9-1.6-.2-4.7 1.4-1.6 2.9-2.3 4.7-2.1 1.5.2 3.2-.4 4-1.4 1.1-1.4 1.1-1.3.2.8-.9 1.8-.9 2.5 0 3.1.7.4.9 1.6.5 2.9-.6 2.1-3.3 2.5-9.2 1.4zm51-12.8c0-2.7.2-3.8.4-2.2.2 1.5.2 3.7 0 5-.2 1.2-.4 0-.4-2.8zm-68.9-3c.2-2.7.9-6.2 1.5-7.7C2.8 21.4 3.5 21 7 21c3.9 0 4 .1 4 3.4 0 1.8-.7 3.9-1.5 4.6-.8.7-1.5 2-1.5 2.9 0 1.3-.2 1.3-.9.2-1.2-1.8-5-.5-6.2 2.2-.7 1.7-.8 1-.5-2.8zM16 22c0-.5-.6-1-1.3-1-.7 0-2.9-1.1-5-2.5C6.5 16.3 6.1 15.6 7 14c1.3-2.3 10.2-9.1 14.5-10.9 2.9-1.3 3-1.3 1.1.8-1 1.1-2.1 4-2.3 6.5l-.5 4.4-3.9-1.3c-2.1-.8-4.1-1-4.4-.6-.7 1.3 7.4 6.3 8.8 5.5.7-.4.9-.3.4.1-.4.5 0 1.7 1 2.7 1.5 1.7 1.4 1.8-2 1.8-2.1 0-3.7-.4-3.7-1zM51 7V4l3.5 2.2c4.4 2.9 4.4 3.8 0 3.8-3.2 0-3.5-.2-3.5-3z" fill="#6289a7"/><g fill="#83868c"><path d="M21.3 66c-4.6-2-5.4-3.6-2.5-4.3.9-.3.5-.4-1-.4-1.5.1-2.4.5-2.1 1 .8 1.4-3.2-1-4.6-2.7-.7-.8-1.1-2.3-.8-3.3.4-1.4.5-1.4.6.4 0 1.2.6 2.5 1.1 2.8.7.4.9-.2.4-1.9-.7-2.7 1-3.7 1.9-1.2.4 1.1 1.6 1.3 4.1.9 3.3-.5 3.6-.4 3.6 2 0 2 1.6 3.7 3.5 3.7.3 0 .2-2.9-.2-6.5-.5-5.4-.3-6.5.9-6.5 1.9 0 2.8 3.3 2.2 7.9-.3 2.8-.1 3.2 1.4 2.6 1.4-.5 1.5-.4.5.6-.7.7-1.3 2.6-1.3 4.1 0 3.4-1.7 3.6-7.7.8zm20 .5c-.3-.9-.4-1.7-.2-1.8 2.3-1.4 10.3-4.7 11.4-4.7.7 0 1.6-.8 1.8-1.7.3-1 .5-.3.6 1.5.1 3-.3 3.5-5.1 5.7-6.2 2.9-7.6 3.1-8.5 1zm16.6-6.8c1.2-1.5 1.2-1.7-.3-1.1-2.5 1-2-2.3.9-5.2C59.9 52 61 50.5 61 50c0-.6.5-1 1-1 .6 0 1-.9 1-2 0-1.9.1-1.9 1.9-.2 1.8 1.7 1.8 1.8-.2 5.4-1.1 2.1-3.4 5-5.1 6.5-1.7 1.6-2.4 2-1.7 1zM3.5 48.8c-2.9-6.3-3.3-8.7-.9-6.3.9.8 1.3 2.2 1 3-.3.8-.1 1.7.4 2 .6.4 1-.5 1-1.9s.5-2.8 1.1-3.1c.7-.5.9 1.3.7 5.4-.2 3.4-.4 6.1-.6 6.1-.2 0-1.4-2.4-2.7-5.2zm38.5-.3c0-3.7 2.5-5 3.3-1.7.4 1.6.5 1.6.6 0 0-1 .8-1.8 1.6-1.8 1 0 1.5 1.1 1.5 3.5 0 3.3-.2 3.5-3.5 3.5s-3.5-.2-3.5-3.5zm-25.5.5c.4-.6.1-1.8-.6-2.6-1-1.2-1.4-1.2-2-.2-.7 1-.9.9-.9-.4 0-1.2.8-1.8 2.4-1.8 1.3 0 2.7-.6 2.9-1.2.4-1 .6-1 .6-.1.1.7.8 1 1.6.7 1.2-.5 1.5.2 1.4 3.2 0 2.2-.3 3.3-.6 2.7-.2-.7-.9-1.3-1.4-1.3-.6 0-.7.5-.4 1 .3.6-.3 1-1.5 1s-1.8-.4-1.5-1zM52 38.4c0-1.4.3-2.4.8-2.2 7.3 3.5 8 4.8 2.7 4.8-3.1 0-3.5-.3-3.5-2.6zM.5 32.2c.3-7 4.6-17.3 8.7-20.7 1.3-1.1 1.7-1.3 1.1-.5-1 1.1-1 1.7.3 3.2 1.5 1.6 1.5 1.8 0 2.4-.9.3-1.6 1.2-1.6 2S8.6 20 8 20c-.5 0-1 .9-1 2 0 1.3-1 2.5-2.7 3.2-2.2.9-2.4 1.2-1 1.5 2.2.6 2.2 1.8-.2 4C2 31.7 1 33.9.7 35.5c-.3 1.7-.3.2-.2-3.3z"/><path d="M6.3 31.5C4.4 29.4 4.7 29 8 29c2 0 3-.5 3-1.5 0-.9.9-1.5 2.5-1.5 1.4 0 2.5-.4 2.5-1 0-.5 1.5-1 3.4-1 2.8 0 3.4.4 3.9 2.5.3 1.7 0 2.4-.7 2.2-.6-.2-1-1.3-.8-2.3.2-1.9.2-1.9-1.2 0-1.1 1.4-1.2 2.4-.5 3.7.6 1.3.6 1.9-.1 1.9-.5 0-1-.6-1-1.4 0-2-8-1.3-9.5.8-1.5 1.9-1.6 1.9-3.2.1zm58.3-4.7c-.3-1.3-.6-3.3-.6-4.5 0-1.4-.6-2.3-1.5-2.3-.8 0-1.5-.6-1.5-1.4 0-.8-.7-1.6-1.5-2-.8-.3-1.5-1.2-1.5-2 0-.7-.9-1.6-2-1.9-1.2-.3-2-1.4-2-2.6 0-4.2-1.9-2-2.6 2.9-.6 4.7-.8 5-3.5 5H45l2-3.2c1.1-1.8 2-3.8 2-4.4 0-.7-1.8-3-4-5.3C40.6.6 40.8.3 46.6 2.4 52 4.3 59.5 9.5 62.4 13.3c4.1 5.5 8 14.7 5.7 13.3-.6-.4-1.1 0-1.1.8 0 2.4-1.7 1.9-2.4-.6zM17 20c0-2 .1-2 2.5-.4 1.4.9 2.5 1.8 2.5 2 0 .2-1.1.4-2.5.4-1.8 0-2.5-.5-2.5-2zM15 7c0-.5.7-1 1.5-1S18 5.6 18 5c0-.5.9-1 1.9-1 1.5 0 1.8.5 1.3 2.2-.5 2.1-.6 2.1-1.3.2-.7-1.6-.8-1.7-.8-.1C19 8.1 15 8.8 15 7z"/></g><path d="M18 64c-1.2-.8-1.2-1 .3-1.6.9-.3 1.4-1 1.1-1.6-.3-.5-1.3-.3-2.4.7-1.5 1.4-1.9 1.4-2.9.1-.7-.9-1.5-3.5-1.7-5.8l-.5-4.3 1.7 3c.9 1.7 1.8 3.2 2 3.4.8.9 5.3-5.6 5.4-7.6 0-3.2-1.5-2.9-1.8.4-.4 4.8-2.1 4.6-2.4-.3-.2-3.8-1.8-6-2.9-4.2-.6 1-.9.8-.9-.6 0-1.2.5-1.6 1.5-1.2.9.3 2.5-.6 3.9-2.1l2.5-2.7 1 2.6c.5 1.4 1.5 2.9 2 3.3 2.5 1.5.3 15.1-2.8 17.9-1.1 1-2.1 1.2-3.1.6zm16.7-26.6c2.5-1.1 5.5-7.3 4.8-10.3-.9-4.1.4-8.1 2.5-8.1 1 0 3-1.4 4.3-3 1.4-1.7 2.8-3 3.1-3 .3 0 .6 1.6.6 3.5s-.4 3.5-1 3.5c-.5 0-1 1.4-1 3 0 2.5-.4 3-2.4 3-3.1 0-5.4 2.6-3.8 4.2 1.5 1.5 1.6 4.8.2 4.8-.5 0-1 .7-1 1.5 0 1.1-1 1.5-3.7 1.4-2.1 0-3.3-.3-2.6-.5zm8.4-13c1.2-1.4 1.1-1.6-.5-1.3-1.1.2-2.1 1-2.4 1.7-.5 1.7 1.3 1.5 2.9-.4zM18 24.1v-5.2l3.2 1.8c5.4 3 7.3 5.3 4.3 5.3-.8 0-1.5.7-1.5 1.6 0 .9-.6 1.4-1.2 1.1-.7-.2-1.2-1.3-1-2.3.2-1.7 0-1.6-1.8.5l-2 2.3v-5.1z" fill="#ac847b"/><g fill="#7e96af"><path d="M41 66.3c-.9-1-1.4-2.6-1.2-3.5.3-1.5 1.4-1.8 5.8-1.8 4.6 0 5.4.3 5.4 1.9 0 1.3-1.3 2.4-4 3.5-4.9 1.9-4.3 2-6-.1zM20 65c-2.9-1.5-3.2-2-1.8-2.5 1-.4 1.6-1.1 1.3-1.5-.8-1.3.6-4 2-4 .6 0 1.7 1 2.3 2.3 1 2.1 1.1 2 1.1-1 .1-2.2.6-3.3 1.6-3.3.8 0 1.5.6 1.6 1.3 0 .6.2 2.9.5 5 .4 3.2.2 3.7-1.6 3.7-1.1 0-2 .5-2 1 0 1.4-1 1.2-5-1zm-6-3.8c0-1.3 3.9-4.6 4.6-3.9.3.3.3 1-.1 1.6-.9 1.5-4.5 3.3-4.5 2.3z"/><path d="M54.1 59.8c-.1-2.7-.3-2.8-5.5-2.8-4.4 0-5.5-.4-5.9-1.7-.4-1.4-.5-1.2-.6.5-.2 3.2-3.6 3-3.7-.4-.3-3.7-1.1-4-3.4-1.3l-2.1 2.4 1.7-2.8c1.6-2.6 1.6-3.1.1-6.3-2.1-4.2-2.3-7.4-.5-5.6 2.1 2.1 2.9 1.3 1.2-1.3-1.6-2.4-1.6-2.7.2-3.9 1-.8 2.3-1.2 2.8-.8.5.3.7-.2.3-1.1-.3-.9-.2-1.9.3-2.2.6-.4 1-1.7 1-3.1 0-1.3.4-2.4 1-2.4.5 0 .7.6.4 1.4-.3.9.9 2.2 3.5 3.7 2.3 1.2 4.1 2.6 4.1 3.1 0 .4.9.8 2 .8 2.1 0 4 2.7 4 5.9 0 1.8.6 2.1 3.9 2.1 3.2 0 4 .4 4.4 2.3.2 1.2.8 3 1.2 3.9.5 1.3-.3 2.8-2.8 5.3-1.9 1.9-4 3.5-4.5 3.5-.6 0-1-2.1-.9-4.7.2-3.4-.2-4.8-1.1-4.8-.8 0-2-1.7-2.7-3.8-.7-2.1-1.7-4.2-2.1-4.5-.4-.4-.4.1-.1 1.1.4 1 1 3.7 1.3 6 .4 2.3 1.3 5.5 2.1 7 .8 1.6 1.2 3.8 1 5-.4 1.8-.5 1.7-.6-.5zM41.3 45.9c-.9-3.4-3.3-5.2-3.3-2.5 0 .9.4 1.6.9 1.6s1.3 1.5 1.7 3.3c.4 1.7.9 2.7 1.1 2 .2-.6 0-2.6-.4-4.4zm4.4-4c-.6-7.2-1.7-10.7-1.7-5.2 0 4.2 1.2 12.3 1.8 12.3.2 0 .2-3.2-.1-7.1zM4.8 50.8c-.3-.7.1-2.9.8-4.8l1.2-3.5.1 3.5c.1 4-1.3 7.1-2.1 4.8zM25 51c0-.5-.7-1-1.5-1-.9 0-1.8-.6-2.1-1.4-.3-.8-1.2-1.7-2-2-1.2-.4-1.2-.2-.4 1.4.9 1.6.8 2-.7 2-1.3 0-1.9-.9-2-3-.2-2.7.6-3.5 3-3.1.4.1.7-.4.5-1.1-.3-1.5.6-2 2.6-1.2.8.3 1.2 1.3 1 2.2-.5 1.5-.4 1.5.6 0 2.3-3.6 5.6.9 4.4 5.9C27.8 51.9 25 53 25 51zM.7 32c.2-2.5.9-6 1.4-7.7 1-3.1 1.4-3.3 5.5-3.3 2.4 0 4.4-.4 4.4-1 0-.5-.7-1-1.5-1S9 18.6 9 18c0-.5-.7-1-1.5-1-1.9 0-1.9-1.4-.1-2.9 1.1-.9 2.7-.3 7.5 2.6 3.3 2.1 6.1 4.2 6.1 4.7 0 .4-1.8.6-4 .4-3.8-.3-4-.2-4 2.5 0 1.7-1.1 4-2.7 5.7-2.3 2.4-2.8 2.6-4 1.4-1.9-1.8-5-.2-5.6 2.8-.2 1.3-.2.3 0-2.2zm6.4-6.6c1.2-1.5 1.1-1.6-1.1-.9-3.5 1-4.9 2.5-2.3 2.5 1.1 0 2.7-.7 3.4-1.6zm57.3 5.9c-1.4-5.8-5.1-7.1-7.4-2.8-1.6 3-2.6 3.2-3.3.5-.4-1.5-1.4-2-3.6-2-3.1 0-3.8-1.1-2.5-4.4.9-2.3 7.4-2.2 7.4.2 0 1.3.2 1.4.9.4.5-.9 2.5-1.2 6.1-1 4.5.3 5.4.7 6.1 2.6.6 1.5.5 2.1-.1 1.7-.6-.4-1 .8-1 2.9 0 4.4-1.7 5.6-2.6 1.9zM16 12.2c-1.9-.8-3.7-1.6-3.9-1.8-.7-.7 3.2-3.8 7.9-6.2 3.9-2 4.2-2.1 2.7-.4-1 1.1-2.1 3.7-2.5 5.9l-.7 4-3.5-1.5zm33-1.9c0-.9-1.4-3.2-3.2-5-1.7-1.8-3-3.5-2.7-3.7C44.4.2 59 8.9 59 11.1c0 .5-2.2.9-5 .9-4 0-5-.3-5-1.7z"/></g><g fill="#ce8d71"><path d="M13 59.5c-.6-1.5-1-3.8-1-5.3l.1-2.7 1.6 3c2.2 4.1 2 4.1 4.2 1.4 2.3-2.7 2.6-2.3 1.1 1.5-.5 1.4-1.8 3-3 3.6-1.7.9-2.2.7-3-1.5zm6.9 1.3c-.1-.7 0-1.7.1-2.3.1-.5.3-1.9.4-3 .1-1.2.6-2.6 1-3.3.4-.7.4-2.1.1-3.2-.4-1.1-.2-2 .4-2 1.8 0 2.4 6.9 1.1 11.1-1.3 3.8-2.9 5.2-3.1 2.7z"/><path d="M16.2 52.5c-.7-.8-.8-1.5-.3-1.5s.8-1.6.5-3.5c-.2-1.9-.2-3.5.1-3.5 1.1 0 3.1 5.7 2.7 7.8-.4 2.5-1.2 2.7-3 .7zM39.5 32c.4-.6.4-2.8 0-4.9-.5-3.1-1.2-4.1-3.2-4.6-1.9-.4-2.3-.9-1.4-1.8.6-.6 1.1-1.9 1.1-2.9 0-2.2.9-2.2 3.4-.3 2.8 2.1 3.9 1.9 7-1.1l2.6-2.7v3.1c0 4.1-1.6 8.1-3.5 8.8-2.2.9-3-.3-1.5-2.1 1.6-2-.1-1.9-2.6.1-1.3 1.1-1.5 1.7-.7 2 .8.4 1.1 1.5.7 3-.5 1.8-.2 2.4 1 2.4.9 0 1.6.5 1.6 1 0 .6-1.2 1-2.6 1-1.5 0-2.3-.4-1.9-1zM20 22.8c.1-2.8.2-3 1.1-1.5.6.9 1.4 1.5 2 1.2 1.1-.7 1.2.6.1 2-1.6 2.3-3.2 1.4-3.2-1.7z"/></g><g fill="#8ea3b4"><path d="M23.5 66.5c-1.6-.7-2.6-1.4-2.2-1.4.4-.1.1-1.3-.6-2.8-1.2-2.2-1.2-3.3 0-7.1.7-2.5 1.1-5.4.7-6.4-.3-1.1 0-1.8.7-1.8s2.1-.7 3.1-1.7c1-.9 2.1-1.4 2.4-1.1 1 1 .9 23.1-.1 23.4-.5.2-2.3-.3-4-1.1zm19.4.1c1.3-1.6.4-2.5-1.9-2.1-1.2.2-1.5-.5-1.2-3.3.4-3 .2-3.4-1.3-2.8-1.5.5-1.6.4-.6-.8 1.3-1.6.4-6.9-1-6-.5.3-.6-.2-.3-1s-.4-2.4-1.5-3.5c-2.1-2.1-3-6.8-1.1-5.6.5.3.6 1.3.3 2.2-.6 1.5-.5 1.6.9.3s1.4-1.7 0-3.8c-1.3-2.1-1.3-2.4.4-3.7 1.7-1.2 2-1.1 2.6.8.6 1.8.7 1.7.5-.8 0-1.6.3-3.8.9-4.8.9-1.6 1.4-1.5 7 1.4 11.9 6.2 14.5 8.1 16.9 12 2.4 3.7 2.5 4.1 1 7-.9 1.6-2.8 3.4-4.3 4-1.5.6-3 1.6-3.4 2.2-.4.7-.6-.5-.4-2.6.2-2 1.1-4.6 2.1-5.7 1-1.1 1.6-2.2 1.3-2.5-.3-.3-1.1.1-1.7.9-1.1 1.3-1.5 1.2-3.1-.4-1.1-1.1-2.6-3.6-3.5-5.6-1.7-4.2-3.1-4.1-1.5 0 .5 1.5 1 3.9 1 5.4 0 1.5.9 4.4 2 6.5 3.4 6.3 2.8 8.1-3.9 11.1-6.7 3-7.8 3.2-6.2 1.2zm19.1-12c0-1.5-1.4-3.5-2.1-3-1.5.9-1 3.4.6 3.4.8 0 1.5-.2 1.5-.4zm-15.4-8.8C45.7 36 45.1 33 43.9 33c-1.3 0-1.1 4.6.6 11.3 1.6 6.9 1.5 6.3 1.5 8.2 0 .8.3 1.5.6 1.5.4 0 .3-3.7 0-8.2zM4.7 48.2c.3-1.2.9-2.5 1.4-2.8 1.4-.8 1.1 1-.6 3.2-1.3 1.8-1.4 1.8-.8-.4zM.5 33.1c.3-1.8.5-4.3.5-5.5.1-1.9.2-1.9 1.3-.4 1.2 1.5 1.5 1.5 4.5-.4 1.8-1.1 3.2-2.2 3.2-2.4 0-.3-1.8-.3-4 0-2.2.2-4 0-4-.5C2 22.8 5.7 19 6.9 19c.4 0 .6-1.1.3-2.5-.3-1.8 0-2.5 1.1-2.5 1.8 0 11.2 5.6 13.9 8.3 1.7 1.6 1.6 1.7-2.2 1.7-2.2 0-4-.4-4-1 0-.5-.4-1-1-1-.5 0-1 1.3-1 2.9 0 2.1-.9 3.6-3.5 5.5C7.2 33 7 33 7 31.1c0-2.2-1.4-2.8-2.5-1.1-.4.6-1 .8-1.5.5-.5-.3-1.4.9-2 2.7l-1 3.3.5-3.4zm64.9.2c.4-.7.2-1.3-.3-1.3-.6 0-1.1-.9-1.1-2s.6-2 1.3-2c.8 0 .7-.3-.3-.9-.8-.6-1.7-.8-2.1-.5-.4.2-1 0-1.4-.6-.9-1.5-1.9-1.2-4.3 1.1-2 1.8-2.4 1.8-3.7.5-.8-.8-1.5-2-1.5-2.7 0-.8-.5-.5-1.3.5-1 1.4-2.1 1.7-4.5 1.1-3.8-.8-3.9-1.5-.9-4.3 2.8-2.6 9.4-3.1 10.3-.7.4.9 1.4 1.4 2.3 1.1 5.9-1.6 8.9-1.6 9.5 0 .3.9.1 2.3-.5 3-.6.8-.8 1.4-.3 1.4.4 0 .3.5-.4 1.2-1.4 1.4-1.6 3.2-.3 2.4 1.1-.7.8 2.1-.4 3.1-.4.4-.5.2-.1-.4z"/><path d="M15 27.5c0-2.1.5-2.5 3.1-2.5 2.9 0 3 .2 1.8 1.8-3.1 3.9-4.9 4.2-4.9.7zm42-14c0-1.1-1.1-1.5-4-1.5-3.1 0-4-.4-4-1.7 0-.9-1.7-3.4-3.7-5.5-3.8-3.9-3.5-5 .5-2.2 1.2.8 2.2 1.2 2.2.8 0-.4.8 0 1.8.9 1 1 2.1 1.4 2.5 1.1.3-.3.3.3 0 1.5-.5 2.1 1.1 2.9 2.2 1.1.7-1.2 5 1.9 7.2 5 1.3 1.9 1.2 2-1.6 2-2.1 0-3.1-.5-3.1-1.5zm-43.3-3c-1.5-1.1-1.3-1.5 2.4-3.9 2.2-1.5 4.3-2.5 4.7-2.2.3.3 0 .6-.6.6-.7 0-1.2.9-1.2 2s-.5 2-1.1 2c-.5 0-.8.4-.5.9 1 1.5-1.9 2-3.7.6z"/></g><path d="M22.5 60c-.4-.6-1.3-.9-2-.6-1 .3-1-.5.1-4.2.8-2.5 1.2-5.5.9-6.6-.3-1.2-.2-1.5.1-.8.5 1 .9.9 2-.5 1.2-1.6 1.3-1.4 1.2 2-.1 2.4-.6 3.7-1.5 3.7-.7 0-1.3.7-1.3 1.6 0 1.4.3 1.4 1.5.4 1.3-1.1 1.4-.8.9 2.1-.8 4.1-1 4.4-1.9 2.9zm17-24c.4-.7.3-1.5-.3-1.9-.7-.4-.5-1.3.5-2.6 1.5-2 1.5-2 .9.2-.4 1.2-.2 2.4.4 2.8.5.3 1-.1 1-.9s.4-1.7.9-2c.5-.4.6.5.2 2.1-.4 1.6-1.6 3-2.5 3.1-1.2.3-1.6 0-1.1-.8zm-23-9.5c1-5.3 1.9-6.2 4.9-4.6 1.7 1 2.2 1.9 1.8 3.4-.3 1.3-.7 1.6-1 .8-.3-.9-1.3-.4-3.4 1.6l-3 2.8.7-4zm27.1-1.4c-.4-.5-.2-1.2.4-1.6.6-.4.8-1 .6-1.3-.2-.4.6-3 2-5.7 1.3-2.8 2.4-5.6 2.4-6.2 0-.7.7-1.3 1.5-1.3 1.1 0 1.5 1.1 1.5 4 0 2.6-.4 4-1.3 4-.7 0-1.7 1.9-2.3 4.2-.9 4.2-3.4 6.2-4.8 3.9z" fill="#b69c9a"/><path d="M24.8 67.3c-1.6-.4-2.6-5-1.9-8.7.1-.5-.3-1.2-.9-1.6-1.6-1-.2-7.4 2.2-10.5 2-2.6 3.8-3.3 3.8-1.4 0 .5-.6.7-1.2.3-1-.6-1-.4-.2.7C28 47.9 29.1 66 27.8 66c-.5 0-.6.5-.3 1 .6 1 .2 1.1-2.7.3zM24 54.5c1-1.2 1-1.5-.4-1.5-.9 0-1.6.7-1.6 1.5s.2 1.5.4 1.5.9-.7 1.6-1.5zm17.1 7.6c-.8-.5-1.2-1.8-.8-3 .6-2.4-.3-2.7-2.2-.8-.8.8-.7.2.2-1.6 1.4-2.6 1.3-3.2-.3-6-2-3.5-2.7-14.7-.9-14.7.7 0 .8 1.2.4 3-.5 2.3-.3 2.9.7 2.5 1-.4 1.4-2 1.3-4.5-.1-3.2.1-3.7 1.2-2.9 1 .9 1.3.8 1.3-.4 0-.9.4-1.8.8-2.1.5-.3.6.8.4 2.5-.2 1.6-.8 3.2-1.3 3.5-.5.3-.3 1.1.4 1.8.7.8 1.4 3.5 1.6 6.2.1 2.7.8 5.2 1.4 5.6.7.4.8.8.2.8-.5 0-.2.7.8 1.4 1.7 1.3 1.6 1.4-.3 1.9-1.1.3-2 .1-2-.5 0-.5-.6-.8-1.2-.6-.7.3-1.3 2-1.4 3.8-.2 3.3-.1 3.3 1.1 1.1 1-2 1.3-2.1 1.8-.7.4 1 .3 1.5-.3 1.1-.9-.6-1.4.8-1.1 2.8.1.9-.1.9-1.8-.2zm20.8-8.6c-.1-1.1 0-2.6.1-3.4.1-.9-.4-1.2-1.4-.8-1.3.5-1.4.3-.4-1.3.7-1 1.6-1.6 2.2-1.3.5.3.6.1.2-.6-.6-.9-1.4-.8-3.2.4-2.2 1.4-2.4 1.4-2.4-.1 0-1.3-.3-1.4-1.4-.5-1.2 1-1.7.8-2.5-.8-.6-1.1-1.1-2.6-1.1-3.4 0-.8-.7-2-1.5-2.7-1.3-1.1-1.8-1-3.1.6-1.5 1.8-1.5 1.8-1.1-.3.3-1.3.1-2.6-.4-2.9-.5-.3-.9-1.4-.9-2.6 0-1.7.2-1.9 1.6-.8.8.8 4.3 2.7 7.7 4.4 4.2 2.1 7.1 4.4 8.9 7.1 3.3 4.8 3.3 5.3.8 8.5-1.8 2.3-2 2.4-2.1.5zm-13.2-.2c-.2-.4-.3-2-.1-3.6.1-1.5-.1-2.5-.5-2.3-.4.3-.8-.1-.8-.9 0-1 .4-1.2 1.2-.5.7.5 1.4.7 1.8.4.3-.3.5 1 .3 3-.2 3.6-1 5.4-1.9 3.9zM8.3 30.6c.4-.9.2-1.6-.3-1.6-1.9 0-1-2.8 1.1-3.3 2.3-.6 2.1-3.4-.2-2.9-.7.2-2.6.5-4 .7-2.6.3-2.7.2-1.6-2.4.7-1.5 1.9-3.8 2.8-5.2l1.7-2.4 3.3 1.9c1.9 1.1 4.3 2.4 5.3 3 1.1.6 2.9 1.9 3.9 2.8 2 1.7 2 1.8-.7 5.3-2.1 2.7-3.3 3.4-4.7 3-1.2-.4-3.1.1-4.6 1-2.3 1.6-2.5 1.6-2 .1zm36.2-7.8c.9-4.2 2.3-6.8 3.5-6.8.6 0 1-1.7 1-3.7 0-2.9-.8-4.5-3.7-7.6-2.6-2.6-3.2-3.6-1.8-3.1 1.1.4 2.4 1.4 2.8 2.1.5.7 1.3 1 1.9.7.6-.4.8-.3.5.3-1.1 1.7 3 4.6 5.8 4.1 1.8-.4 3.2.2 5.1 2.1l2.6 2.6-3.3.6c-2.9.5-3 .7-.9.9 1.4.1 3.2.2 4.1.1 1.6-.2 6.3 7.5 5.4 8.9-.3.4-3.4 1-7.1 1.4-5.7.6-6.8.4-8-1.1-1.3-1.7-1.5-1.7-2.8 0-.7.9-2.3 1.7-3.5 1.7-2 0-2.2-.4-1.6-3.2z" fill="#aba8b9"/><g fill="#9db5c1"><path d="M26.3 64.8c-.4-.7-.8-1.6-.9-2-.1-.5-.2-1-.4-1.3-.1-.3-.2-1.8-.2-3.5 0-1.6.1-3.2.2-3.5.2-.3.3-.9.4-1.4 0-.5.4-1.3.9-1.7 1.4-1.5.7-3.2-1.2-2.7-1.3.3-1.7 1.1-1.3 2.6.4 1.7.2 1.9-.8 1.1-2.4-2.3 1.4-7.5 4.2-5.8.7.5.9 19.4.1 19.4-.1 0-.5-.6-1-1.2zm18.2-3.1c.2-1.8.7-4.1 1.1-5.2.4-1.1.4-1.7-.1-1.3-.4.4-1.8-.6-3.2-2.3-1.4-1.6-2.9-2.7-3.4-2.4-.5.4-.6-.1-.3-.9.3-.9 1.1-1.3 1.8-.9.6.4.4-.1-.4-1.1-.8-1.1-1.6-1.4-1.8-.7-.2.6-.8 1.1-1.4 1.1-.6 0-.6-.6.2-1.5.7-.8 1.6-1.2 2.1-.9.5.3.9-.2.9-1.1 0-.9-.4-1.4-.9-1-.5.3-1.9-.8-3-2.3-1.5-2.2-1.7-3.2-.9-4 2.1-2.1 3-1.3 2.3 1.8-.5 2.2-.3 3 .6 2.8 1.7-.4 4 4.2 3.4 6.9-.3 1.2 0 2.5.7 2.9.8.5.9-.5.5-3.9-.4-2.9-.3-4.7.3-4.7s1 1.8 1 4c0 2.5.7 4.7 1.8 5.8 2.2 2.3 2.6 5 1.1 6.8-.7.9-.8 1.4-.1 1.4.6 0 1.2-.6 1.5-1.2.2-.7.7-1 1.1-.7.6.6-.2 1.6-3.8 4.6-1.2 1-1.3.7-1.1-2zm5.6 2.8c-.1-2.1 1.4-3.4 2.9-2.5 1.3.8 1.3 1-.2 1-.9 0-1.9.6-2.1 1.3-.3.6-.6.8-.6.2z"/><path d="M41.3 59.4c-.8-.8-.9-1.5-.3-1.9.6-.3 1 0 1 .7 0 .9.3.9 1-.2.5-.8 1-1 1-.5 0 2.3-1.5 3.3-2.7 1.9zm11.1-.5c-.3-.6-.2-1.5.4-2.1.6-.6 1.1-.2 1.5 1.1.5 2.2-.7 2.9-1.9 1zm-13.8-2.4c.9-1.4 1.2-3 .8-3.7-.6-.9-.3-.9.9.1 1.7 1.3 1.6 1.5-.4 3.8-2.9 3-3.4 2.9-1.3-.2zm10.2-3.2c-.2-.4-.3-1.9-.2-3.3.1-1.4-.3-3.2-1-4-.9-1.3-.9-1.3.5-.3.9.7 1.8 1.1 2 .8.3-.2.5 1.1.4 3 0 3.3-.9 5.4-1.7 3.8zm8.9-.9c-.4-.4.5-2 1.8-3.6 2.6-3.1 3.3-5.8 1.4-5.8-.6 0-.9.6-.6 1.3.3.7-.4 1.9-1.4 2.5-1.6 1-1.9.9-1.9-.4s-.3-1.4-1.4-.5c-1.1.9-1.6.9-2.2 0-.4-.8-.3-.9.4-.5.8.5 1.2-.3 1.2-2.3 0-3.1 1.4-4.2 2.3-1.8.4.9.6.9.6 0 .1-.7-1.1-1.9-2.6-2.7-1.6-.8-2.3-1.5-1.7-1.6 1.8 0 7.8 4.4 8.9 6.7.6 1.1 1.7 2.8 2.4 3.7 1.2 1.4 1.2 1.9.1 2.9-1 .9-1.1.9-.6 0 .4-.8-.1-1.1-1.6-1.1-2.8.2-5 1.7-4.2 2.9.6 1 0 1.2-.9.3zm-8-15.5c-.3-1.3-.1-1.9.6-1.6 1.5.5 2.2 3.7.9 3.7-.5 0-1.2-.9-1.5-2.1zm-10.2 0c-.4-.5-.1-.8.6-.7.7.2 1.5-.6 1.7-1.7.7-3.3 1.9-3.8 1.4-.6-.4 3-2.6 4.8-3.7 3zm6.5-.8c0-.5-.3-1.8-.6-2.8-.6-1.5-.4-1.6.6-.6 1.6 1.5 2.2 4.3.9 4.3-.5 0-.9-.4-.9-.9zM8.9 30.7c1.1-1.4 1.1-1.8-.4-2.3-1.6-.6-1.5-.9.6-2.5 2.3-1.7 2.3-1.9.6-3.6-1.5-1.6-1.9-1.6-2.7-.3-.5.8-1.8 1.6-2.9 1.6-1.1.1-1.8-.3-1.5-.8.3-.5 1.2-.7 2-.4.8.3 1.4-.1 1.4-1 0-.8-.4-1.2-1-.9-.5.3-1 .3-1 0C4 19.4 7 14 7.6 14c.7 0 6.6 3.2 7.4 4 .3.3 1.7 1.1 3.2 1.9 3.8 1.9 4 3.3 1.1 7-1.8 2.3-3 3-4.4 2.6-1.2-.4-3.1.1-4.7 1.1-2.4 1.5-2.5 1.5-1.3.1zm5.7-4.6c-.4-.5.6-1.4 2.1-2l2.8-1.1-2.9.6c-1.8.3-3.2 0-3.7-.8-.7-1-.9-1-.9.3 0 .8.5 2 1.2 2.7 1.4 1.4 2.1 1.6 1.4.3zM44.5 23c.4-1.9 1.5-5.1 2.5-7 1-1.9 2.1-4.3 2.4-5.3 1-3.1 7.9-2 11.7 1.9 1.7 1.7 3.1 3.8 3.3 4.7.1.8.7 2.1 1.4 2.9.9 1.2.5 1.4-2.4 1.5-3.2.1-3.3 0-1.7-1.3 1-.7 1.3-1.4.7-1.4-1.5 0-3.6 2.5-2.7 3.3.8.9-1 .9-3.1.1-.9-.3-1.3-1-1-1.5.3-.5 1-.6 1.6-.3.6.4.9.1.6-.6-.6-2-2.8-2.4-2.8-.6 0 .9-.4 1.6-1 1.6-1.7 0 .1 3 1.9 3 1.4.1 1.3.2-.2 1.1-1.4.9-2.1.7-3.2-.7-.7-1.1-1.1-2.2-.9-2.6.2-.4 0-.9-.6-1.3-.5-.3-1-.1-1 .4 0 .6-.6 1.1-1.4 1.1-.8 0-2.2 1-3.1 2.3-1.6 2.2-1.7 2.1-1-1.3z"/><path d="M58 24.9c0-1.1 5.9-2.9 7.5-2.3 2.8 1.1 1.5 2.2-3 2.6-2.5.2-4.5 0-4.5-.3zM45.3 4.5c-3-2.7-3.3-3.3-1.5-2.8C45 2 46 2.6 46 3.1c0 .4 1 1.7 2.2 2.9 1.2 1.1 1.9 2 1.5 2-.3 0-2.3-1.6-4.4-3.5z"/></g><path d="M9 30.6c0-.3 1.1-1.3 2.5-2.2 1.9-1.2 2.8-1.4 3.8-.5.8.6 1.8.7 2.2.3.5-.4.5-.1.1.6s-1.6 1-2.6.7c-1.1-.3-2.8-.1-4 .5-1.1.6-2 .8-2 .6zm4.8-9.7c-.2-.7-2.3-1.2-4.6-1.2-3 0-4.2-.4-4.2-1.4 0-2.3 8.1-1.4 10.3 1.2 1 1.1 1.6 1.4 1.2.8-.9-1.8 0-1.6 1.5.2 1.1 1.3.8 1.5-1.3 1.5-1.4 0-2.7-.5-2.9-1.1zM46 18.3c0-.3.6-1.7 1.4-3.1.8-1.5 1.7-3.5 2-4.5.4-1.1 1.1-1.5 1.8-1.1.7.5 2.7.7 4.4.5 1.8-.1 3.6.4 4.3 1.3.8.9 1 1.6.5 1.6-.5.1.2.7 1.6 1.5 2.5 1.4 2.5 1.4-1.5 1.6-3.9.1-3.9.2-1 .9l3 .8-3.7.1c-4.5.1-7-.8-6.1-2.2.4-.6.1-.7-.6-.3-.7.5-1 1.4-.8 2.1.4.8-.5 1.2-2.4 1.3-1.6 0-2.9-.2-2.9-.5z" fill="#bdbec4"/></svg>