<svg version="1.0" xmlns="http://www.w3.org/2000/svg" width="69" height="69"><g fill="#f7f7f7"><path d="M30 50c0-3.9.1-4 3.5-4s3.5.1 3.5 4-.1 4-3.5 4-3.5-.1-3.5-4z"/><path d="M60 50.4c0-1.7-.6-2.8-2-3.1-1.1-.3-2-.9-2-1.3s-1.9-1.3-4.2-1.9c-2.4-.7-4.9-1.5-5.5-1.7-.8-.4-1.3.2-1.3 1.6 0 1.8-.5 2.1-3.7 1.8-3.6-.3-3.8-.5-4.1-4-.2-2.8.1-3.8 1.2-3.8 1.6 0 3.3-5.7 4.5-15.6.5-3.4 1.1-6.6 1.5-7.3.8-1.3-4-6.1-6.1-6.1-.8 0-3 1.2-4.9 2.6-2.7 2.1-3.4 3.3-3.4 6.1 0 4.3-1.9 8.9-5.4 13.1L21.8 34H34v4c0 4.4-.5 4.6-8.2 3.4-3-.5-3.8-1.1-3.9-2.8 0-2.1 0-2-.9.2-.5 1.2-1.8 2.2-2.9 2.2-1.1 0-3.2 1.3-4.8 2.8-1.5 1.6-4.2 3.2-5.8 3.6-2.9.7-2.7.5 2.5-5.1 3-3.1 4.4-4.9 3-3.8-1.4 1.1-3.2 2.7-4 3.6-.8.9-2.5 1.9-3.7 2.2-1.9.4-2.3-.1-3.3-4.4-.7-2.7-.9-6.5-.6-8.4l.7-3.5 6.4.6 6.5.7v-4.2c0-3.6.3-4.1 2.3-4.1 2.5 0 4.7-1.7 4.7-3.7 0-.9-1.9-1.3-7-1.3-3.8 0-7-.4-7-.9 0-2 10.5-10.2 15.1-11.8 2.7-1 4.9-2.1 4.9-2.5 0-1.1 12.4-1 13.5.1.6.5 2.6 1.4 4.6 2 2 .6 5.5 2.6 7.8 4.4 4 3 4.1 3.3 3.5 7.3-.4 2.6-.2 4.4.5 4.8.6.4 1.1 2.4 1.1 4.5 0 2.3.8 4.8 2 6.4 1.1 1.4 2 3 2 3.5s.7 1.6 1.6 2.3c2.7 2.2 3.2 5.1 1.7 9.4-2.3 6.7-6.3 9.8-6.3 4.9z"/></g><g fill="#efefef"><path d="M35.4 60.5L36 55h-3c-2.8 0-3-.3-3-3.7 0-2.1-.7-5.6-1.5-7.8S27.1 38 27 36.3c0-3.1.2-3.3 3.5-3.3 2.7 0 3.5.4 3.5 1.8 0 .9.5 2.4 1 3.2.9 1.3 1.2 1.3 2.1-.2.5-1 1.6-1.8 2.3-1.8 1.5 0 3.1-7.4 4.1-19.2l.7-6.8h-3.1c-2.4 0-3.1-.4-3.1-2 0-2.9 3.6-2.5 6.8.7 1.5 1.5 3 2.7 3.4 2.6.3-.1.2 1.3-.3 3.2-.6 2-1.1 6.6-1.2 10.4-.1 3.8-.5 6.7-.8 6.5-.4-.2-1 .4-1.3 1.3-1 2.6 4 6.9 11.4 9.6 5.6 2 6.6 2.8 7.1 5.3l.7 2.9.2-3c.4-4.5 0-5.8-2.1-8.1-1-1.1-1.9-2.3-1.9-2.7 0-.3-1.2-2.3-2.6-4.4-1.6-2.4-2.4-4.7-2.1-6.2.3-1.3-.2-3.5-1.1-5-1.5-2.8-1.2-8 .8-11.1.8-1.3 1.1-1.3 2.6.2s1.6 2.1.5 4.4c-1 2.2-.9 3 .4 4.4.8.9 1.5 3.2 1.5 5.1 0 2.6 1.1 5 4 8.9 2.2 2.9 4 5.9 4 6.5 0 2.6-3.3 10.4-5.1 12.1-1.8 1.6-1.9 1.6-1.9-.3 0-1.2-.7-2.3-1.5-2.7-.8-.3-1.5-1.2-1.5-2.1 0-1-1-1.5-3.2-1.5-1.8 0-4.3-.3-5.5-.6-2.2-.6-2.3-.3-2.3 4.5 0 3.7-.4 5.1-1.4 5.1-1.7 0-2.6 2.2-2.6 6 0 4.8-.9 6-4.7 6h-3.6l.7-5.5z"/><path d="M13.5 42c-.8-2.4.1-4 2.1-4 1.1 0 3.4-3.6 3.4-5.4 0-.1-2.9-.3-6.5-.3C.6 32-.3 30.5 5.3 19.8l3.3-6.3 6.9-.3c4-.2 7.3-.8 7.7-1.5 1-1.5 3 1.2 2.1 2.7-.3.5-.1.6.5.2.7-.4 1.2-1.3 1.2-1.9 0-.7 1.4-2.4 3.2-3.9l3.2-2.6-2.7.5c-1.5.3-2.7.1-2.7-.5 0-1.6 2-1.9 5.7-.8 4.3 1.4 4.6 4.6.5 4.6-2.6 0-2.9.4-4 5.8-.7 3.2-1.2 6.8-1.2 8 0 1.2-.4 2.2-1 2.2-.5 0-1 .8-1 1.8s-1.1 2.8-2.5 4c-1.7 1.5-2.6 3.6-3.1 7.2-.6 4.9-.7 5-4 5-2.4 0-3.4-.5-3.9-2zm11.2-18.7c1.3-2.3 2.2-5 2-6-.4-1.4-.5-1.4-.6.4 0 1.2-1.6 4.1-3.4 6.5-4.6 6-5.4 7.7-2.8 5.3 1.3-1.1 3.4-3.9 4.8-6.2z"/></g><path d="M35.5 60.3c.3-3.8.9-7.8 1.2-9.1.4-1.7.2-2.1-1-1.6-1 .3-1.7-.1-2-1.3-.4-1.6-.5-1.6-.6 0-.2 2.5-4.1 2.3-4.1-.3 0-3.2-2.2-7-4.2-7-1.3 0-1.8-.8-1.9-2.7-.1-2.5-.3-2.4-1.2 1-1 3.5-1.3 3.7-4.9 3.7-3.5 0-3.9-.2-3.6-2.2.2-1.3 1-2.3 1.8-2.3 1.9 0 2.8-1.2 4-5.5.5-1.9 1.9-4.1 3.1-4.8 2.1-1.3 2.1-1.2 1.7 2.2-.4 3.5-.3 3.6 2.9 3.6 2.9 0 3.3.3 3.4 2.8.1 1.6.3 2 .6 1 .5-1.9 3.3-2.5 3.3-.7 0 1.4 4.3 0 5.3-1.7 1.2-2.1 3.5-1.7 6.4 1 2.5 2.3 2.6 2.8 2 9.9-.3 5-1.4 9.3-3.1 12.9-1.4 3-2.6 6-2.6 6.6 0 .7-1.6 1.2-3.6 1.2h-3.6l.7-6.7zm5.6-10.8c-.5-.5-1.1-1.7-1.4-2.5-.3-.8-.6.8-.6 3.5 0 4.8 0 4.9 1.4 2.5.7-1.4 1-2.9.6-3.5zm1.9-6.9c0-.8.6-1.6 1.3-1.9.9-.4.9-.7-.1-1.8-1.1-1.2-1.3-1.2-1 0 .2.7-.3 1.6-1.1 1.9-.9.3-1.1 0-.6-.9.6-1 .5-1.1-.4-.3-.6.6-.9 1.8-.5 2.7.8 2.1 2.4 2.2 2.4.3zm19 5.9c0-1.4.2-2.5.4-2.5s.6 1.1.8 2.5c.3 1.4.1 2.5-.3 2.5-.5 0-.9-1.1-.9-2.5zm3.1-3.6c-.1-2.5-1.2-5-3.4-8-4.6-6-5.9-8.6-5.5-11.3.1-1.3-.2-2.9-.8-3.7-2.2-2.7-2.3-5.4-.5-9.4l1.7-4 1.9 2.8c1.3 2.1 1.5 3.1.6 4-1.8 1.8-1.3 2.7 1.4 2.7 2.2 0 2.5.4 2.5 3.5 0 2.4-.5 3.5-1.5 3.5-2.1 0-1.9.5 1.5 5.5 1.7 2.4 3 4.8 3 5.4 0 .6.5 1.1 1 1.1 1.4 0 1.1 3.8-.5 8l-1.3 3.5-.1-3.6zM53 44c0-2.2 2-2.6 5.1-1 3 1.6 2.3 3-1.6 3-2.8 0-3.5-.4-3.5-2zM43 26c0-3.3.3-4 2-4 2.1 0 2.5 1.6 1.4 5.8-1.1 3.9-3.4 2.7-3.4-1.8zm-16.7-5.5c.6-1.9 1.4-3.5 1.9-3.5.4 0 .8-.9.8-2s-.4-2-1-2c-1.8 0 .2-3 3.5-5C35.8 5.4 39 5.4 39 8c0 1.1-.7 2-1.5 2-1 0-1.5 1.1-1.5 3.5 0 3.2-.2 3.5-3 3.5s-3 .3-3 3.5c0 3-.3 3.5-2.4 3.5-2.3 0-2.4-.2-1.3-3.5zm16.6-2.2c-1.2-.3-1.8-2.1-2.3-6-.4-3.1-.5-5.7-.4-5.8.2-.2 1.3.1 2.5.6 2.9 1.1 5.5 6.2 4.7 9.4-.6 2.4-1.2 2.7-4.5 1.8z" fill="#e6e6e6"/><path d="M35 61.5c0-1.9.5-3.5 1-3.5.6 0 1-.4 1-1 0-.5-1.6-1-3.5-1-3.1 0-3.5-.3-3.5-2.7 0-1.4-.8-6.6-1.7-11.5-1.3-6.9-2-8.8-3.4-8.8-1.7 0-2.9 3.6-2.9 8.6 0 2.1-.5 2.4-3.5 2.4-3.3 0-3.5-.2-3.5-3.2s.1-3.1 1.5-1.2c1.1 1.3 1.5 1.5 1.3.4-.3-2.5 2.4-9.9 4.4-11.6 1-1 1.8-2.3 1.8-3.1 0-.8.8-1.3 1.8-1.1 1.1.2 1.8 1.4 2 3.6.3 2.7.7 3.2 3 3.2 1.9 0 3 .7 3.7 2.3.6 1.3 2.1 2.3 3.8 2.5 2.4.3 2.7 0 2.7-2.7 0-1.6.3-3.6.6-4.5.5-1.2 0-1.6-2-1.6-2.4 0-2.6-.3-2.6-4.4 0-4.3.1-4.5 3.3-4.9 2.8-.3 2.6-.4-1-.5C35 17 35 17 35 20.5c0 3.3-.2 3.5-3.5 3.5s-3.5-.2-3.5-3.5c0-1.9.5-3.5 1-3.5.6 0 1-.7 1-1.5s-.7-1.5-1.5-1.5c-1.6 0-1.9-.9-.7-2.5 3-4.1 10.2-7 10.2-4 0 .8.2 1.5.4 1.5s1.1.3 1.9.6c1 .3 1.7-.1 1.9-1.3.3-1.6.5-1.6 2.6.5 2.2 2.2 2.3 2.9 1.8 11-.3 4.8-1 10.1-1.6 11.9-1.1 3-.9 3.4 1.7 5.7 1.5 1.4 2.2 2.6 1.5 2.6-.9 0-1.1 1.4-.6 5.5.5 3.8.3 5.5-.5 5.5-.6 0-1.1 1.4-1.1 3.1 0 1.7-.7 3.7-1.5 4.5-.8.9-1.5 2.6-1.5 4 0 2.1-.4 2.4-4 2.4-3.9 0-4-.1-4-3.5zm9.4-13.7c.7-3.6-.4-5.2-1.9-2.7-.4.6-1.3.8-2.1.5-.9-.3-1.4.1-1.4 1.2 0 1-.6 2.4-1.2 3.1-1 1.1-1 1.4 0 1.8.7.3 1.2 2.4 1.3 5.1l.1 4.7 2.2-5c1.3-2.7 2.6-6.7 3-8.7zM33 46.3c-1.1-1.7-1.1-1.7-.6 0 .3 1 .7 2.8.7 4 .2 2.2.2 2.2.6 0 .2-1.2-.1-3-.7-4zm1-4.4c0-.6-.4-.8-1-.4-.5.3-1.4-.9-1.9-2.7-.5-1.8-1-2.5-1-1.6-.1 2.4 2 6.8 3 6.2.5-.3.9-1 .9-1.5zm9.6.7c3-3.1 1.3-6.3-2.1-3.8-1.8 1.3-2 2-1.1 3.4 1.3 2.2 1.4 2.2 3.2.4zm16 7.9c-.5-2.6-1.2-3.5-2.6-3.5-1.5 0-2-.7-2-2.4 0-2.3.2-2.4 2.9-1.5 4.6 1.6 6.4 5.1 4.6 9.2-1.1 2.7-2.2 2-2.9-1.8zm6.5-6.7c-.1-1-2.4-5-5.1-8.8-3.9-5.5-4.9-7.6-4.4-9.5.4-1.6 0-3-1-4-2.2-2.2-2-6.8.3-8.9 1.9-1.7 2.1-1.7 5 1.6 1.7 1.8 3.5 4.5 4 6 .9 2.4.6 3-2 4.8-3.8 2.8-4.1 7-.4 7 1.6 0 2.5.6 2.5 1.5 0 .8.4 1.5.9 1.5 1.5 0 2.3 5.4 1.2 8.1-.7 1.7-1 1.9-1 .7z" fill="#dedede"/><g fill="#d6d6d6"><path d="M43.3 52.1c1.3-4.8 3.7-4.5 3.7.5 0 2.9-.3 3.4-2.4 3.4-2.2 0-2.3-.2-1.3-3.9zM29 47.8c0-3.2 1.4-6.7 2.3-5.8.3.3.8 2.4 1.2 4.8.6 3.8.5 4.2-1.4 4.2-1.7 0-2.1-.6-2.1-3.2zm5.4.2c.3-1.9.2-2.9-.4-2.5-1.3.8-1.3-.1 0-2.6 1.3-2.4 4.8-2.5 6.6-.1 1.8 2.3 1.7 3.7-.1 2.2-1.3-1.1-1.5-.8-1.5 1.4 0 1.6-.5 2.6-1.5 2.6-.8 0-1.5.5-1.5 1 0 .6-.5 1-1.1 1-.7 0-.9-1.1-.5-3zm10.4-2.7c0-1 0-2.7.1-3.8.3-3.2-.7-4.9-2.3-3.6-1.8 1.5-2.6.4-2.6-3.6 0-2.8.4-3.3 2.4-3.3 1.9 0 2.2.4 1.9 2.4-.4 1.7.1 2.7 1.6 3.5 1.7.9 2.1 2.1 2.1 5.6 0 3.3-.4 4.5-1.5 4.5-.8 0-1.6-.8-1.7-1.7z"/><path d="M15.4 44.5c-.4-.8-1.8-1.5-3.2-1.5H9.5l2.8-2.7c2.6-2.6 2.9-2.7 3.8-1 .6.9 1.5 1.7 2.1 1.7.7 0 .6-.5-.2-1.5-.7-.8-.8-1.5-.3-1.5.6 0 1.4-1.9 1.9-4.2.8-3.6 1.3-4.3 3.2-4.1 1.8.2 2.1-.1 1.6-2.5-.4-1.9.1-3.4 1.5-4.9 1.2-1.2 2.3-4.3 2.7-7.3.5-3.9 1.2-5.4 2.5-5.7C32.2 9 33 8.4 33 8c0-1.5 6.1-2.2 8.9-1.1 3.1 1.3 6.6 6.5 5.5 8.2-.4.7-1 3.7-1.3 6.8l-.6 5.6h-6.2c-6.1 0-6.3 0-6.3 2.6 0 2-.6 2.8-2.6 3.3-3.7 1-7.3 5.5-7.4 9.4 0 3-.2 3.2-3.5 3.2-2.2 0-3.8-.6-4.1-1.5zM38 13c-1.9-1.2-4.7-1.3-5.4-.2-.3.5 1.1.9 3.2 1 2.7.1 3.3-.1 2.2-.8zm25.9 25.8c-1.3-1.8-3.4-4.8-4.7-6.5L56.8 29h3.1c2.9 0 3.1.2 3.1 3.5 0 3.1.3 3.5 2.5 3.5 2 0 2.5.5 2.5 2.4 0 3.8-1.6 3.9-4.1.4zM57 25c0-.5 1.5-2 3.4-3.2 2.6-1.8 3.1-2.6 2.1-3.4-1.4-1.4-4.5 0-4.5 2.1s-1.7 1.8-3-.4c-.8-1.6-.6-2 .8-2.4 1.6-.4 1.6-.5 0-.6-2.4-.1-2.3-1.6.2-4.1l2-2 3 3.3c1.6 1.9 3.4 4.7 4 6.3.9 2.4.8 3.1-.6 4.1-2.1 1.5-7.4 1.7-7.4.3z"/></g><g fill="#cecece"><path d="M37 60c0-1.9.5-4.2 1-5 .7-1.1 1-.6 1 2 0 1.9-.5 4.2-1 5-.7 1.1-1 .6-1-2zm3 .4c2.6-6.9 5-8.5 5-3.5 0 4.4-1 6.1-3.6 6.1-2.1 0-2.3-.3-1.4-2.6zm4.7-14.3c.3-3.3.3-6.7 0-7.6-.6-1.4-.9-1.4-3.2.1-1.4.9-2.2 2-1.9 2.5.3.5 0 .9-.5.9-.6 0-1.1-1.6-1.1-3.5 0-3.2.2-3.5 3-3.5 1.7 0 3 .5 3 1 0 .6.8 1.3 1.8 1.7.9.3 2.4 1.1 3.2 1.8.8.6 3.8 2 6.5 3 2.8.9 5.6 2.5 6.3 3.3 1.9 2.5 1.5 5.2-.8 5.2-1.4 0-2-.7-2-2.4 0-2.1-.6-2.4-4.7-2.9-5.8-.6-6.3-.4-6.3 3.4 0 2.2-.5 2.9-2 2.9-1.8 0-1.9-.5-1.3-5.9zm-15.4.4c-1.5-1.7-1.7-7.5-.3-7.5s3 3.5 3 6.4c0 2.9-.9 3.2-2.7 1.1z"/><path d="M34.8 45.8c.4-1.6.2-1.9-.9-1.2-1 .6-.9.1.3-1.8 1.6-2.5 1.6-2.6-1.3-4.8-3.8-2.7-8-2.1-7.2 1 .3 1.1 0 2-.6 2S24 42.4 24 44c0 2.8-.3 3-3.5 3-3.1 0-3.5-.3-3.6-2.7 0-1.6-.3-2.2-.6-1.5-.2.6-2.1 1.2-4.1 1.2l-3.7-.1 3.4-2.9 3.3-2.8 2.5 2.6 2.5 2.7-1.6-2.7c-1.2-2.1-1.3-2.8-.4-2.9.7 0 2.3-1.3 3.6-3 1.9-2.3 2-2.9.8-2.9-.9 0-1.6-.4-1.6-.9 0-1.2 6.7-2.4 8.2-1.5.7.4.8.3.4-.4s-1.7-1.2-3-1.2c-2.6 0-3-2.4-1-5.5.8-1.1 1.4-2.7 1.4-3.5 0-4.2 2.5-6.9 7.3-8 6.1-1.3 9.7-1.3 9.7 0 0 .6.7 1 1.5 1 1.4 0 2 1.4 1.5 3.5-.2.6-.4 3-.6 5.5-.5 7.6-1.4 11-2.9 11-.8 0-1.5-.6-1.5-1.3 0-.9-1.1-1.2-3.5-.9-2.6.3-3.5.9-3.5 2.2 0 1-.8 2.1-1.7 2.3-1.1.3-.7.5 1 .6 2.7.1 2.7.2 2.7 6.6 0 4.9-.3 6.5-1.4 6.5-1 0-1.2-.7-.8-2.2zm7.6-21.6c.2-.4-.1-1.5-.8-2.4-1.2-1.6-1.4-1.6-2.4.7-1 2.2-.9 2.5.8 2.5 1 0 2.1-.3 2.4-.8zM33.5 19c.8-.7 3.6-1 6.5-.8 4.9.3 5.1.2 4.8-2.2-.2-1.8-1-2.6-2.8-2.8-1.4-.1-4.2-.5-6.2-.8-3.1-.5-3.8-.3-3.8 1 0 1.4.7 1.6 3.8 1.2 2-.3 4.4-.1 5.2.4 1.2.8 1.1 1-.8 1-1.2 0-3.8.7-5.7 1.4-2.9 1.2-3.5 2-3.4 4.3.1 2.2.3 2.4.6.6.2-1.2 1.1-2.7 1.8-3.3zm30.8 19.7C55.8 29 55 25.1 60.9 22c3.4-1.7 4-1.8 4.5-.4.9 2.3.8 2.4-1.3 2.4-1.1 0-2.1.9-2.5 2.3-.9 3.3-.8 3.7.9 3.7.8 0 1.5.7 1.5 1.5s.5 1.5 1 1.5c.6 0 1 .9 1 2s.5 2 1 2c1.2 0 1.3 2.7.1 3.4-.4.3-1.7-.5-2.8-1.7zm-9.2-18.5c-1.6-2.9-1.4-4.6.8-6.6 1.7-1.5 1.9-1.5 3.9.1l2.1 1.8-2.9 3.4c-2.7 3.2-2.9 3.2-3.9 1.3z"/></g><g fill="#c5c5c5"><path d="M35 60.5c0-2.8.4-3.5 2-3.5 2.1 0 2.4 1 1.4 4.8-1 3.6-3.4 2.7-3.4-1.3zm4 2.8c.1-.5.7-1.9 1.5-3.3l1.4-2.5.1 3.3c0 2.2-.5 3.2-1.5 3.2-.8 0-1.5-.3-1.5-.7zM29 48.6c0-4.5 2.6-5.6 3.4-1.4.9 4.5.8 4.8-1.4 4.8-1.6 0-2-.7-2-3.4zm5 2c0-.7.3-2.8.6-4.5.6-2.6 1.1-3.1 3.5-3.1 1.6 0 2.9.4 2.9 1s-.6.9-1.2.8c-.8-.2-1.2.7-1 2.4.2 1.8-.3 3-1.7 3.7-2.6 1.4-3.1 1.4-3.1-.3zm-29-2c0-.7 1.9-3.1 4.3-5.2l4.2-3.9.3 2.8c.2 1.8-.4 3.6-2 5.2C9.3 50.2 5 50.9 5 48.6zm52-3.1c0-2.1.3-2.3 2.3-1.6 3.3 1.2 3.5 4.1.3 4.1-2.1 0-2.6-.5-2.6-2.5z"/><path d="M16 42.3v-2.6l2.6 2.4 2.7 2.4-1.7-2.6C17.9 39.2 18.3 38 21 38c2.2 0 3.6-6 1.8-7.2-1-.6-.9-.8.2-.8.9 0 2.7.8 4 1.7l2.5 1.7-1.9-2.2c-1.7-1.9-1.7-2.2-.3-2.2 1 0 1.7.5 1.7 1 0 .6.8 1 1.7 1 1.3 0 1.4-.3.5-1.2-.7-.7-1.2-2-1.2-3 0-1.1-.5-1.5-1.4-1.2-1.1.4-1.4-.9-1.3-6.5 0-6.5.2-7.2 2.9-9.6 2.2-1.9 4.2-2.7 7.5-2.8 3.9-.2 4.8.2 7.5 3.1 2 2.3 2.7 3.9 2.2 5-.4 1-1 4.9-1.5 8.8-.4 4-1.2 8.1-1.7 9.1-1.2 2.1-.6 3.3 2.3 4.9 1.1.6 2.1 2.3 2.3 3.8.3 2.1-.1 2.6-1.8 2.6-1.2 0-1.9-.4-1.6-.9.4-.5.2-2.1-.4-3.6-.8-2.2-1.3-2.4-3-1.5-1.6.9-2 .8-2-.5 0-.9-.9-1.5-2.4-1.5-1.3 0-2.7-.6-2.9-1.2-.3-.7-.6-.3-.6 1-.1 2.4-1.1 2.8-2.8 1.1-.8-.8-1.3-.3-1.8 2-.5 2.6-1.1 3.1-3.6 3.1-1.9 0-2.9.5-2.9 1.5S21.9 45 19.5 45c-3.1 0-3.5-.3-3.5-2.7zM41.2 25c2.9.6 3.8.4 3.8-.6 0-.8-.7-1.4-1.5-1.4-.9 0-1.8-.7-2.1-1.5-.5-1.2-.9-1.2-2.8 0-1.2.8-3.1 1.2-4.3.9-1.9-.5-2.1-.9-1.2-2.6 1-1.8 1.7-1.9 6.5-1.3 4.9.6 5.4.5 5.4-1.2 0-3.6-2.4-7.3-4.7-7.3-1.3 0-2.3.5-2.3 1 0 .6-1.4 1-3.1 1-2.6 0-3 .4-2.8 2.3.1 1.2-.1 2.9-.4 3.7-2.1 5.6-1 8.2 3 7.1 1.6-.4 4.5-.4 6.5-.1zm20.3 9.9c-5-7-5.3-7.9-2.1-7.9 2.3 0 2.6.4 2.6 3.5 0 3 .3 3.5 2.4 3.5 2.3 0 3.6 1.6 3.6 4.6 0 2.9-2.9 1.2-6.5-3.7zm-2.2-11.4c3.2-2.9 5.5-3.2 6.4-.9.8 2.1-1.4 3.4-5.7 3.4l-3.5-.1 2.8-2.4zm-4.6-4.7c-.6-2.2 1.6-6.8 3.2-6.8.5 0 1.4.7 2.1 1.5 1 1.1.9 1.8-.4 3-.9.9-1.6 2.3-1.6 3.1 0 2.3-2.7 1.6-3.3-.8z"/></g><g fill="#bdbdbd"><path d="M34.4 62.6c.7-5.5.7-5.6-1.7-5.6-1.9 0-2.6-.6-3.1-3.1-.9-4.5-.7-7.9.3-7.9.5 0 1.1-.8 1.3-1.7.2-1 .8.7 1.2 3.7l.9 5.5.9-4c.5-2.1.6-4.6.3-5.3-.3-.8 0-2 .5-2.8.9-.9.5-1.7-1.4-2.9-1.4-1-2.6-2.4-2.6-3.1 0-.8-.4-1.4-1-1.4-.5 0-.7.7-.4 1.5.4.8.1 1.5-.5 1.5S28 38.1 28 39.4c0 1.6-.7 2.7-2 3.1-1.1.3-2 1.3-2 2.1 0 .9-1.1 1.4-3.5 1.4s-3.5-.5-3.5-1.5c0-.8-.4-1.5-1-1.5-.5 0-1-1.1-1-2.5V38l3 3.2c2.5 2.8 2.8 3 2.3 1.1-.3-1.3-1-2.3-1.7-2.3-.6 0-.4-.5.4-1s2.2-.7 3.1-.5c1.1.4 1.5-.3 1.5-3 0-4.4.9-5.3 3.7-3.6 2.2 1.4 2.2 1.4.3-.8-2.1-2.3-.9-2.8 2.7-1 2.1 1 2.1 1 .3-.5-1.1-.9-2.6-1.6-3.3-1.6-.7 0-1.3-.4-1.3-.9s.8-.8 1.8-.6c.9.1 1.2 0 .6-.2-1.4-.5-2.6-4.5-1.6-5.3.4-.3.8-2.5.9-5 .1-3.6.7-4.9 3-6.7 2.3-1.9 2.9-2 3.1-.7.2.8-.2 2.1-.8 2.9-.7.8-1.3 2.7-1.5 4.2-.2 1.5-.6 3.7-1 4.9-.9 2.8 3.3 7.8 5.8 6.9.9-.4 1.7-1.1 1.7-1.6s1.4-.9 3-.9c1.7 0 3 .5 3 1.1 0 .5.5.7 1 .4 1.2-.7.4 3.7-1.2 6.8-.5.9-.7 2.1-.4 2.6.3.5-.5 1.6-1.9 2.5-2.1 1.4-2.3 2-1.5 3.6 1.3 2.5 1.3 3.1-.2 2.7-.7-.1-1.2.6-1.1 1.6 0 1.2-.4 1.6-1.3 1.3-1.1-.4-1.3.3-.8 3.7.4 2.3 1.1 4.5 1.6 4.8.5.3.7 2.4.4 4.5-.6 3.7-.5 3.6 2.3-2.1 3.2-6.6 5.3-16 4.4-19.4-.7-2.8.1-2.7 4.3.7 3.9 3.1 4.3 4.2 1.5 4.2-1.6 0-2.1.9-2.7 4.5-.3 2.5-1 4.5-1.5 4.5s-.9 1.4-.9 3c0 2.3-.5 3-1.9 3-1.3 0-2 1.1-2.7 4.3-.8 3.8-1.2 4.2-4.3 4.5l-3.3.3.6-5.5zm-29-13c-.3-.8 1-3 3-5l3.6-3.5v3.4c0 2.4-.5 3.5-1.5 3.5-.8 0-1.5.7-1.5 1.5 0 1.9-2.9 2-3.6.1zM61.8 35L59 31.5l2.6-.3c3.3-.4 3.6-.1 3.2 3.9l-.3 3.4-2.7-3.5zM60 24c0-1.3 3.8-3.2 5-2.5 2.2 1.4 1 3.5-2 3.5-1.6 0-3-.4-3-1z"/><path d="M41.7 22.3c-1.6-1.5-.6-3.3 1.8-3.3 3.1 0 3.3 2 .3 2.1-2.2.1-2.2.1.2.9 2.2.7 2.2.8.4.9-1.1.1-2.4-.2-2.7-.6zM33 20.5c0-1.8 4.8-3.1 6.2-1.7 1.6 1.6 0 3.2-3.3 3.2-1.9 0-2.9-.5-2.9-1.5zm22.2-1.1c-1.1-2 .3-6 2.3-6.8.7-.2 1.9.3 2.7 1.2 1.2 1.5 1 2.1-1.3 4.5-2.5 2.5-2.8 2.6-3.7 1.1zM45 16.2c0-2.4-.5-2.7-6.2-3.7-4-.6-5.4-3.5-1.8-3.5 1.1 0 2-.4 2-1 0-2.3 4.1-.8 6.5 2.5 2.5 3.2 2.6 3.6 1.1 5.7L45 18.4v-2.2z"/></g><g fill="#b5b5b5"><path d="M34 64.5c0-2.8.4-3.5 2-3.5 1.2 0 2 .7 2 1.8.1 1.6.1 1.6 1.1 0 1.5-2.7 2.9-2.2 2.9 1.1 0 3-1.4 4.1-5.6 4.1-2.1 0-2.4-.5-2.4-3.5zm.8-18.1c-.2-2.5 0-4.8.4-5 1.4-.9.8-2.1-1.7-3.2-1.5-.7-2.5-2-2.5-3.2 0-1.2-.3-1.9-.7-1.7-.5.3-1.6-.6-2.6-1.9-2.1-2.9-.5-3.3 3.3-.8 1.9 1.2 1.8.9-.5-1.1-2.8-2.5-2.8-2.6-.6-2 1.6.5 2.1.4 1.7-.4-.4-.6-1.7-1.1-2.8-1.1-1.8 0-2-.4-1.4-3.7.3-2.1.6-5.5.6-7.6 0-3 .4-4 2-4.4 1.1-.3 2-.9 2-1.3 0-1.3 5.7-2.9 7.9-2.3C41.1 7 42 7.9 42 8.6c0 .8.9 1.4 1.9 1.4 1.9 0 3.1 1.8 3.1 4.7 0 1.4-.2 1.4-1.8 0-1-1-2.4-1.7-3-1.7-.7 0-1.2-.7-1.2-1.5s-.4-1.5-1-1.5c-.5 0-1 .5-1 1.1 0 .7-1.1.9-3 .6-3.1-.7-4.1.1-4.7 3.7-.2 1.2-.6 3.5-.9 5.1-.3 2.2.1 3.8 1.9 5.9l2.4 2.9 2.1-2.1c5-5 10-.5 6.6 5.9-1 1.9-1.8 3.8-1.9 4.2 0 .4-.6 1.1-1.4 1.6-1 .6-1 1.3-.2 2.9.8 1.6.7 2.1-.4 2.6-1 .4-1.3 1.4-.9 3.6.6 2.5.3 3-1.4 3s-2.1-.8-2.4-4.6z"/><path d="M27.3 43.8c-.6-2.4-1.1-5.4-1.2-6.8 0-1.4-.5-2.6-1.1-2.8-1.5-.5-1.2-3.2.5-3.2 1.8 0 3.6 3.1 5.2 9 1.7 6.3 1.6 8-.5 8-1.2 0-2.1-1.3-2.9-4.2zm-17.2-.5c.6-1 2.1-2.5 3.2-3.4 2.1-1.5 2.3-1.4 4.5 1.3 1.3 1.5 1.9 2.8 1.3 2.8-.6 0-1.1-.4-1.1-1 0-.5-.7-1-1.5-1s-1.5.7-1.5 1.5c0 1-1 1.5-3 1.5-2.6 0-2.9-.2-1.9-1.7zm37.9-.7c0-2.3.2-2.4 3.5-1.3 1.9.6 3.5 1.6 3.5 2.4 0 .8-1.3 1.3-3.5 1.3-3 0-3.5-.3-3.5-2.4zm-27-.9c0-1.6.6-2.3 2-2.4 1.5-.1 2 .4 2 2.3 0 1.7-.5 2.4-2 2.4-1.4 0-2-.7-2-2.3zm40.2-7.6c-2.3-3.3-4.2-6.7-4.2-7.5 0-1.4 3.6-4.6 5.2-4.6 1.3 0 .9 4.8-.4 5.3-1 .4-1 .6 0 .6.7.1 1.2 1.5 1.2 3.6 0 3.1.3 3.5 2.6 3.5 2 0 2.5.4 2.2 2.2-.5 3.8-2.3 3-6.6-3.1zM41.7 22.3c-1.6-1.5-.6-3.3 1.8-3.3 1.8 0 2.5.5 2.5 2 0 2-2.8 2.8-4.3 1.3zM33 21.2c0-.5.7-1.5 1.5-2.2 1.7-1.4 5.8-.4 5.2 1.3-.4 1.4-6.7 2.2-6.7.9zm22.7-.8c-1.3-1.4-.7-5.1 1.2-6.8 1.7-1.5 1.9-1.5 3.2 0 1.1 1.4 1.1 1.8-.2 2.8-.9.6-2 1.9-2.5 2.9-.6 1-1.3 1.4-1.7 1.1z"/></g><g fill="#adadad"><path d="M34 65.6c0-1.9.5-2.6 2-2.6 1.4 0 1.8.5 1.4 1.8-.5 1.6-.5 1.6.9 0 1.9-2.4 2.9-2.2 2.5.5-.2 1.7-1.1 2.3-3.5 2.5-3 .3-3.3.1-3.3-2.2z"/><path d="M35 58.5c0-2.8.4-3.5 2-3.5 2.1 0 2.4 1 1.4 4.8-1 3.6-3.4 2.7-3.4-1.3zm5 2.8c0-.5.5-1.5 1-2.3.8-1.2 1-1.1 1 .8 0 1.2-.4 2.2-1 2.2-.5 0-1-.3-1-.7zm3.7-8.5c.8-2.4 1.6-6.9 1.6-10 .2-6.1.9-7.1 2.7-3.9.5 1.1 3.3 2.6 6.2 3.5 6.9 2.1 7.7 2.6 8.4 6.4.6 2.8.4 3.2-1.5 3.2-1.5 0-2.1-.6-2.1-2.4 0-2-.6-2.4-4-3-3.1-.5-4-1.1-4-2.6 0-1.1-.4-2-1-2-.5 0-1 1.1-1 2.5 0 1.3-.5 4.7-1.1 7.5-.9 4.3-1.4 5-3.4 5-2.4 0-2.4 0-.8-4.2zM31 50.5c0-.8-.7-1.5-1.5-1.5-1 0-1.5-1.1-1.5-3.5 0-4.6 2.6-4.8 3.5-.2.4 1.7.9 4 1.1 5 .3.9.1 1.7-.5 1.7s-1.1-.7-1.1-1.5zm3 .3c0-3 1.3-5.8 2.6-5.8.9 0 1.4 1.2 1.4 3.5 0 2.8-.4 3.5-2 3.5-1.1 0-2-.6-2-1.2zm-12.8-9c.3-.7 1.5-1.8 2.7-2.4 2-1 2.7-3.3.9-2.6-.5.1-.8-1.2-.8-2.8 0-1.9.5-3 1.4-3 1.9 0 5.1 5.1 3.8 5.9-.6.3-1.4 1.9-1.7 3.4-.6 2.2-1.3 2.7-3.7 2.7-1.9 0-2.8-.4-2.6-1.2zM37 38.5c0-1.9-.4-3.5-1-3.5-.5 0-1 .5-1 1 0 1.9-2.8 1-3.3-1.1-.3-1.2-1-1.8-1.5-1.5-.5.3-1.4-.6-2-1.9-1.3-2.9-.6-3.1 2.8-.9 1.8 1.1 1.7.9-.5-1.1l-3-2.6 3 .7c1.7.3 4 1.7 5.2 3 2.6 2.9 7.3 3.3 7.3.7 0-1.5-.2-1.5-.9-.4-.6.9-1.6 1.1-2.7.6-1.8-.7-1.8-.8.1-1.6 1.6-.8 1.5-.8-.7-.4-1.6.3-2.8.1-2.8-.5 0-.5.7-1 1.5-1 .9 0 1.2-.6.9-1.5-1-2.5 1.8-1.7 4.3 1.1 2.1 2.4 2.1 2.8.8 5.5-.8 1.5-1.9 3.1-2.5 3.4-.6.4-.8 1.1-.5 1.6.4.5.1.9-.5.9-.7 0-1 .7-.6 1.5.3.9 0 1.5-.9 1.5-1 0-1.5-1.1-1.5-3.5zm25.7-2.6L59.9 32h3c2.4 0 3.1.4 3.1 2 0 1.1.5 2 1 2 1.5 0 1.2 2.7-.3 3.3-.7.2-2.5-1.3-4-3.4z"/><path d="M29.4 26.3c-1.7-.3-2-1.2-2-6.3-.1-5.2.2-6 1.8-6 2 0 2.4 2.4.8 6.5-.8 2-.7 3 .5 4.1 1.3 1.3 2.1 2.7 1.3 2.3-.2-.1-1.2-.4-2.4-.6zM58 25.1c0-1.4 6.4-4.1 7.4-3.1 1.8 1.8-.3 4-3.9 4-1.9 0-3.5-.4-3.5-.9zm-16-3.6c-1-1.2-.9-1.6.3-2.1 1.7-.6 3.7.2 3.7 1.6 0 1.5-2.9 1.9-4 .5zm-8.4-.3c-.3-.5 0-1.5.7-2 1.6-1.4 5.9-.4 5.4 1.2-.5 1.4-5.3 2-6.1.8zm22.1-.8c-.4-.4-.7-1.5-.7-2.5 0-1.3.5-1.6 1.7-1.2 1.3.5 1.5.2 1.1-1.5-.8-2.8.6-3.7 2.3-1.6 1.1 1.3 1 1.7-.5 2.6-.9.5-2.1 1.9-2.5 2.9-.4 1.1-1 1.7-1.4 1.3zM28 12.2c0-.8 5.4-5.2 6.5-5.2 1.2 0 .3 3.4-1.2 4.6-2 1.5-5.3 1.8-5.3.6z"/></g><g fill="#a5a5a5"><path d="M35.6 62.1c-.5-3.5-1-4.1-3-4.1-2.4 0-3.6-2.8-3.6-8.6 0-3.8 2.7-2.8 3.7 1.4l1 3.7.7-5.2c.4-2.9.5-5.7.2-6.2-.4-.5.1-1.4 1-1.9 1.3-.7 1.2-1.1-1-2.6-1.4-.9-2.6-2.5-2.6-3.6s-.7-2-1.5-2-1.9-.9-2.5-2c-1.2-2.3.2-2.7 2-.5.7.8 1.8 1.5 2.4 1.5.6 0-.2-1.2-1.8-2.6l-2.8-2.5 2.8.7c1.6.3 3.8 1.7 4.9 3 2.3 2.7 7 3.2 7.8 1 .6-1.6-1.2-2.5-5.1-2.7-1.6-.1-2-.3-1-.6.9-.2 1.8-1.2 2-2.1.2-1.3.8-1.1 3.1 1.2 2.9 2.9 2.8 4.1-1.5 9.5-1 1.3-1.6 3.2-1.3 4.2.6 1.7-1.1 5.7-2.8 7-1.1.8.2 5.9 1.5 5.9.5 0 .6 1.9.2 4.8-1 6.9-2 8.1-2.8 3.3zm3.4 1.3c2.6-6.9 5-8.5 5-3.5 0 4.4-1 6.1-3.6 6.1-2.1 0-2.3-.3-1.4-2.6z"/><path d="M18 44.4c0-2.2.2-2.5 1.5-1.4 1.2 1 1.5 1 1.5-.4 0-.8 1.4-2.3 3.2-3.2 2.9-1.5 3-1.7 1.4-3-1.8-1.3-1.5-5.4.4-5.4 1.4 0 3.4 4.1 3.6 7.3.1 2.2-.2 2.7-2.2 2.7s-2.4.5-2.4 3c0 2.8-.3 3-3.5 3-3.1 0-3.5-.3-3.5-2.6zm27.6-3.6c-1-3.8-.7-4.2 1.4-2.3 2.3 2.1 2.6 4.5.6 4.5-.7 0-1.6-1-2-2.2zM60.8 33L58 29.5l2.6-.3c3.3-.4 3.6-.1 3.2 3.9l-.3 3.4-2.7-3.5zM57 27.1c0-1.2 2.9-4.1 4.1-4.1.5 0 .9 1.1.9 2.5 0 2-.5 2.5-2.5 2.5-1.4 0-2.5-.4-2.5-.9zM30.5 26c-.3-.5-1.1-.7-1.8-.4-.9.3-1.2-1.4-1.3-6.1-.1-5.7.1-6.5 1.8-6.5 2 0 2.3 1.8.8 6.9-.7 2.6-.6 3.7.5 4.8.8.8 1.5 1.6 1.5 1.9 0 .7-.9.4-1.5-.6zm5.5-5.5c0-.9.9-1.5 2.1-1.5 1.8 0 1.9.2.9 1.5-.7.8-1.6 1.5-2.1 1.5s-.9-.7-.9-1.5zm5.7.9c-.9-1 .2-2.4 1.9-2.4.8 0 1.4.7 1.4 1.5 0 1.5-2.1 2.1-3.3.9zM58 14.5c0-.9.5-1.5 1.1-1.3.6.2 1.1.8 1.1 1.3s-.5 1.1-1.1 1.3c-.6.2-1.1-.4-1.1-1.3zm-13.5-1c-.5-.2-2.7-.6-4.7-1-2.2-.3-3.8-1.2-3.8-1.9 0-.8 1.5-1.6 3.8-1.9 2.9-.4 4.1 0 5.5 1.5 2.6 3 2.2 4.3-.8 3.3z"/></g><g fill="#9c9c9c"><path d="M41.3 58.8c1.9-4.6 3.7-4.8 3.7-.4 0 3.2-.3 3.6-2.5 3.6-2.4 0-2.5-.1-1.2-3.2zm-6.5-2.5c-.1-2.1-.1-4.9 0-6.3 0-1.4.2-4 .3-5.7 0-1.8.6-3.3 1.3-3.3.6-.1-.2-1.1-1.8-2.4-2.2-1.9-2.8-3-2.4-5 .4-2-.1-3.2-2.1-4.8-1.7-1.4-1.9-1.9-.8-1.5 1 .4 2.3.7 2.7.7.5 0 2 1.1 3.2 2.5 1.3 1.4 3.6 2.6 5.1 2.7 3.2.3 3.5 1.3.7 2.8-1.1.6-1.8 1.5-1.5 2.1.4.5.1.9-.6.9-.8 0-.8.4.1 1.5s.9 1.9.2 2.8c-.6.7-.9 3.5-.7 6.2.6 6.3-.3 10.5-2.1 10.5-.9 0-1.5-1.3-1.6-3.7zm-3.8-7c0-4.3.5-4.1 1.3.5.4 1.8.2 3.2-.3 3.2-.6 0-1-1.6-1-3.7zm14-.5c0-3 1.3-5.8 2.6-5.8.9 0 1.4 1.2 1.4 3.5 0 2.8-.4 3.5-2 3.5-1.1 0-2-.6-2-1.2zM9 46.7c0-2.9 2.9-5.7 5.9-5.7 2 0 2.2.4 1.9 3.8-.3 3.5-.5 3.7-4 4-3.4.3-3.8.1-3.8-2.1zm47-1.1c0-2.3.2-2.4 3-1.5 1.7.6 3 1.7 3 2.5 0 .9-1.1 1.4-3 1.4-2.5 0-3-.4-3-2.4zM23 41c0-.6 1.1-1.6 2.5-2.2 2.4-1.1 2.4-1.2.6-2.5-1.2-.8-1.7-2-1.4-3.2.6-2.2 3.3-1.7 3.3.5 0 .8.4 1.4.8 1.4s.8 1.6.9 3.5c.1 3.3-.1 3.5-3.3 3.5-1.9 0-3.4-.5-3.4-1zm38.5-7.1c-4.9-6.9-5-7.3-1.9-9.8C63 21.4 66 21.3 66 24c0 1.3-.7 2-2 2-1.6 0-2 .7-2 3.5 0 3.1.3 3.5 2.5 3.5 2.1 0 2.5.5 2.5 3 0 1.7-.4 3-.9 3s-2.6-2.3-4.6-5.1z"/><path d="M28 30.9c-1.1-1.9-1-2 .9-.9 1.2.6 2.1 1.5 2.1 2 0 1.8-1.9 1.1-3-1.1zm11-2c-1.9-.3-2.7-.7-1.7-.8.9 0 1.7-.8 1.7-1.6 0-.9.6-1.2 1.5-.9.8.4 1.3 1 1 1.4-.3.5.3 1 1.2 1.2 1 .2 1.4.6.8.9-.5.3-2.6.2-4.5-.2zM28.1 18.4c-1.5-4.5-.3-8.4 2.4-8.4.8 0 1.5-.5 1.5-1.1 0-.8 1.8-1 6.1-.5 6.5.6 8.8 2.3 8.8 6.1 0 1.7-.1 1.8-1.2.5-.7-.9-3.6-2.1-6.6-2.8-6.6-1.5-7.7-.7-8.9 5.9l-.9 4.4-1.2-4.1z"/><path d="M35.3 21.3c-2.2-.8-1.4-2.3 1.3-2.3 1.5 0 2.4.5 2.2 1.2-.5 1.4-1.8 1.8-3.5 1.1z"/></g><g fill="#949494"><path d="M34 63.5c0-2.8.4-3.5 2-3.5 2.1 0 2.4 1 1.4 4.8-1 3.6-3.4 2.7-3.4-1.3zm4 2.8c.1-.5.7-1.9 1.5-3.3l1.4-2.5.1 3.3c0 2.2-.5 3.2-1.5 3.2-.8 0-1.5-.3-1.5-.7zm4.3-9.5c1.9-4.6 3.7-4.8 3.7-.4 0 3.2-.3 3.6-2.5 3.6-2.4 0-2.5-.1-1.2-3.2zm-7.7-1.5c-.4-2.1-.2-5.2.3-7 .5-1.8.7-4.1.4-5.1-.3-1.3.2-2.1 1.6-2.5 2.1-.5 3.8 1.8 2 2.9-.7.4-.8 2.3-.4 5.1.8 5.3-.2 10.3-2 10.3-.8 0-1.6-1.6-1.9-3.7zM29 51.6c0-4.5 2.6-5.6 3.4-1.4.9 4.5.8 4.8-1.4 4.8-1.6 0-2-.7-2-3.4zm-22.3-.3c-2-1.9 1.9-8.3 5-8.3.6 0 1.3-.9 1.6-2 .7-2.7 1.8-2.5 5.2 1l2.9 3h-3.2c-2.7 0-3.2.4-3.2 2.3 0 1.3-.5 2.8-1.2 3.5-1.3 1.3-6 1.6-7.1.5zM58 48.1c0-.5-1.8-1.1-4-1.5-3.4-.5-4-1-4-3.1v-2.4l6 2.1c4.3 1.6 6 2.7 6 4 0 1.1-.7 1.8-2 1.8-1.1 0-2-.4-2-.9zm-36.3-4.8c-1.4-1.3-.6-2.4 2.9-3.9s3.5-1.5 1.6-3.2c-1.3-1.2-1.7-2.3-1.2-3.7.6-1.8.8-1.7 2.5.9 2.5 3.8 2.7 6.6.3 6.6-1.1 0-1.8.7-1.8 2 0 2-2.8 2.8-4.3 1.3zm12.4-5.2c-.7-.5-1.4-2.3-1.6-4.2-.1-1.9-1.1-4-2.5-5.1-1.2-1-1.9-1.8-1.6-1.8 1.5 0 6.2 3 7.8 4.9 1 1.2 3 2.1 4.5 2.1 2.7.1 2.7.1.8 1.5-1.1.8-2.5 1.9-3.2 2.5-1.5 1.2-2.4 1.2-4.2.1zm28-3.6L58.9 30h3c2.6 0 3.1.4 3.1 2.5 0 1.6.6 2.5 1.5 2.5.8 0 1.5.9 1.5 2 0 3.3-2.5 2.3-5.9-2.5z"/><path d="M28.2 30.9C27 29 27.1 29 29 30c1.1.6 1.8 1.5 1.5 2.1-.8 1.2-.8 1.2-2.3-1.2zM58 26.1c0-1 1.9-2.6 4.3-3.4 1.3-.5 1.7-.1 1.7 1.8 0 2.1-.5 2.5-3 2.5-1.6 0-3-.4-3-.9zm-16-5.6c0-.8.7-1.5 1.5-1.5s1.5.7 1.5 1.5-.7 1.5-1.5 1.5-1.5-.7-1.5-1.5zm-13.1 0c-2.2-3.8-1.8-6.5 1.3-10C33 7.5 34.1 7 37.8 7c3.4 0 4.8.6 6.7 2.6 1.4 1.5 2.5 3.6 2.5 4.7 0 1.8-.1 1.8-1.7-.2-1.3-1.6-3.3-2.4-7.4-2.8-6.3-.6-6.6-.4-7.7 5.9-.4 2.4-1 3.9-1.3 3.3zm5.6-.5c.3-.5 1.5-1 2.6-1 1 0 1.9.5 1.9 1 0 .6-1.2 1-2.6 1-1.4 0-2.3-.4-1.9-1z"/></g><path d="M34.5 55c-1-1.6.5-7 2-7 1.4 0 2.3 3.4 1.7 6.3-.4 1.9-2.7 2.3-3.7.7zM31 52.5c0-1.6-.6-2.5-1.5-2.5-.8 0-1.5-.8-1.5-1.9 0-1-.7-3.4-1.5-5.2l-1.4-3.4-.1 4.3c0 4.1-.1 4.2-3.5 4.2-3.1 0-3.5-.3-3.5-2.5 0-1.4-.4-2.5-1-2.5-.5 0-1 1.6-1 3.5 0 3.4-.1 3.5-3.7 3.5H8.6l3-3.2c2.8-3.2 2.8-3.2.1-.9-2.5 2.3-2.7 2.3-2.7.5 0-1.1 1.3-3.3 2.9-4.8l2.9-2.7 2.7 2.5c3.1 2.8 4.7 3.4 3.9 1.2-.3-.8.8-2 3-3 2-.9 3.6-2.1 3.6-2.7 0-.6-.4-.8-.9-.4-1.1.6-2.6-3.4-1.6-4.3.8-.8 3.8 3.3 4.1 5.7.2.9.7 3.4 1.2 5.6C32.7 51.4 33.1 55 32 55c-.5 0-1-1.1-1-2.5zm13.3-1c.6-1.9 1.6-3.5 2.4-3.5.8 0 1.3 1.3 1.3 3.5 0 3-.3 3.5-2.4 3.5-2.3 0-2.4-.2-1.3-3.5zm14.7-1c0-1.8-.5-2.5-2-2.5-1.1 0-2-.4-2-1 0-.5-1.1-1-2.4-1-4.2 0-5.6-1.1-5.6-4.1v-2.8l3.3 1.8c1.7 1 4.9 2.4 7 3.1 3.9 1.2 6.4 4.8 5.3 7.7-.9 2.3-3.6 1.5-3.6-1.2zM33.5 36.1c-.9-1.8-1.4-3.5-1.1-3.9.3-.3-.1-1.3-1-2.3-1.5-1.6-1.4-1.7.6-1.2 1.2.3 2.8 1.6 3.6 2.9.9 1.2 2.8 2.4 4.2 2.6l2.7.4-3 1.4c-1.6.8-3.3 1.9-3.6 2.4-.4.5-1.5-.6-2.4-2.3zm28.2-2.4c-4.5-6.5-4.6-8.2-.7-10.2 3.8-2 4.7-1.9 5.3.5.4 1.5 0 2-1.4 2-1 0-1.9.7-1.9 1.5 0 .9 1 1.5 2.6 1.5 2.4 0 2.5.2 2.2 4.7-.2 2.5-.8 4.8-1.4 5-.6.2-2.7-2.1-4.7-5zM42.2 20.9c.2-.6.8-1 1.3-1s1.1.4 1.3 1c.2.6-.4 1.1-1.3 1.1s-1.5-.5-1.3-1.1zM35 20c2-1.3 4-1.3 4 0 0 .6-1.2 1-2.7 1-2.2 0-2.5-.2-1.3-1zm-7.2-3.2c-.4-2.7 0-3.8 2.4-6C33.5 7.7 36 7.2 36 9.5c0 .8-.8 1.5-1.8 1.5-1.9 0-4.7 4.4-4.3 6.7.1.6-.3 1.4-.8 1.7-.5.3-1.1-.9-1.3-2.6zm10.7-5c-1.9-1.1-2-4.8 0-4.8 2.3 0 6 2 7.2 4 1.1 1.6.8 1.8-2.2 1.7-1.9-.1-4.1-.5-5-.9z" fill="#8c8c8c"/><path d="M34.6 66.4c-.3-.9-.6-2.9-.6-4.5 0-2.3.4-2.9 2.1-2.9 1.9 0 2 .4 1.5 4.3l-.7 4.2 1.9-3.3c1.9-3.5 3.2-3.3 3.2.4 0 3.4-6.2 4.9-7.4 1.8zm8.7-11.6c.8-1.8 1.7-5 2.1-7 .4-2.1 1.1-3.8 1.6-3.8.6 0 1-.9 1-2 0-1.7.2-1.8 2.8-.5 1.5.7 3.9 1.8 5.5 2.4 4.6 1.8 3.3 3.5-2.3 2.8-4.8-.6-5-.5-5 1.8 0 1.4-.4 2.5-1 2.5-.5 0-1 1.6-1 3.5 0 3.1-.3 3.5-2.5 3.5-2.5 0-2.5-.1-1.2-3.2zm-12.2-2.5l.1-3.8 1.3 3.5 1.2 3.5.9-4c.4-2.2.8-5.5.8-7.2 0-2.6.4-3.3 1.9-3.3s1.8.5 1.3 2.3c-.3 1.2-.6 4.6-.6 7.5V56h-3.5c-3.4 0-3.5-.1-3.4-3.7zM5.9 50.4c-1.1-1.4-.6-2.3 3.8-6.5l5.1-4.9 3.7 3.3c3 2.6 3.3 3.3 1.9 3.6-1 .2-2.9 1.6-4.3 3.2-2.9 3.3-8 4-10.2 1.3zm7.5-5.1c.8-1.9.2-1.6-2.5 1.3-2.3 2.5-2.3 2.6-.2 1.3 1.3-.7 2.5-1.9 2.7-2.6zm9.1-4.3c1-1.1 2.4-2 3.1-2 2.1 0 2.8-2.2 1-3.2-2-1.1-2.2-4-.1-3.2.8.4 1.5 1.2 1.5 2s.3 1.4.8 1.4c.4 0 .8 1.6.9 3.5l.2 3.5h-4.6c-4.5 0-4.6 0-2.8-2zm43-5.7c.2-2.1.2-3.2-.1-2.5-.9 2-3.2 1.4-5.3-1.7-2.9-4-2.6-5.6 1.3-7.5 1.9-.9 3.6-1.6 3.9-1.6 1 0 2.9 10.4 2.5 13.4-.1 1.6-.9 3.1-1.6 3.4-.9.3-1.1-.7-.7-3.5zm-32.4-1.2c-.6-1-.7-2.1-.3-2.5.3-.4 0-1.1-.8-1.6-.8-.6-1-1-.4-1s2.1 1.1 3.4 2.5c1.3 1.4 2.9 2.5 3.7 2.5.7 0 1.3.5 1.3 1 0 1.8-5.9 1.1-6.9-.9zM35.5 20c.3-.5 1.3-1 2.1-1s1.2.5.9 1c-.3.6-1.3 1-2.1 1s-1.2-.4-.9-1zM28 15.7c0-3 .5-4 2.5-4.9 1.4-.6 2.5-1.5 2.5-1.9 0-1.3 5.6-2 8.3-1 1.5.6 2.7 1.7 2.7 2.5 0 1.7-2.9 2.5-5.5 1.5-4.6-1.8-6.4-1-8.4 3.4l-2 4.2-.1-3.8z" fill="#848484"/><g fill="#7b7b7b"><path d="M34 64.2c0-3.1-.4-4.2-1.9-4.7-1.5-.4-2.3-2.1-3.1-6.3-.6-3.1-1.4-6.5-1.6-7.4-.6-2.2-4.4-2.4-4.4-.3 0 1-1 1.5-3.3 1.5-3.4 0-5.8 1.8-7 5.3-.9 2.5-4.2 2.1-6.2-.9-1.6-2.4-1.6-2.6.2-4 1-.7 2.1-1.4 2.5-1.4.4 0 .9-.8 1.2-1.8.3-.9 1.5-2.3 2.6-3 1.8-1.1 2.5-.9 5.7 1.5 2.7 2.1 3.5 2.3 3 1.1-.7-1.8 2.9-5.2 4.5-4.2.4.3 1.1-.2 1.5-1.2.4-1 0-2-1-2.6-2.1-1.1-2.3-3-.3-2.2 1.6.6 3.8 6.9 5.6 15.8 1.4 6.9 2.7 6 3.4-2.3.4-5.9.8-6.6 3.2-5.7 1.1.4 1.3 1 .6 1.9-.8 1.1-2.4 23.7-1.6 23.7.2 0 1.2-2 2.3-4.5 2.3-5.3 4.1-5.8 4.1-1.2s-1.1 5.8-5.9 6.4l-4.1.6v-4.1zM13 46.5c1.3-1.4 2.1-2.7 1.8-3-.2-.3-1.7.9-3.3 2.5-1.6 1.7-2.4 3-1.9 3 .6 0 2.1-1.1 3.4-2.5z"/><path d="M44.7 51.3c.8-2.7 1.2-6.9 1-9.6l-.4-4.8 2.9 2.8c1.6 1.5 5.2 3.4 8 4.3 4.2 1.3 5.3 2 5.9 4.3.4 1.6.5 3.5.2 4.3-.8 2.1-3.3 1.7-3.3-.6 0-1.1-.4-2-1-2-.5 0-1 1.2-1 2.6 0 2.6-.2 2.6-4.5 2.2-2.5-.3-4.5-.2-4.5.3s-1.1.9-2.4.9h-2.4l1.5-4.7zM34.2 34.8c-.7-.7-1.2-2-1.2-2.9 0-1-.6-2-1.2-2.2-.9-.4-.9-.6-.1-.6.6-.1 2 1 3.1 2.4 1.2 1.5 3 2.5 4.7 2.5 1.5 0 2.4.4 2 1-.9 1.4-5.8 1.3-7.3-.2zM28 14.7c0-2.3.8-3.1 5-5.1 2.9-1.4 5.9-2.2 7.2-1.9 2.9.7 6.8 4.2 6.8 6.1 0 1.3-.3 1.2-1.8-.1-1-1-2.8-1.7-4-1.7-1.1 0-3.2-.4-4.5-.9-2.8-1.1-4.3-.2-7.1 3.9L28 17.4v-2.7z"/></g><path d="M31.8 67.3c-2.1-.5-2.6-7.3-.5-7.3.7-.1.5-.6-.5-1.4-1-.7-1.8-2.4-1.8-3.7 0-2.4-.2-2.5-6.9-2.1l-6.9.4-.5-2.8c-.4-2.8-.4-2.8-.6-.3 0 1.4-.9 3.3-1.9 4.3-1.8 1.5-2 1.5-3.6-.3C6.9 52.3 7 52 11.4 48c2.5-2.4 4.6-4.9 4.6-5.8 0-1.3.2-1.3 1.8 0 3.2 2.8 4.4 3.1 4 1.2-.2-1.2.6-2.1 2.7-2.8 1.7-.6 3.3-1.5 3.6-2 .8-1 2.3 3.6 3.9 11.8.8 4.1 1.5 5.5 2.1 4.5.7-1.1.9-1 .9.4 0 1 .5 1.5 1 1.2.6-.3 1-2.3.9-4.3-.1-3.4-.2-3.5-.9-1.2-.6 1.7-.8.6-.5-3.5.2-4.4.7-6.1 1.8-6.3.8-.2 1.8.2 2.2.7.3.6.1 1.1-.4 1.1-.7 0-1.1 2.8-1.1 7.3 0 3.9-.3 9.6-.6 12.5-.7 5.3-1.1 5.7-5.6 4.5zm6.2.3c0-.2 1.4-3.5 3.1-7.3 1.8-3.7 3.8-9 4.5-11.8 1.1-4.2 1.3-4.5 1.1-1.5-.1 2.5.2 3.5 1.3 3.5s1.4-.9 1.2-3.5c-.2-2.4 0-3.1.7-2.1.5.8 2.9 1.4 6.2 1.5 4.9.2 5.3.4 6 3 .7 2.4.2 3.4-3.3 7.2-4.7 5.1-10.3 8.8-11.8 7.9-.6-.4-1.7 0-2.3.8-1.1 1.3-6.7 3.3-6.7 2.3zM8 47.7c0-.2 1.5-1.6 3.3-3.3l3.2-2.9-2.9 3.3c-2.8 3-3.6 3.7-3.6 2.9zm26.5-13.3c-2.2-2.2-1.1-3 1.5-1.1 1.2.8 1.7 1.8 1.2 2.1-.6.3-1.8-.1-2.7-1zM28 14.2c0-.5.7-1.3 1.6-1.6 1-.4 1.4-.1 1.2.6-.5 1.5-2.8 2.3-2.8 1zm17-.7c-.7-.8-1.8-1.5-2.5-1.5-.6 0-1.2-.7-1.2-1.5 0-2.3 2.5-1.8 4.3 1 1.9 2.9 1.4 4.4-.6 2z" fill="#737373"/><path d="M26.2 66.5c-5.5-1.7-8.7-3.8-14.1-9.2-4.9-4.9-5.1-4 2.3-12 2.8-3.1 3-3.1 5.2-1.5l2.2 1.7-2.1 2.3-2.2 2.4 3.5-.4c2.7-.2 3.6-.8 3.8-2.5.4-2.5 2.2-3.2 2.2-.8 0 .9.6 1.2 1.6.8 1.5-.6 1.5-1.2-.2-7.8-.4-1.6-.3-1.7.5-.5.6.8 1.6 4.8 2.3 8.9.7 4 1.8 7.5 2.5 7.8.8.3 1.3 2.2 1.3 4.7 0 3 .3 3.7 1 2.6.8-1.3 1-1.3 1 .2 0 5-2.7 5.9-10.8 3.3zm11.8 1c0-1.7 2.5-5.3 3.3-4.8.6.3.7.1.4-.4-.4-.6.2-3.1 1.3-5.5 1.2-2.8 1.7-3.3 1.4-1.5-.7 3.1.1 3.4 2.8 1 1.4-1.3 2.3-1.4 4-.5 2.3 1 2.2 1.1-.9 2.3-4.3 1.7-4.2 2.6.2 2.1 2.2-.3 3.5 0 3.5.7s-.4 1-.9.7c-.4-.3-1.6.3-2.6 1.4-1.9 2.1-12.5 5.9-12.5 4.5zM56.6 55c2.1-7.1 3.6-8.8 3.2-3.5-.1 2.5-1.1 4.9-2.5 6.5L55 60.5l1.6-5.5zM35.8 44.6c-.3-1.6 0-2.7.9-3 2-.8 2.3-.8 2.3.5 0 .5-.5.7-1.2.3-.7-.5-.9-.2-.6.8.4.8.3 2-.2 2.7-.5.9-.9.5-1.2-1.3zM44.7 13c-.9-1.1-1.3-2-.8-2 1.1 0 3.5 2.9 2.9 3.5-.2.2-1.2-.4-2.1-1.5z" fill="#6b6b6b"/><path d="M31.6 64c-2.2-5.6-1.9-6.5.5-1.1 1.1 2.4 1.8 4.6 1.5 4.8-.2.2-1.1-1.4-2-3.7zm-14.4-3.2c-.7-.7-1.2-.8-1.2-.3s-1.8-.8-3.9-2.9l-4-3.9 4.6-5.9c4.4-5.5 4.7-5.7 6.4-4.2 1.8 1.6 1.7 1.8-1.1 5.1-1.7 1.8-3 3.6-3 3.9 0 .3 1.1 2.5 2.5 5 2.4 4.2 2.2 5.7-.3 3.2zm6.8-3.4c0-1.4.3-1.4 1.5-.4.8.7 1.5 1.4 1.5 1.6 0 .2-.7.4-1.5.4s-1.5-.7-1.5-1.6z" fill="#636363"/><path d="M13.2 58.8c-1.4-1.4-1.6-3.8-.3-3.8.8 0 2.3 4.1 1.7 4.7-.1.1-.8-.3-1.4-.9z" fill="#5a5a5a"/></svg>